<?xml version="1.0" encoding="UTF-8" standalone="no"?>
<svg
   xmlns:dc="http://purl.org/dc/elements/1.1/"
   xmlns:cc="http://creativecommons.org/ns#"
   xmlns:rdf="http://www.w3.org/1999/02/22-rdf-syntax-ns#"
   xmlns:svg="http://www.w3.org/2000/svg"
   xmlns="http://www.w3.org/2000/svg"
   xmlns:sodipodi="http://sodipodi.sourceforge.net/DTD/sodipodi-0.dtd"
   xmlns:inkscape="http://www.inkscape.org/namespaces/inkscape"
   inkscape:version="1.0 (4035a4fb49, 2020-05-01)"
   sodipodi:docname="Bambino_unipi_bianco.svg"
   id="svg57"
   version="1.2"
   viewBox="0 0 419.841431 449.248993"
   height="449.248993pt"
   width="419.841431pt">
  <metadata
     id="metadata61">
    <rdf:RDF>
      <cc:Work
         rdf:about="">
        <dc:format>image/svg+xml</dc:format>
        <dc:type
           rdf:resource="http://purl.org/dc/dcmitype/StillImage" />
        <dc:title></dc:title>
      </cc:Work>
    </rdf:RDF>
  </metadata>
  <sodipodi:namedview
     inkscape:current-layer="svg57"
     inkscape:window-maximized="1"
     inkscape:window-y="-9"
     inkscape:window-x="-9"
     inkscape:cy="450.85258"
     inkscape:cx="643.91649"
     inkscape:zoom="0.69282292"
     showgrid="false"
     id="namedview59"
     inkscape:window-height="1001"
     inkscape:window-width="1920"
     inkscape:pageshadow="2"
     inkscape:pageopacity="0"
     guidetolerance="10"
     gridtolerance="10"
     objecttolerance="10"
     borderopacity="1"
     bordercolor="#666666"
     pagecolor="#ffffff" />
  <defs
     id="defs50">
    <clipPath
       id="clip1">
      <path
         id="path47"
         d="M 0 0 L 419.839844 0 L 419.839844 449.25 L 0 449.25 Z M 0 0 " />
    </clipPath>
  </defs>
  <g
     id="surface382559">
    <g
       id="g54"
       clip-rule="nonzero"
       clip-path="url(#clip1)">
      <path
         id="path52"
         d="M 134.585938 448.460938 C 124.480469 446.527344 120.625 444.917969 116.472656 440.882813 C 105.144531 429.890625 112.117188 413.226563 128.480469 412.175781 L 133.835938 411.835938 L 133.835938 406.859375 C 133.835938 404.121094 134.097656 401.171875 134.414063 400.308594 C 134.902344 398.972656 134.171875 398.109375 129.539063 394.558594 C 126.539063 392.261719 121.394531 388.03125 118.101563 385.160156 L 112.113281 379.933594 L 110.082031 383.492188 C 106.050781 390.546875 100.058594 393.964844 91.664063 393.988281 C 81.855469 394.019531 74.449219 389.710938 61.851563 376.644531 C 53.09375 367.5625 47.539063 359.839844 32.238281 335.507813 C 19.316406 314.949219 10.15625 291.335938 4.890625 265.007813 C -0.734375 236.886719 -1.546875 204.027344 2.664063 175.007813 C 8.769531 132.945313 26.292969 97.945313 48.511719 83.441406 C 57.402344 77.636719 61.125 76.488281 71.210938 76.429688 L 79.835938 76.382813 L 79.835938 71.488281 C 79.835938 67.441406 80.28125 65.6875 82.394531 61.363281 C 86.761719 52.421875 99.179688 41.300781 114.898438 32.246094 C 116.859375 31.117188 118.460938 30.078125 118.460938 29.933594 C 118.460938 29.792969 117.957031 28.710938 117.339844 27.53125 C 116.71875 26.335938 116.21875 23.414063 116.214844 20.945313 C 116.210938 15.78125 118.695313 10.6875 122.054688 8.980469 C 125.414063 7.273438 137.101563 4.121094 145.085938 2.769531 C 154.625 1.15625 181.125 0.953125 193.558594 2.402344 C 201.210938 3.292969 203.367188 3.269531 211.183594 2.210938 C 232.773438 -0.714844 257.488281 -0.738281 272.960938 2.144531 C 281.882813 3.808594 291.113281 6.695313 293.492188 8.566406 C 299.386719 13.203125 300.109375 22.734375 294.96875 28.117188 L 293.074219 30.105469 L 298.207031 32.9375 C 312.414063 40.773438 326.40625 52.511719 330.945313 60.394531 C 333.527344 64.878906 335.480469 72.457031 334.882813 75.648438 L 334.421875 78.113281 L 339.128906 76.613281 C 345.960938 74.441406 355.5625 75.046875 362.851563 78.109375 C 373.1875 82.453125 385.054688 93.015625 392.503906 104.507813 C 394.507813 107.601563 396.71875 110.976563 397.414063 112.007813 C 398.113281 113.039063 400.394531 117.761719 402.484375 122.507813 C 414.859375 150.5625 420.875 184.789063 419.695313 220.382813 C 418.320313 261.820313 409.351563 297.757813 393.078125 327.039063 C 388.90625 334.546875 369.300781 365.03125 365.710938 369.589844 C 356.726563 381.007813 346.078125 390.753906 338.492188 394.5 C 333.832031 396.804688 332.394531 397.160156 328.070313 397.097656 C 321.75 397.003906 318.476563 396.121094 314.078125 393.332031 C 310.570313 391.105469 307.339844 386.570313 306.40625 382.554688 L 305.925781 380.480469 L 299.605469 386.007813 C 296.128906 389.046875 291.078125 393.1875 288.382813 395.207031 C 284.015625 398.480469 283.542969 399.085938 284.03125 400.757813 C 284.332031 401.789063 284.5625 404.53125 284.539063 406.851563 L 284.5 411.074219 L 289.417969 411.429688 C 303.1875 412.417969 310.941406 424.558594 305.15625 436.078125 C 300.742188 444.859375 288.453125 448.964844 266.585938 448.953125 C 250.078125 448.941406 232.761719 446.011719 215.269531 440.261719 L 209.703125 438.433594 L 204.394531 440.25 C 197.65625 442.550781 183.820313 446.046875 175.085938 447.652344 C 165.933594 449.335938 141.695313 449.820313 134.585938 448.460938 Z M 160.367188 442 C 195.824219 439.242188 238.839844 422.015625 275.03125 396.074219 L 283.480469 390.019531 L 279.730469 387.878906 C 275.824219 385.648438 271.484375 379.574219 271.46875 376.320313 C 271.464844 375.460938 271.269531 374.5625 271.035156 374.328125 C 270.796875 374.09375 268.183594 375.496094 265.222656 377.449219 C 229.398438 401.058594 187.296875 415.605469 145.542969 418.800781 C 139.226563 419.28125 132.925781 419.492188 131.539063 419.269531 C 127.855469 418.671875 123.746094 420.070313 120.933594 422.882813 C 118.894531 424.925781 118.460938 425.925781 118.464844 428.617188 C 118.46875 432.226563 120.460938 436.167969 122.960938 437.503906 C 127.078125 439.710938 137.277344 441.648438 149.960938 442.632813 C 150.582031 442.683594 155.261719 442.398438 160.367188 442 Z M 277.480469 441.21875 C 286.023438 440.15625 294.492188 437.933594 296.375 436.253906 C 298.167969 434.660156 299.960938 430.757813 299.960938 428.457031 C 299.960938 425.566406 297.707031 422.027344 294.871094 420.472656 C 292.519531 419.183594 290.167969 418.875 279.710938 418.46875 C 272.90625 418.207031 265.0625 417.691406 262.277344 417.320313 L 257.222656 416.652344 L 242.777344 423.953125 C 234.835938 427.96875 226.648438 431.933594 224.585938 432.757813 L 220.835938 434.265625 L 224.960938 435.515625 C 241.691406 440.582031 263.503906 442.953125 277.480469 441.21875 Z M 151.835938 410.910156 C 168.910156 409.476563 195.578125 402.964844 214.085938 395.703125 C 230.90625 389.101563 244.402344 382.210938 258.929688 372.804688 L 266.273438 368.046875 L 263.453125 366.214844 C 261.675781 365.058594 259.90625 362.925781 258.671875 360.453125 L 256.714844 356.527344 L 251.34375 361.363281 C 237.550781 373.785156 205.308594 388.46875 178.859375 394.371094 C 169.1875 396.527344 151.90625 399.246094 147.824219 399.253906 C 145.953125 399.253906 144.636719 399.929688 142.671875 401.898438 C 140.410156 404.15625 140.097656 404.878906 140.503906 406.910156 C 141.132813 410.054688 143.03125 412.058594 145.003906 411.664063 C 145.875 411.492188 148.949219 411.152344 151.835938 410.910156 Z M 276.292969 409.589844 C 277.46875 407.910156 277.945313 403.414063 276.898438 403.882813 C 276.589844 404.019531 274.339844 405.480469 271.898438 407.132813 L 267.464844 410.132813 L 269.648438 410.605469 C 273.714844 411.484375 275.117188 411.269531 276.292969 409.589844 Z M 148.027344 392 L 152.832031 391.550781 L 152.421875 387.574219 C 152.09375 384.378906 152.320313 383.070313 153.585938 380.929688 L 155.160156 378.261719 L 151.28125 375.648438 L 147.398438 373.035156 L 146.554688 376.363281 C 145.355469 381.082031 142.167969 385.308594 138.253906 387.363281 L 134.886719 389.132813 L 137.707031 391.511719 C 139.898438 393.363281 140.824219 393.730469 141.871094 393.171875 C 142.613281 392.773438 145.382813 392.246094 148.027344 392 Z M 170.652344 388.710938 C 188.300781 385.304688 204.871094 379.675781 221.210938 371.53125 C 234.078125 365.121094 240.859375 360.972656 245.585938 356.617188 C 249.800781 352.734375 250.300781 352.007813 248.773438 352.007813 C 247.28125 352.007813 242.253906 346.8125 241.734375 344.734375 C 241.496094 343.785156 241.15625 343.007813 240.984375 343.007813 C 240.808594 343.007813 238.425781 344.90625 235.691406 347.226563 C 223.71875 357.382813 204.808594 366.828125 173.585938 378.238281 C 166.574219 380.800781 160.589844 383.289063 160.285156 383.765625 C 159.355469 385.230469 159.652344 387.839844 160.890625 389.078125 C 162.320313 390.507813 161.101563 390.550781 170.652344 388.710938 Z M 332.289063 389.386719 C 338.816406 387.15625 349.742188 377.707031 358.589844 366.632813 C 363.359375 360.660156 382.945313 330.484375 387.550781 322.007813 C 402.722656 294.085938 412.449219 253.304688 412.460938 217.570313 C 412.460938 208.988281 412.078125 207.632813 410.265625 209.816406 C 409.78125 210.398438 407.851563 211.597656 405.972656 212.480469 C 401.34375 214.65625 394.953125 214.671875 390.726563 212.515625 C 388.988281 211.628906 387.464844 211.007813 387.34375 211.140625 C 387.21875 211.273438 386.730469 216.273438 386.257813 222.257813 C 384.207031 248.1875 377.710938 274.398438 367.074219 299.691406 C 362.761719 309.945313 353.210938 324.769531 342.070313 338.507813 C 339.558594 341.601563 334.667969 347.84375 331.195313 352.382813 C 327.722656 356.917969 322.144531 363.550781 318.796875 367.121094 C 312.15625 374.203125 311.96875 374.734375 313.859375 381.097656 C 315.222656 385.6875 318.386719 388.480469 323.316406 389.449219 C 328.019531 390.375 329.421875 390.363281 332.289063 389.386719 Z M 95.375 386.472656 C 99.210938 385.410156 102.433594 382.503906 104.664063 378.101563 L 106.542969 374.394531 L 101.441406 369.007813 C 93.933594 361.089844 87.683594 353.207031 80.6875 342.84375 C 77.269531 337.777344 72.1875 330.425781 69.390625 326.507813 C 58.675781 311.480469 52.117188 298.457031 44.628906 277.328125 C 38.160156 259.082031 35.082031 242.867188 34 221.304688 C 33.714844 215.640625 33.386719 211.007813 33.265625 211.007813 C 33.144531 211.007813 31.816406 211.730469 30.3125 212.617188 C 24.144531 216.257813 16.578125 215.726563 10.691406 211.234375 L 7.242188 208.597656 L 7.675781 223.488281 C 8.710938 258.988281 16.761719 291.539063 31.398438 319.382813 C 36.671875 329.417969 54.066406 356.429688 59.867188 363.59375 C 69.304688 375.253906 79.699219 384.058594 86.5625 386.207031 C 90.359375 387.398438 91.882813 387.445313 95.375 386.472656 Z M 133.84375 381.675781 C 137.320313 380.222656 139.457031 376.558594 139.460938 372.035156 C 139.460938 368.808594 139.117188 368.074219 136.085938 364.832031 C 132.390625 360.882813 132.097656 359.929688 133.953125 357.878906 C 135.640625 356.011719 137.429688 356.15625 140.050781 358.359375 C 143.523438 361.28125 145.878906 361.914063 148.773438 360.707031 C 150.144531 360.132813 151.816406 358.878906 152.488281 357.917969 C 154 355.761719 154.042969 350.628906 152.5625 348.675781 C 151.230469 346.914063 151.125 343.640625 152.363281 342.40625 C 153.648438 341.117188 156.351563 341.296875 157.558594 342.746094 C 160.410156 346.183594 166.261719 346.222656 168.878906 342.816406 C 171.234375 339.761719 170.59375 336.777344 166.324219 330.878906 C 165.625 329.910156 165.621094 329.179688 166.296875 327.691406 C 167.640625 324.742188 170.941406 325.054688 173.882813 328.40625 C 175.164063 329.867188 176.210938 331.355469 176.210938 331.714844 C 176.210938 333.335938 183.105469 335.675781 187.800781 335.648438 C 195.121094 335.605469 199.292969 332.695313 200.972656 326.46875 C 201.597656 324.148438 201.460938 322.890625 200.226563 319.597656 C 198.726563 315.582031 198.691406 315.550781 190.40625 311.234375 C 185.832031 308.855469 179.421875 305.78125 176.164063 304.40625 C 168.800781 301.300781 162.023438 296.519531 156.445313 290.496094 L 152.164063 285.867188 L 148.441406 286.761719 C 145.847656 287.382813 144.0625 287.425781 142.558594 286.902344 C 140.40625 286.152344 140.402344 286.160156 139.972656 289.777344 C 138.972656 298.230469 131.289063 306.257813 124.199219 306.257813 C 122.695313 306.257813 122.253906 306.796875 121.582031 309.457031 C 120.585938 313.425781 116.296875 318.550781 112.246094 320.617188 C 110.082031 321.71875 107.816406 322.164063 104.453125 322.144531 C 101.84375 322.128906 99.710938 322.40625 99.710938 322.753906 C 99.710938 324.113281 95.628906 328.144531 92.785156 329.597656 C 91.140625 330.433594 88.148438 331.179688 86.136719 331.25 C 84.121094 331.324219 82.472656 331.652344 82.46875 331.984375 C 82.457031 333.011719 90.734375 345.207031 94.585938 349.832031 C 96.601563 352.257813 99.238281 354.75 100.445313 355.371094 C 109.648438 360.132813 118.722656 349.25 112.742188 340.621094 C 110.863281 337.90625 110.828125 337.695313 112.011719 335.894531 C 113.378906 333.804688 116.253906 333.371094 117.644531 335.046875 C 119.992188 337.878906 126.230469 336.730469 129.648438 332.835938 C 131.503906 330.722656 131.960938 329.53125 131.960938 326.804688 C 131.960938 324.9375 131.601563 322.730469 131.160156 321.90625 C 130.546875 320.761719 130.636719 319.972656 131.550781 318.582031 C 133.003906 316.363281 134.878906 316.261719 137.417969 318.257813 C 140.078125 320.347656 146.050781 320.316406 148.75 318.191406 C 151.3125 316.175781 152.960938 312.957031 152.960938 309.96875 C 152.960938 307.03125 150.960938 302.691406 149.164063 301.730469 C 145.832031 299.945313 146.941406 295.007813 150.675781 295.007813 C 152.296875 295.007813 153.578125 295.851563 155.828125 298.410156 C 161.121094 304.421875 161.757813 312.488281 157.46875 319.246094 C 154.289063 324.261719 150.125 326.753906 144.289063 327.125 C 139.664063 327.417969 139.53125 327.484375 139.035156 329.777344 C 137.425781 337.242188 130.515625 343.757813 124.207031 343.757813 C 122.589844 343.757813 122.363281 344.144531 122.042969 347.484375 C 121.515625 352.996094 118.6875 357.933594 114.40625 360.820313 C 112.417969 362.160156 109.988281 363.257813 109.003906 363.257813 C 108.015625 363.257813 107.210938 363.515625 107.210938 363.832031 C 107.210938 364.644531 121.367188 378.46875 124.085938 380.308594 C 127.84375 382.851563 130.230469 383.1875 133.84375 381.675781 Z M 295.207031 379.882813 C 300.054688 376.039063 311.210938 365.5 311.210938 364.761719 C 311.210938 364.4375 310.070313 363.960938 308.675781 363.699219 C 302.308594 362.503906 296.234375 354.742188 296.21875 347.777344 C 296.210938 344.6875 296.199219 344.675781 292.898438 344.179688 C 286.792969 343.265625 280.421875 337.003906 279.304688 330.820313 C 278.816406 328.121094 278.671875 328.007813 275.777344 328.007813 C 270.675781 328.007813 266.816406 326.402344 263.191406 322.777344 C 256.835938 316.421875 256.132813 306.890625 261.492188 299.679688 C 264.292969 295.902344 266.636719 294.617188 268.867188 295.632813 C 271.578125 296.871094 271.28125 299.820313 268.085938 303.355469 C 265.753906 305.933594 265.460938 306.722656 265.460938 310.394531 C 265.460938 314.023438 265.765625 314.859375 267.925781 317.214844 C 271.148438 320.730469 276.121094 321.523438 280.335938 319.191406 C 282.398438 318.050781 283.535156 317.839844 284.878906 318.351563 C 286.578125 319 286.648438 319.277344 286.199219 323.5625 C 285.632813 328.988281 286.699219 332.0625 290.167969 334.980469 C 292.789063 337.183594 297.320313 337.730469 299.859375 336.148438 C 301.710938 334.988281 304.941406 335.894531 305.414063 337.699219 C 305.625 338.503906 305.328125 340.0625 304.753906 341.167969 C 303.234375 344.09375 303.445313 349.6875 305.179688 352.53125 C 308.210938 357.503906 314.71875 358.585938 319.386719 354.894531 C 322.410156 352.503906 335.960938 334.167969 335.960938 332.46875 C 335.960938 332.191406 333.785156 331.785156 331.121094 331.574219 C 325.335938 331.109375 322.152344 329.421875 319.085938 325.199219 C 316.988281 322.304688 316.589844 322.09375 313.136719 322.050781 C 306.203125 321.964844 299.195313 316.777344 296.992188 310.097656 C 296.125 307.46875 295.707031 307.117188 292.929688 306.671875 C 284.8125 305.375 278.210938 297.730469 278.210938 289.628906 C 278.210938 287.046875 278.015625 286.671875 276.898438 287.105469 C 274 288.226563 271.585938 288.347656 268.535156 287.527344 L 265.335938 286.664063 L 258.816406 292.898438 C 252.453125 298.988281 236.296875 310.445313 229.363281 313.792969 C 225.308594 315.75 223.460938 318.882813 223.460938 323.796875 C 223.460938 334.203125 237.722656 339.105469 243.027344 330.523438 C 244.957031 327.402344 247.984375 325.710938 250.171875 326.535156 C 252.542969 327.429688 252.863281 329.953125 250.910156 332.339844 C 248.027344 335.855469 247.136719 338.910156 248.222656 341.535156 C 250.277344 346.488281 255.210938 347.433594 259.835938 343.757813 C 263.128906 341.140625 263.113281 341.144531 265.296875 342.671875 C 267.382813 344.136719 267.398438 345.875 265.359375 349.785156 C 263.953125 352.480469 263.863281 353.222656 264.625 355.769531 C 265.105469 357.367188 266.417969 359.40625 267.542969 360.296875 C 269.367188 361.742188 270.167969 361.863281 274.984375 361.433594 C 280 360.984375 280.441406 361.066406 281.246094 362.570313 C 281.96875 363.917969 281.769531 364.871094 280.078125 368.214844 C 277.519531 373.269531 277.9375 376.632813 281.570313 380.265625 C 283.730469 382.421875 284.5625 382.757813 287.820313 382.757813 C 291.046875 382.757813 292.089844 382.347656 295.207031 379.882813 Z M 169.835938 371.878906 C 173.136719 370.714844 176.121094 369.519531 176.46875 369.21875 C 176.8125 368.917969 175.464844 367.554688 173.46875 366.191406 C 171.46875 364.828125 167.941406 361.910156 165.621094 359.710938 L 161.40625 355.714844 L 159.371094 359.875 C 158.15625 362.359375 156.300781 364.742188 154.769531 365.78125 L 152.199219 367.527344 L 157.269531 370.96875 C 160.054688 372.863281 162.675781 374.316406 163.085938 374.203125 C 163.5 374.089844 166.535156 373.042969 169.835938 371.878906 Z M 194.660156 362.035156 L 201.058594 359.289063 L 195.539063 356.035156 C 192.5 354.246094 187.105469 350.445313 183.550781 347.59375 L 177.082031 342.402344 L 176.171875 344.605469 C 175.667969 345.816406 173.78125 348.109375 171.972656 349.699219 L 168.683594 352.59375 L 172.554688 356.070313 C 177.214844 360.261719 185.964844 365.644531 187.300781 365.144531 C 187.828125 364.945313 191.140625 363.546875 194.660156 362.035156 Z M 215.898438 351.90625 C 221.570313 348.8125 230.148438 343 230.191406 342.21875 C 230.203125 341.992188 228.984375 341.363281 227.480469 340.820313 C 220.527344 338.304688 215.367188 329.492188 216.1875 321.527344 L 216.601563 317.507813 L 207.9375 317.507813 L 208.269531 322.945313 C 208.570313 327.828125 208.386719 328.792969 206.472656 332.425781 C 203.738281 337.605469 199.964844 340.625 194.277344 342.183594 L 189.753906 343.421875 L 194.417969 346.578125 C 199.429688 349.964844 208.398438 354.960938 209.523438 354.988281 C 209.898438 355 212.769531 353.609375 215.898438 351.90625 Z M 338.242188 323.320313 C 341.921875 321.460938 342.964844 319.753906 346.070313 310.5 C 350.558594 297.128906 351.1875 283.796875 347.816406 273.53125 C 345.433594 266.269531 339.996094 257.632813 336.085938 254.902344 C 332.914063 252.6875 332.609375 252.632813 324.070313 252.632813 C 315.652344 252.632813 315.105469 252.730469 310.230469 255.128906 C 307.421875 256.511719 303.394531 259.363281 301.222656 261.503906 C 296.058594 266.597656 288.714844 277.167969 287.070313 281.882813 C 283.433594 292.292969 287.507813 299.492188 297.050781 299.519531 C 302.421875 299.53125 303.285156 300.195313 303.425781 304.429688 C 303.617188 310.144531 308.136719 314.824219 313.214844 314.566406 C 314.792969 314.484375 317.394531 314.355469 318.996094 314.277344 C 322.089844 314.121094 322.78125 314.753906 323.550781 318.421875 C 324.289063 321.9375 328.484375 324.722656 333.367188 324.9375 C 334.207031 324.976563 336.398438 324.246094 338.242188 323.320313 Z M 88.671875 323.234375 C 91.796875 321.914063 93.410156 320.046875 94.613281 316.363281 C 95.390625 313.984375 95.996094 313.335938 97.605469 313.148438 C 98.714844 313.019531 100.496094 313.484375 101.558594 314.179688 C 107.105469 317.816406 116.355469 310.648438 115.054688 303.71875 C 114.375 300.105469 116.242188 298.453125 120.371094 299.019531 C 124.53125 299.589844 129.429688 297.140625 131.398438 293.507813 C 132.539063 291.398438 132.738281 289.925781 132.402344 286.011719 C 132.03125 281.703125 131.519531 280.445313 127.96875 275.136719 C 125.761719 271.832031 123.058594 267.554688 121.964844 265.632813 C 119.386719 261.105469 114.785156 257.140625 108.816406 254.304688 C 104.886719 252.4375 102.8125 251.972656 97.019531 251.671875 C 87.953125 251.195313 84.023438 252.265625 79.894531 256.320313 C 76.050781 260.097656 70.871094 269.945313 69.363281 276.34375 C 66.613281 288.003906 69.222656 305.949219 75.5625 319.007813 C 77.761719 323.535156 83.550781 325.402344 88.671875 323.234375 Z M 208.578125 309.261719 C 207.199219 308.933594 205.710938 308.304688 205.265625 307.863281 C 203.96875 306.5625 206.296875 306.101563 210.023438 306.921875 C 212.042969 307.367188 214.65625 307.390625 216.710938 306.984375 C 221.402344 306.0625 221.960938 306.101563 221.960938 307.359375 C 221.960938 307.96875 220.863281 308.78125 219.523438 309.167969 C 218.183594 309.554688 217.671875 309.902344 218.382813 309.9375 C 221.125 310.082031 226.5 307.28125 237.722656 299.875 C 253.6875 289.332031 261.222656 281.542969 267.226563 269.386719 C 271.332031 261.066406 274.445313 251.109375 275.582031 242.628906 C 276.074219 238.960938 275.957031 238.457031 274.152344 236.574219 C 268.886719 231.078125 269.957031 221.152344 275.660156 222.582031 C 277.636719 223.078125 277.664063 223.035156 277.261719 220.042969 C 276.992188 218.019531 275.6875 215.425781 273.375 212.316406 C 269.003906 206.433594 267.363281 201.132813 268.046875 195.097656 C 268.414063 191.824219 268.230469 189.820313 267.335938 187.480469 C 266.597656 185.550781 266.214844 182.710938 266.355469 180.238281 C 266.546875 176.84375 266.878906 176.023438 268.335938 175.300781 L 270.089844 174.429688 L 268.433594 173.269531 C 267.183594 172.394531 265.546875 172.203125 261.804688 172.484375 C 256.050781 172.917969 253.585938 171.789063 249.984375 167.0625 C 248.074219 164.554688 247.835938 163.640625 247.835938 158.757813 C 247.835938 153.375 247.796875 153.257813 245.652344 152.511719 C 244.453125 152.09375 242.367188 150.90625 241.015625 149.878906 C 238.125 147.671875 237.488281 147.589844 236.117188 149.25 C 234.382813 151.34375 229.289063 153.222656 225.296875 153.238281 C 219.894531 153.261719 214.4375 150.390625 211.519531 145.984375 L 209.25 142.554688 L 205.667969 146.390625 C 199.769531 152.703125 192.582031 154.40625 186.023438 151.046875 C 182.808594 149.398438 182.632813 149.386719 180.023438 150.636719 C 178.546875 151.34375 175.378906 152.101563 172.984375 152.320313 C 169.371094 152.652344 168.714844 152.925781 169.121094 153.925781 C 169.390625 154.589844 169.785156 156.359375 169.996094 157.855469 C 171.203125 166.3125 162.46875 174.210938 154.230469 172.117188 C 151.800781 171.5 150.933594 171.585938 149.636719 172.5625 L 148.039063 173.765625 L 149.636719 175.363281 C 151.125 176.851563 151.238281 177.769531 151.3125 189.214844 C 151.402344 203.0625 151.230469 203.761719 145.925781 210.964844 C 143.445313 214.335938 142.460938 216.378906 142.460938 218.167969 C 142.460938 220.433594 142.6875 220.683594 144.894531 220.894531 C 149.558594 221.347656 150.234375 228.222656 146.160156 233.738281 C 144.613281 235.828125 144.527344 236.542969 144.921875 244.027344 C 145.429688 253.628906 147.933594 261.898438 153.863281 273.546875 C 157.019531 279.753906 158.839844 282.246094 163.882813 287.269531 C 168.933594 292.300781 171.179688 293.925781 176.316406 296.269531 C 179.765625 297.84375 186.128906 300.945313 190.460938 303.164063 C 199.988281 308.046875 204.972656 309.902344 208.460938 309.875 L 211.085938 309.851563 Z M 216.710938 291.824219 C 215.078125 290.96875 213.269531 290.601563 211.921875 290.851563 C 208.675781 291.460938 204.53125 290.058594 202.105469 287.527344 C 200.917969 286.285156 200.160156 285.058594 200.421875 284.792969 C 200.6875 284.53125 203.652344 284.765625 207.019531 285.3125 C 212.371094 286.179688 213.550781 286.160156 216.402344 285.132813 C 220.015625 283.832031 221.039063 284.125 219.359375 285.984375 C 218.472656 286.960938 218.40625 287.777344 219.035156 290.050781 C 219.46875 291.617188 219.710938 292.964844 219.578125 293.050781 C 219.445313 293.136719 218.15625 292.582031 216.710938 291.824219 Z M 220.460938 276.851563 C 215.445313 276.125 216.480469 276.140625 203.117188 276.609375 C 193.105469 276.957031 191.984375 276.867188 190.320313 275.554688 C 189.078125 274.582031 188.148438 274.339844 187.414063 274.800781 C 185.640625 275.925781 182.210938 275.648438 182.210938 274.382813 C 182.210938 273.699219 182.90625 273.257813 183.96875 273.257813 C 186.113281 273.257813 188.210938 271.09375 188.210938 268.882813 C 188.210938 267.988281 188.511719 267.257813 188.882813 267.257813 C 189.679688 267.257813 190.460938 269.097656 190.460938 270.988281 C 190.460938 272.527344 193.335938 273.535156 195.464844 272.742188 C 196.21875 272.464844 198.429688 270.902344 200.375 269.273438 C 203.914063 266.3125 203.917969 266.308594 211.582031 266.019531 L 219.246094 265.730469 L 221.917969 268.28125 C 226.535156 272.691406 229.460938 273.636719 229.460938 270.722656 C 229.460938 269.03125 231.585938 266.34375 231.824219 267.726563 C 231.890625 268.085938 231.992188 268.71875 232.058594 269.132813 C 232.589844 272.519531 233.359375 273.257813 236.378906 273.257813 C 239.40625 273.257813 239.425781 273.273438 238.074219 274.769531 C 237.039063 275.910156 235.855469 276.257813 233.269531 276.175781 C 231.382813 276.113281 228.65625 276.375 227.210938 276.753906 C 225.75 277.140625 222.761719 277.179688 220.460938 276.851563 Z M 208.085938 253.472656 C 207.066406 252.710938 205.613281 252.484375 203.554688 252.761719 C 201.003906 253.101563 200.128906 252.839844 198.089844 251.121094 C 195.351563 248.820313 193.460938 245.605469 193.460938 243.25 C 193.460938 241.40625 199.816406 234.359375 200.691406 235.234375 C 201.015625 235.5625 200.957031 236.269531 200.558594 236.808594 C 195.953125 243.042969 195.460938 244.074219 196.574219 245.1875 C 197.550781 246.167969 198.027344 246.152344 200.632813 245.0625 C 203.402344 243.902344 203.835938 243.910156 207.578125 245.179688 C 210.871094 246.300781 212.113281 246.390625 214.664063 245.710938 C 217.261719 245.019531 218.378906 245.121094 221.664063 246.347656 C 225.554688 247.804688 227.160156 249.605469 225.792969 250.976563 C 225.394531 251.371094 222.429688 252.15625 219.203125 252.714844 C 215.976563 253.273438 212.492188 253.925781 211.460938 254.164063 C 210.347656 254.417969 208.976563 254.136719 208.085938 253.472656 Z M 188.628906 223.074219 C 188.398438 222.699219 188.394531 221.902344 188.625 221.304688 C 188.972656 220.394531 188.402344 220.328125 185.0625 220.878906 C 178.550781 221.960938 178.085938 221.953125 178.085938 220.773438 C 178.085938 219.457031 185.089844 217.613281 188.753906 217.964844 C 190.222656 218.109375 191.316406 217.820313 191.542969 217.226563 C 192 216.03125 188.941406 215.929688 185.207031 217.023438 C 183.765625 217.445313 179.878906 217.820313 176.570313 217.855469 C 170.082031 217.921875 166.507813 216.863281 162.226563 213.597656 L 159.789063 211.738281 L 160.828125 208.28125 C 162.855469 201.546875 168.230469 198.035156 176.585938 197.996094 C 180.566406 197.976563 182.601563 198.367188 184.996094 199.613281 C 188.703125 201.542969 190.140625 201.671875 190.734375 200.132813 C 192.070313 196.644531 195.839844 200.984375 197.730469 208.191406 C 199.320313 214.238281 198.550781 216.496094 193.449219 220.765625 C 189.632813 223.960938 189.28125 224.128906 188.628906 223.074219 Z M 169.007813 212.054688 C 168.296875 210.355469 168.066406 208.472656 168.382813 206.992188 L 168.886719 204.632813 L 166.9375 206.4375 C 163.867188 209.28125 163.667969 211.011719 166.179688 213.019531 C 169.421875 215.617188 170.359375 215.292969 169.007813 212.054688 Z M 191.960938 212.667969 C 191.960938 210.628906 188.070313 205.007813 186.65625 205.007813 C 186.355469 205.007813 186.160156 206.273438 186.21875 207.820313 C 186.277344 209.367188 186.054688 211.382813 185.722656 212.304688 C 185.152344 213.890625 185.296875 213.96875 188.539063 213.828125 C 190.835938 213.730469 191.960938 213.347656 191.960938 212.667969 Z M 181.128906 207.941406 C 181.898438 206.691406 180.160156 205.257813 179.128906 206.289063 C 178.261719 207.15625 178.804688 208.757813 179.960938 208.757813 C 180.324219 208.757813 180.851563 208.390625 181.128906 207.941406 Z M 240.710938 222.558594 C 239.269531 222 236.230469 221.601563 233.964844 221.671875 C 230.511719 221.777344 229.796875 221.574219 229.578125 220.429688 C 229.335938 219.171875 229.828125 219.085938 235.683594 219.394531 C 242.019531 219.726563 246.574219 221.40625 245.566406 223.039063 C 245.011719 223.941406 244.019531 223.84375 240.710938 222.558594 Z M 245.960938 219.507813 C 244.929688 219.34375 241.796875 218.675781 238.996094 218.019531 C 236.195313 217.367188 232.902344 217.03125 231.683594 217.273438 C 229.757813 217.660156 229.457031 217.496094 229.4375 216.050781 C 229.414063 214.511719 229.335938 214.480469 228.425781 215.683594 C 227.0625 217.480469 226.460938 216.582031 226.460938 212.738281 C 226.460938 209.96875 226.917969 208.976563 229.480469 206.199219 C 233.597656 201.730469 238.902344 199.503906 245.585938 199.441406 C 255.359375 199.34375 261.449219 202.570313 263.328125 208.847656 C 264.695313 213.410156 263.792969 215.097656 258.59375 217.699219 C 254.125 219.929688 251.261719 220.339844 245.960938 219.507813 Z M 257.242188 215.492188 C 258.875 214.65625 260.210938 213.804688 260.210938 213.59375 C 260.210938 212.433594 258.019531 208.234375 256.953125 207.351563 C 255.828125 206.421875 255.710938 206.640625 255.710938 209.6875 C 255.710938 211.957031 255.207031 213.699219 254.15625 215.03125 C 252.296875 217.398438 253.230469 217.535156 257.242188 215.492188 Z M 238.742188 214.195313 C 238.398438 213.472656 238.109375 211.128906 238.101563 208.988281 L 238.085938 205.097656 L 236.328125 206.738281 C 234.328125 208.605469 232.460938 211.894531 232.460938 213.546875 C 232.460938 214.289063 233.414063 214.765625 235.273438 214.960938 C 236.820313 215.121094 238.375 215.3125 238.730469 215.378906 C 239.082031 215.449219 239.089844 214.914063 238.742188 214.195313 Z M 250.722656 209.15625 C 251.253906 207.777344 249.847656 206.820313 248.8125 207.855469 C 248.011719 208.65625 248.585938 210.257813 249.675781 210.257813 C 250.019531 210.257813 250.492188 209.761719 250.722656 209.15625 Z M 186.335938 189.769531 C 183.25 188.472656 180.890625 188.175781 173.015625 188.089844 C 167.75 188.03125 163.269531 187.8125 163.058594 187.601563 C 162.847656 187.390625 163.242188 186.75 163.933594 186.175781 C 166.101563 184.375 180.296875 184.929688 186.296875 187.050781 C 190.695313 188.601563 192.269531 190.03125 190.648438 191.007813 C 190.339844 191.191406 188.398438 190.636719 186.335938 189.769531 Z M 231.710938 190.539063 C 231.710938 190.003906 233.652344 188.605469 236.023438 187.425781 C 241.589844 184.660156 249.714844 183.996094 255.925781 185.800781 C 259.996094 186.984375 261.613281 188.105469 260.644531 189.070313 C 260.390625 189.328125 257.8125 188.921875 254.917969 188.171875 C 248.476563 186.503906 242.957031 186.972656 237.6875 189.644531 C 233.605469 191.710938 231.710938 191.996094 231.710938 190.539063 Z M 358.449219 300.820313 C 362.875 291.476563 369.667969 271.882813 373.113281 258.523438 C 376.074219 247.03125 378.445313 231.578125 379.175781 218.980469 L 379.691406 210.082031 L 376.441406 212.230469 C 371.976563 215.183594 365.140625 215.273438 359.453125 212.460938 L 355.574219 210.542969 L 355.089844 215.085938 C 354.175781 223.597656 351.601563 238.117188 349.421875 247.039063 L 347.25 255.941406 L 350.171875 261.035156 C 354.867188 269.222656 356.355469 274.59375 356.773438 284.882813 C 357.113281 293.261719 356.070313 302.765625 354.320313 307.195313 C 354.035156 307.914063 354.027344 308.507813 354.300781 308.507813 C 354.578125 308.507813 356.445313 305.046875 358.449219 300.820313 Z M 61.324219 294.257813 C 59.6875 283.113281 62.355469 270.308594 68.589844 259.398438 L 72.007813 253.417969 L 70.160156 245.523438 C 68.269531 237.460938 65.699219 222.996094 64.804688 215.394531 L 64.308594 211.15625 L 60.71875 213.019531 C 58.609375 214.113281 55.3125 215.039063 52.730469 215.257813 C 49.046875 215.570313 47.742188 215.324219 44.660156 213.738281 L 40.984375 211.84375 L 41.453125 222.113281 C 41.980469 233.730469 42.839844 240.890625 45.054688 252.257813 C 46.65625 260.449219 52.539063 278.96875 56.300781 287.648438 C 57.496094 290.40625 59.15625 294.253906 59.988281 296.191406 C 60.820313 298.132813 61.621094 299.585938 61.769531 299.425781 C 61.917969 299.261719 61.71875 296.9375 61.324219 294.257813 Z M 276.742188 279.070313 C 279.453125 277.699219 281.214844 275.75 286.058594 268.757813 C 295.664063 254.878906 303.191406 248.683594 313.824219 245.917969 C 316.226563 245.289063 318.335938 244.628906 318.519531 244.449219 C 318.703125 244.265625 319.46875 240.464844 320.226563 236 C 322.113281 224.847656 323.496094 205.222656 322.945313 197.398438 C 322.585938 192.28125 322.714844 190.730469 323.558594 190.027344 C 325.664063 188.285156 327.910156 189.464844 329.914063 193.367188 C 333.316406 199.984375 339.414063 202.28125 344.816406 198.988281 C 346.183594 198.15625 347.871094 196.460938 348.566406 195.21875 C 349.960938 192.742188 352.777344 191.613281 354.632813 192.785156 C 355.285156 193.199219 356.074219 195.019531 356.382813 196.832031 C 357.359375 202.550781 361.363281 206.425781 366.953125 207.054688 C 371.945313 207.617188 374.9375 205.511719 378.148438 199.167969 C 380.421875 194.679688 380.9375 194.132813 382.894531 194.132813 C 384.796875 194.132813 385.335938 194.648438 386.960938 198.023438 C 389.402344 203.089844 391.828125 205.582031 395.355469 206.636719 C 400.828125 208.277344 407.414063 204.464844 410.5625 197.828125 C 412.105469 194.578125 411.902344 188.0625 409.832031 174.164063 C 408.207031 163.265625 408.316406 163.492188 405.867188 165.796875 C 401.039063 170.34375 390.578125 172.84375 386.195313 170.496094 C 385.046875 169.882813 384.609375 170.0625 383.90625 171.433594 C 382.648438 173.882813 377.921875 178.703125 375.5625 179.941406 C 374.449219 180.527344 371.851563 181.367188 369.789063 181.808594 C 365.125 182.808594 357.957031 181.195313 354.140625 178.285156 C 352.75 177.222656 351.53125 176.472656 351.433594 176.617188 C 345.0625 185.878906 336.714844 189.390625 327.464844 186.699219 C 325.128906 186.023438 322.066406 184.453125 320.65625 183.214844 L 318.089844 180.964844 L 317.253906 183.5 C 316.242188 186.570313 313.847656 188.9375 310.617188 190.066406 C 308.507813 190.800781 308.210938 191.242188 308.195313 193.640625 C 308.164063 198.234375 306.765625 202.847656 304.050781 207.320313 C 300.394531 213.335938 300.492188 216.167969 304.203125 211.757813 C 306.933594 208.507813 309.457031 208.71875 310.96875 212.320313 C 311.621094 213.867188 312.3125 217.15625 312.503906 219.632813 C 312.804688 223.46875 312.597656 224.507813 311.097656 226.699219 C 310.128906 228.113281 307.847656 230.054688 306.027344 231.015625 C 303.730469 232.226563 302.332031 233.625 301.449219 235.601563 C 300.746094 237.164063 299.210938 239.078125 298.027344 239.851563 C 295.351563 241.605469 290.226563 241.679688 287.671875 240.007813 C 284.15625 237.703125 283.789063 238.179688 282.082031 247.257813 C 280.003906 258.277344 277.414063 266.128906 273.289063 273.902344 C 271.460938 277.351563 269.960938 280.304688 269.960938 280.464844 C 269.960938 281.332031 273.832031 280.535156 276.742188 279.070313 Z M 147.25 279.5625 C 148.222656 279.1875 147.988281 278.28125 145.785156 273.90625 C 141.304688 265.003906 138.671875 255.941406 137.742188 246.1875 C 136.953125 237.902344 136.789063 237.3125 135.167969 236.90625 C 133.996094 236.613281 132.898438 236.984375 131.761719 238.0625 C 126.6875 242.875 118.289063 241.410156 116.089844 235.324219 C 115.398438 233.410156 114.121094 232.144531 111.269531 230.53125 C 108.386719 228.90625 106.976563 227.496094 105.800781 225.0625 C 103.890625 221.117188 103.882813 220.902344 105.453125 215.308594 C 106.28125 212.359375 107.289063 210.5 108.488281 209.710938 C 110.207031 208.585938 110.402344 208.648438 112.863281 211.03125 C 116.046875 214.117188 117.152344 213.347656 114.859375 209.640625 C 111.824219 204.730469 110.210938 200.722656 109.785156 197.011719 C 109.0625 190.753906 108.828125 190.199219 106.695313 189.664063 C 105.582031 189.382813 103.578125 188 102.246094 186.585938 L 99.824219 184.019531 L 95.859375 186.074219 C 92.605469 187.761719 90.9375 188.125 86.613281 188.101563 C 79.441406 188.0625 74.492188 185.417969 70.039063 179.246094 L 68.496094 177.109375 L 64.886719 179.398438 C 55.132813 185.582031 43.207031 183.402344 36.878906 174.273438 C 35.425781 172.179688 34.449219 171.445313 33.492188 171.730469 C 32.753906 171.949219 30.132813 172.117188 27.667969 172.105469 C 22.433594 172.082031 16.609375 169.371094 14.046875 165.773438 C 12.851563 164.097656 12.355469 163.832031 11.90625 164.632813 C 11.234375 165.832031 9.234375 178.84375 8.507813 186.726563 C 7.3125 199.660156 15.484375 210.109375 24.640625 207.367188 C 27.933594 206.378906 31.933594 202.304688 32.675781 199.179688 C 33.351563 196.34375 35.121094 194.507813 37.179688 194.507813 C 38.574219 194.507813 39.394531 195.488281 41.375 199.539063 C 42.972656 202.8125 44.730469 205.175781 46.386719 206.289063 C 52.761719 210.582031 62.03125 206.105469 63.351563 198.09375 C 64.40625 191.699219 66.964844 191.328125 71.910156 196.847656 C 75.011719 200.316406 75.71875 200.726563 79.09375 201.039063 C 83.941406 201.492188 87.339844 199.324219 89.960938 194.109375 C 91.949219 190.160156 94.230469 189.007813 96.433594 190.839844 C 97.324219 191.574219 97.472656 192.707031 97.097656 195.957031 C 96.308594 202.882813 99.027344 237.0625 100.863281 243.265625 C 101.054688 243.90625 102.871094 244.796875 105.039063 245.308594 C 114 247.4375 122.253906 252.949219 126.789063 259.824219 C 128.261719 262.054688 131.371094 266.765625 133.699219 270.289063 C 138.898438 278.152344 143.214844 281.109375 147.25 279.5625 Z M 344.09375 237.257813 C 345.324219 231.273438 346.699219 223.175781 347.152344 219.257813 C 348.859375 204.457031 348.839844 205.546875 347.394531 206.101563 C 341.492188 208.378906 338.886719 208.382813 331.769531 206.136719 C 330.246094 205.660156 330.183594 205.941406 329.707031 215.636719 C 329.28125 224.34375 327.871094 236.382813 326.554688 242.585938 C 326.160156 244.441406 326.324219 244.558594 329.867188 244.980469 C 331.914063 245.222656 335.222656 246.214844 337.214844 247.183594 C 339.207031 248.152344 341.066406 248.761719 341.347656 248.539063 C 341.628906 248.3125 342.867188 243.238281 344.09375 237.257813 Z M 80.949219 246.527344 C 82.304688 245.847656 85.730469 244.929688 88.558594 244.484375 C 92.605469 243.847656 93.632813 243.429688 93.367188 242.527344 C 92.609375 239.992188 90.722656 223.230469 90.246094 214.800781 L 89.742188 205.832031 L 87.5625 206.960938 C 84.140625 208.726563 78.789063 209.058594 74.992188 207.738281 C 73.152344 207.097656 71.542969 206.675781 71.417969 206.800781 C 70.53125 207.683594 77.269531 247.757813 78.304688 247.757813 C 78.402344 247.757813 79.589844 247.203125 80.949219 246.527344 Z M 294.675781 232.570313 C 295.050781 231.640625 295.554688 229.964844 295.792969 228.847656 C 296.128906 227.273438 296.898438 226.609375 299.191406 225.921875 C 300.824219 225.433594 302.839844 224.308594 303.675781 223.417969 L 305.195313 221.804688 L 302.558594 221.726563 C 301.109375 221.6875 299.089844 221.105469 298.066406 220.4375 C 296.273438 219.261719 296.210938 219.28125 296.210938 220.980469 C 296.210938 223.144531 294.089844 229.605469 292.722656 231.609375 C 291.410156 233.53125 291.445313 234.257813 292.851563 234.257813 C 293.480469 234.257813 294.300781 233.496094 294.675781 232.570313 Z M 126.96875 231.632813 C 126.90625 230.804688 126.164063 228.273438 125.328125 226.007813 C 124.488281 223.738281 123.597656 220.625 123.351563 219.089844 L 122.902344 216.300781 L 120.871094 218.574219 C 119.414063 220.199219 117.921875 220.972656 115.625 221.28125 C 112.570313 221.6875 112.476563 221.777344 113.652344 223.078125 C 114.335938 223.832031 116.117188 224.835938 117.613281 225.3125 C 120.878906 226.34375 122.210938 227.855469 122.210938 230.523438 C 122.210938 233.050781 122.820313 233.628906 125.183594 233.351563 C 126.5625 233.191406 127.054688 232.71875 126.96875 231.632813 Z M 284.957031 229.875 C 290.585938 224.25 290.191406 207.296875 284.316406 202.355469 C 283.101563 201.332031 281.480469 198.980469 280.722656 197.128906 C 279.554688 194.292969 279.011719 193.761719 277.273438 193.757813 C 275.277344 193.757813 275.210938 193.882813 275.210938 197.835938 C 275.210938 201.550781 275.582031 202.457031 279.324219 207.921875 C 284.058594 214.835938 285.417969 219.28125 284.1875 223.847656 C 283.390625 226.808594 281.554688 229.265625 279.671875 229.894531 C 278.257813 230.367188 279.53125 232.007813 281.3125 232.007813 C 282.144531 232.007813 283.785156 231.046875 284.957031 229.875 Z M 140.390625 229.328125 C 140.628906 229.089844 139.585938 227.765625 138.078125 226.382813 C 135.425781 223.949219 135.335938 223.703125 135.339844 218.632813 C 135.34375 213.507813 135.433594 213.265625 139.585938 207.140625 C 145.878906 197.863281 146.386719 193.007813 141.0625 193.007813 C 138.542969 193.007813 138.167969 193.269531 137.3125 195.632813 C 136.792969 197.074219 135.589844 199.183594 134.640625 200.320313 C 132.625 202.730469 130.460938 210.710938 130.460938 215.734375 C 130.460938 219.570313 132.640625 226.105469 134.664063 228.339844 C 135.863281 229.667969 139.4375 230.28125 140.390625 229.328125 Z M 123.996094 207.820313 C 124.410156 206.085938 124.246094 205.757813 122.976563 205.757813 C 121.207031 205.757813 121.1875 205.835938 122.332031 208.347656 C 123.339844 210.554688 123.339844 210.554688 123.996094 207.820313 Z M 296.210938 206.507813 C 296.210938 206.09375 295.875 205.757813 295.460938 205.757813 C 295.050781 205.757813 294.710938 206.09375 294.710938 206.507813 C 294.710938 206.917969 295.050781 207.257813 295.460938 207.257813 C 295.875 207.257813 296.210938 206.917969 296.210938 206.507813 Z M 293.941406 197.320313 C 290.519531 195 289.769531 192.308594 290.828125 186.136719 C 291.652344 181.316406 291.605469 180.941406 289.535156 176.375 C 288.351563 173.765625 287.1875 171.042969 286.949219 170.328125 C 286.59375 169.257813 286.164063 169.15625 284.566406 169.765625 C 283.492188 170.171875 281.847656 170.507813 280.914063 170.507813 C 279.320313 170.507813 279.234375 170.757813 279.535156 174.445313 C 279.800781 177.660156 279.5625 178.757813 278.230469 180.445313 C 277.335938 181.578125 275.953125 182.507813 275.15625 182.507813 C 273.261719 182.507813 273.21875 185.25 275.109375 185.847656 C 275.875 186.09375 278.25 186.230469 280.386719 186.152344 C 282.523438 186.078125 284.632813 186.378906 285.078125 186.820313 C 285.519531 187.261719 286.179688 189.222656 286.542969 191.171875 C 286.910156 193.125 287.628906 195.230469 288.144531 195.855469 C 289.28125 197.222656 293.050781 198.9375 295.011719 198.976563 C 296.074219 199 295.804688 198.582031 293.941406 197.320313 Z M 128.207031 196.195313 C 129.8125 194.734375 130.667969 193.066406 131.140625 190.472656 C 131.503906 188.464844 132.261719 186.507813 132.820313 186.125 C 133.378906 185.746094 135.484375 185.609375 137.492188 185.820313 C 141.363281 186.230469 143.960938 185.371094 143.960938 183.6875 C 143.960938 183.125 143.121094 182.457031 142.097656 182.199219 C 138.699219 181.347656 136.65625 175.84375 138.167969 171.601563 C 138.632813 170.296875 138.375 170.050781 136.378906 169.898438 C 135.09375 169.800781 133.402344 169.375 132.621094 168.957031 C 131.425781 168.320313 131.070313 168.535156 130.40625 170.289063 C 129.972656 171.441406 128.75 174.320313 127.691406 176.6875 C 125.875 180.742188 125.816406 181.253906 126.660156 185.550781 C 127.152344 188.058594 127.351563 191.058594 127.097656 192.214844 C 126.632813 194.332031 124.296875 196.964844 122.210938 197.726563 C 121.59375 197.953125 122.179688 198.164063 123.511719 198.195313 C 125.164063 198.238281 126.660156 197.597656 128.207031 196.195313 Z M 119.960938 189.257813 C 119.960938 187.515625 119.691406 187.449219 117.492188 188.625 C 115.90625 189.472656 115.902344 189.503906 117.355469 190.070313 C 119.648438 190.96875 119.960938 190.867188 119.960938 189.257813 Z M 300.21875 190.105469 C 301.460938 189.617188 301.402344 189.472656 299.65625 188.675781 C 297.921875 187.882813 297.710938 187.945313 297.710938 189.273438 C 297.710938 190.855469 298.039063 190.964844 300.21875 190.105469 Z M 113.511719 182.210938 C 114.886719 181.636719 116.890625 180.019531 117.957031 178.617188 C 120.050781 175.875 123.316406 169.113281 124.097656 165.914063 C 124.527344 164.152344 124.332031 163.90625 122.269531 163.605469 L 119.960938 163.265625 L 119.960938 168.035156 C 119.960938 170.660156 119.476563 173.96875 118.882813 175.390625 C 117.535156 178.617188 113.734375 181 109.933594 181.003906 C 107.4375 181.003906 107.160156 181.164063 107.960938 182.132813 C 109.121094 183.527344 110.316406 183.546875 113.511719 182.210938 Z M 309.507813 182.003906 C 309.6875 181.457031 309.246094 181.269531 308.328125 181.507813 C 307.519531 181.71875 305.367188 181.230469 303.542969 180.425781 C 299.265625 178.535156 297.609375 175.238281 297.570313 168.546875 C 297.542969 163.730469 297.519531 163.675781 295.566406 163.902344 C 293.875 164.097656 293.609375 164.460938 293.742188 166.382813 C 294.003906 170.152344 299.265625 179.621094 302.1875 181.582031 C 304.898438 183.398438 308.972656 183.632813 309.507813 182.003906 Z M 93.460938 179.03125 C 95.136719 177.941406 97.050781 176.136719 97.710938 175.015625 C 99.292969 172.339844 104.984375 170.066406 107.171875 171.234375 C 108.019531 171.6875 108.710938 172.382813 108.710938 172.78125 C 108.710938 173.8125 111.515625 173.683594 112.167969 172.621094 C 112.792969 171.617188 112.675781 158.007813 111.992188 151.636719 C 111.613281 148.105469 111.816406 146.902344 113.199219 144.4375 L 114.859375 141.484375 L 111.800781 137.441406 C 106.90625 130.972656 104.300781 124.878906 102.625 115.972656 C 99.890625 101.421875 93.097656 91.203125 82.824219 86.191406 C 77.125 83.414063 68.996094 82.730469 62.898438 84.519531 C 52.734375 87.5 40.8125 97.621094 32.296875 110.507813 C 27.625 117.570313 27.589844 117.667969 28.050781 121.734375 C 28.6875 127.359375 31.382813 131.71875 35.4375 133.683594 C 39.316406 135.5625 41.515625 135.644531 46.09375 134.089844 C 50.273438 132.671875 52.316406 133.207031 52.894531 135.867188 C 53.75 139.796875 54.933594 142.058594 57.082031 143.867188 C 61.703125 147.753906 68.398438 146.972656 72.992188 142.011719 C 77.070313 137.601563 80.941406 138.125 80.976563 143.09375 C 81 146.371094 83.363281 151.117188 86.128906 153.445313 C 90.917969 157.476563 96.984375 156.792969 101.957031 151.671875 C 105.246094 148.285156 107.421875 147.984375 109.183594 150.671875 C 110.394531 152.523438 110.363281 152.695313 108.25 155.703125 C 103.515625 162.4375 92.578125 165.132813 84.949219 161.441406 C 81.4375 159.742188 76.664063 154.699219 75.976563 151.964844 C 75.742188 151.023438 75.460938 150.257813 75.351563 150.257813 C 75.242188 150.257813 73.550781 150.964844 71.59375 151.832031 C 67.210938 153.769531 60.816406 153.894531 56.410156 152.125 C 52.945313 150.738281 48.96875 146.71875 47.835938 143.464844 C 47.164063 141.539063 46.949219 141.449219 44.53125 142.117188 C 41.222656 143.03125 34.429688 141.824219 31.015625 139.714844 C 28.097656 137.910156 23.210938 132.453125 23.210938 130.996094 C 23.210938 128.058594 21.527344 130.964844 18.84375 138.53125 C 14.460938 150.878906 14.429688 151.253906 17.355469 157.007813 C 21.265625 164.695313 26.628906 166.90625 33.636719 163.726563 C 36.652344 162.359375 37.085938 162.328125 38.699219 163.386719 C 39.667969 164.019531 40.460938 165.128906 40.460938 165.847656 C 40.460938 168.28125 44.109375 172.574219 47.621094 174.273438 C 54.453125 177.582031 62.328125 174.878906 65.386719 168.175781 C 67.777344 162.9375 72.164063 162.003906 73.097656 166.535156 C 74.199219 171.875 75.140625 174.351563 76.835938 176.367188 C 81.003906 181.320313 88.160156 182.464844 93.460938 179.03125 Z M 338.992188 178.742188 C 342.425781 176.988281 345.386719 172.859375 346.125 168.796875 C 347.070313 163.566406 351.679688 163.035156 354.367188 167.847656 C 357.660156 173.746094 364.5625 176.316406 370.753906 173.953125 C 374.675781 172.457031 376.523438 170.554688 378.839844 165.640625 C 379.835938 163.523438 381.195313 161.785156 381.964844 161.636719 C 382.71875 161.492188 385.019531 162.097656 387.082031 162.984375 C 391.304688 164.804688 393.792969 164.585938 398.472656 161.996094 C 401.734375 160.1875 404.960938 155.296875 404.960938 152.152344 C 404.960938 151 403.382813 145.316406 401.457031 139.519531 C 398.03125 129.226563 397.921875 129.027344 396.769531 130.800781 C 391.40625 139.046875 382.621094 143.074219 374.492188 141.019531 C 372.429688 140.5 372.089844 140.636719 371.703125 142.152344 C 370.988281 144.960938 366.671875 149.59375 363.390625 151.085938 C 359.21875 152.980469 352.320313 152.917969 347.976563 150.949219 C 346.125 150.109375 344.511719 149.734375 344.382813 150.113281 C 343.3125 153.332031 339.265625 157.980469 335.816406 159.960938 C 327.992188 164.445313 316.964844 162.292969 311.894531 155.292969 C 309.402344 151.855469 309.234375 150.839844 310.890625 149.183594 C 312.839844 147.234375 315.34375 147.757813 317.484375 150.5625 C 318.632813 152.066406 320.84375 153.660156 322.847656 154.425781 C 325.789063 155.546875 326.699219 155.597656 329.414063 154.785156 C 333.964844 153.421875 337.148438 149.707031 338.28125 144.449219 C 338.792969 142.074219 339.53125 139.710938 339.925781 139.195313 C 341.257813 137.457031 343.660156 138.234375 347.195313 141.542969 C 351.5 145.570313 355.171875 146.460938 359.820313 144.601563 C 363.210938 143.242188 365.457031 140.28125 366.34375 136.007813 C 367.375 131.011719 368.597656 130.589844 374.734375 133.132813 C 378.175781 134.5625 379.023438 134.648438 381.652344 133.863281 C 390.753906 131.136719 394.453125 121.394531 389.566406 113.003906 C 381.257813 98.746094 368.273438 87.066406 357.070313 83.78125 C 351.125 82.039063 342.746094 82.632813 337.238281 85.1875 C 327.195313 89.847656 319.914063 100.679688 317.207031 114.988281 C 315.445313 124.285156 312.25 131.402344 306.902344 137.941406 L 303.171875 142.5 L 304.652344 145.382813 C 305.808594 147.640625 306.023438 149.082031 305.652344 152.070313 C 304.933594 157.820313 304.511719 169.121094 304.933594 171.382813 C 305.429688 174.054688 307.53125 174.816406 308.867188 172.804688 C 309.949219 171.171875 313.746094 170.644531 314.589844 172.007813 C 314.894531 172.507813 315.550781 172.492188 316.535156 171.964844 C 318.589844 170.867188 320.324219 171.59375 322.085938 174.296875 C 325.664063 179.785156 333.109375 181.742188 338.992188 178.742188 Z M 159.296875 164.792969 C 159.960938 164.539063 160.871094 163.644531 161.320313 162.804688 C 162 161.53125 161.9375 161.355469 160.945313 161.734375 C 159.542969 162.273438 155.210938 160.914063 155.210938 159.933594 C 155.210938 159.5625 154.957031 159.257813 154.648438 159.257813 C 153.683594 159.261719 153.699219 164.035156 154.667969 164.648438 C 155.785156 165.359375 157.667969 165.417969 159.296875 164.792969 Z M 266.300781 162.34375 C 268.964844 159.679688 269.210938 159.089844 269.199219 155.40625 C 269.1875 150.21875 268.492188 149.007813 266.3125 150.367188 C 265.203125 151.0625 264.710938 152.128906 264.710938 153.847656 C 264.710938 158.761719 261.722656 162.257813 257.519531 162.257813 C 255.527344 162.257813 255.511719 162.292969 256.835938 163.757813 C 259.148438 166.308594 262.894531 165.75 266.300781 162.34375 Z M 139.8125 161.226563 C 140.828125 160.207031 142.273438 157.078125 143.183594 153.914063 C 145.402344 146.203125 146.921875 142.925781 149.160156 141.023438 C 150.96875 139.484375 151.085938 138.957031 151.085938 132.578125 C 151.085938 126.441406 151.285156 125.472656 153.109375 122.714844 C 154.492188 120.628906 156.476563 118.996094 159.347656 117.59375 C 163.269531 115.675781 163.644531 115.617188 164.800781 116.773438 C 165.558594 117.53125 166.054688 119.269531 166.070313 121.199219 C 166.117188 126.699219 168.171875 128.085938 169.394531 123.445313 C 169.804688 121.898438 170.527344 117.59375 171.007813 113.882813 C 171.484375 110.167969 172.347656 105.992188 172.917969 104.601563 C 173.492188 103.210938 173.960938 101.777344 173.960938 101.414063 C 173.960938 101.050781 171.347656 100.765625 168.148438 100.773438 C 161.304688 100.792969 157.097656 102.382813 152.710938 106.609375 C 147.6875 111.453125 146.792969 114.070313 146.144531 125.882813 C 145.429688 138.910156 144.039063 143.402344 140.089844 145.445313 C 137.292969 146.890625 135.511719 146.777344 133.269531 145.015625 C 130.960938 143.199219 130.117188 143.953125 129.363281 148.519531 C 128.761719 152.179688 130.773438 157.554688 134.015625 160.945313 C 136.4375 163.46875 137.515625 163.523438 139.8125 161.226563 Z M 284.070313 161.992188 C 288.132813 159.738281 289.632813 154.632813 287.953125 148.757813 C 286.703125 144.367188 286.148438 143.863281 284.125 145.28125 C 281.285156 147.273438 278.378906 146.824219 275.511719 143.957031 C 274.109375 142.554688 272.960938 141.5 272.960938 141.609375 C 272.960938 141.722656 273.695313 143.460938 274.597656 145.472656 C 275.734375 148.023438 276.261719 150.792969 276.339844 154.613281 C 276.5 162.324219 279.0625 164.769531 284.070313 161.992188 Z M 122.441406 154.808594 C 121.988281 153.066406 119.960938 152.09375 119.960938 153.617188 C 119.960938 154.429688 121.636719 156.027344 122.703125 156.234375 C 122.769531 156.246094 122.652344 155.605469 122.441406 154.808594 Z M 297.710938 153.960938 C 297.710938 153.574219 297.375 153.257813 296.960938 153.257813 C 296.550781 153.257813 296.210938 153.78125 296.210938 154.425781 C 296.210938 155.070313 296.550781 155.386719 296.960938 155.132813 C 297.375 154.875 297.710938 154.351563 297.710938 153.960938 Z M 163.023438 151.242188 C 161.128906 149.855469 160.6875 149.996094 160.28125 152.113281 C 159.804688 154.613281 160.285156 154.90625 162.503906 153.453125 C 164.265625 152.300781 164.292969 152.171875 163.023438 151.242188 Z M 261.820313 144.519531 C 265.6875 142.269531 267.890625 136.058594 266.617188 130.992188 L 266.089844 128.882813 L 264.519531 131.039063 C 262.816406 133.375 259.09375 135.257813 256.167969 135.257813 C 253.382813 135.257813 249.96875 131.917969 248.664063 127.921875 C 248.027344 125.972656 247.113281 121.175781 246.628906 117.257813 C 245.40625 107.308594 241.671875 100.21875 235.324219 95.796875 C 230.105469 92.160156 223.371094 92.117188 220.859375 95.703125 C 219.476563 97.675781 219.378906 102.671875 220.671875 105.257813 C 221.191406 106.289063 223.527344 108.152344 225.871094 109.402344 C 234.105469 113.785156 236.117188 116.957031 238.453125 129.207031 C 240.097656 137.84375 241.136719 140.15625 244.8125 143.382813 C 247.300781 145.566406 248.375 146.039063 252.335938 146.695313 C 254.757813 147.097656 259.113281 146.097656 261.820313 144.519531 Z M 229.203125 145.058594 C 232.605469 143.511719 233.585938 141.671875 232.832031 138.238281 C 232.449219 136.484375 231.9375 136.007813 230.457031 136.007813 C 229.421875 136.007813 227.714844 136.679688 226.667969 137.507813 C 225.617188 138.332031 224.023438 139.007813 223.125 139.007813 C 221.4375 139.007813 218.027344 135.871094 217.21875 133.570313 C 216.421875 131.300781 215.210938 132.140625 215.210938 134.957031 C 215.210938 140.90625 219.59375 145.863281 225.335938 146.402344 C 225.75 146.441406 227.488281 145.835938 229.203125 145.058594 Z M 191.234375 144.296875 C 190.214844 143.515625 189.070313 143.0625 188.695313 143.296875 C 188.316406 143.53125 188.8125 144.167969 189.796875 144.710938 C 192.460938 146.1875 193.355469 145.929688 191.234375 144.296875 Z M 177.742188 143.492188 C 182.882813 140.867188 184.488281 137.386719 187.445313 122.414063 C 188.648438 116.324219 191.832031 111.722656 196.585938 109.207031 C 202.167969 106.253906 204.4375 103.84375 205.050781 100.222656 C 205.789063 95.847656 204.175781 93.03125 200.261719 91.859375 C 195.597656 90.460938 191.75 91.910156 186.671875 96.976563 C 181.085938 102.546875 179.5 106.144531 178.058594 116.511719 C 177.398438 121.25 176.234375 126.542969 175.476563 128.265625 C 174.058594 131.484375 170.945313 133.757813 167.960938 133.757813 C 165.734375 133.757813 162.355469 131.867188 160.609375 129.644531 C 159.789063 128.605469 158.878906 127.757813 158.585938 127.757813 C 158.289063 127.757813 158.175781 130.265625 158.328125 133.332031 C 158.640625 139.476563 160.097656 141.953125 164.585938 143.949219 C 168.015625 145.472656 174.285156 145.253906 177.742188 143.492188 Z M 302.210938 131.855469 C 306.347656 126.539063 308.832031 120.667969 310.152344 113.128906 C 311.367188 106.160156 313.226563 100.75 316.117188 95.785156 L 317.917969 92.691406 L 303.875 92.792969 C 290.949219 92.882813 289.480469 93.035156 285.335938 94.6875 C 282.8125 95.695313 279.726563 97.652344 278.308594 99.144531 C 275.851563 101.730469 275.792969 101.941406 276.175781 106.707031 C 276.496094 110.710938 276.878906 111.816406 278.265625 112.746094 C 279.199219 113.371094 281.535156 115.398438 283.464844 117.257813 C 287.542969 121.1875 291.746094 130.332031 292.257813 136.382813 C 292.785156 142.601563 293 142.742188 296.296875 139.007813 C 297.9375 137.148438 300.597656 133.933594 302.210938 131.855469 Z M 125.371094 135.832031 C 125.851563 130.359375 129.960938 120.984375 133.757813 116.699219 C 136.878906 113.179688 138.710938 108.191406 138.710938 103.226563 C 138.710938 98.191406 132.957031 93.800781 123.675781 91.753906 C 119.53125 90.839844 102.550781 90.917969 101.613281 91.855469 C 101.355469 92.113281 102.121094 93.980469 103.3125 96.003906 C 106.429688 101.285156 108.472656 107.167969 109.761719 114.558594 C 110.378906 118.109375 111.898438 123.121094 113.136719 125.695313 C 115.515625 130.648438 123.421875 140.773438 124.429688 140.152344 C 124.757813 139.949219 125.179688 138.007813 125.371094 135.832031 Z M 205.160156 136.457031 C 207.101563 134.515625 207.710938 133.269531 207.710938 131.25 C 207.710938 128.097656 206.613281 127.105469 205.472656 129.234375 C 204.414063 131.21875 201.433594 131.199219 199.570313 129.199219 C 198.601563 128.160156 197.410156 127.722656 195.980469 127.886719 C 194.070313 128.105469 193.773438 128.515625 193.1875 131.738281 C 192.601563 134.964844 192.714844 135.539063 194.253906 137.175781 C 195.574219 138.582031 196.742188 139.007813 199.292969 139.007813 C 202.066406 139.007813 203.03125 138.589844 205.160156 136.457031 Z M 282.035156 128.175781 C 280.859375 125.582031 279.578125 123.261719 279.183594 123.019531 C 278.476563 122.582031 278.578125 127.625 279.414063 134.34375 L 279.8125 137.558594 L 281.992188 135.222656 L 284.171875 132.890625 Z M 138.339844 132.820313 C 138.609375 130.652344 138.707031 127.363281 138.558594 125.507813 L 138.289063 122.132813 L 135.5 127.984375 C 133.964844 131.203125 132.710938 134.15625 132.710938 134.546875 C 132.710938 134.9375 133.554688 135.257813 134.585938 135.257813 C 135.617188 135.257813 136.460938 135.59375 136.460938 136.007813 C 136.460938 136.417969 136.773438 136.757813 137.15625 136.757813 C 137.539063 136.757813 138.074219 134.984375 138.339844 132.820313 Z M 258.554688 123.199219 C 258.820313 118.234375 260.007813 117.019531 263.460938 118.171875 C 264.765625 118.605469 266.910156 119.761719 268.222656 120.734375 C 269.539063 121.710938 270.839844 122.507813 271.121094 122.507813 C 272.023438 122.507813 270.65625 115.480469 269.128906 112.265625 C 268.316406 110.554688 266.027344 107.636719 264.042969 105.78125 C 261.1875 103.109375 259.554688 102.226563 256.15625 101.519531 C 249.992188 100.242188 249.417969 100.648438 251.324219 104.960938 C 252.183594 106.898438 253.332031 111.910156 253.882813 116.089844 C 254.433594 120.273438 255.238281 124.636719 255.675781 125.789063 C 256.910156 129.03125 258.308594 127.773438 258.554688 123.199219 Z M 223.109375 124.417969 C 225.453125 123.441406 225.710938 123.039063 225.710938 120.386719 C 225.710938 117.789063 225.429688 117.320313 223.363281 116.464844 C 221.15625 115.550781 220.921875 115.613281 219.550781 117.5 C 217.835938 119.851563 215.242188 120.109375 213.433594 118.113281 C 212.742188 117.347656 211.804688 114.617188 211.351563 112.046875 L 210.527344 107.375 L 209.078125 109.503906 C 207.945313 111.160156 207.714844 112.445313 208.023438 115.308594 C 208.582031 120.511719 211.710938 123.660156 217.460938 124.808594 C 218.90625 125.097656 220.183594 125.371094 220.296875 125.421875 C 220.414063 125.46875 221.679688 125.015625 223.109375 124.417969 Z M 200.960938 118.382813 C 200.960938 115.222656 200.027344 115.070313 197.484375 117.8125 L 195.578125 119.871094 L 197.332031 120.363281 C 200.609375 121.285156 200.960938 121.09375 200.960938 118.382813 Z M 148.15625 100.679688 C 150.292969 98.316406 155.464844 95.5 160.292969 94.066406 C 165.691406 92.464844 167.960938 89.550781 167.960938 84.222656 C 167.960938 81.085938 167.648438 80.386719 165.3125 78.335938 C 162.132813 75.542969 158.808594 75.289063 154.460938 77.507813 C 150.664063 79.441406 149.503906 79.398438 148.09375 77.25 C 147.058594 75.667969 147.0625 75.164063 148.121094 72.1875 C 149.597656 68.023438 149.035156 64.835938 146.367188 62.28125 C 142.9375 58.996094 140.089844 58.378906 135.671875 59.96875 C 132.863281 60.980469 131.5625 61.121094 130.613281 60.527344 C 128.847656 59.425781 128.621094 56.226563 130.136719 53.910156 C 131.050781 52.511719 131.296875 51.019531 131.015625 48.523438 C 130.175781 41.09375 121.976563 37.03125 115.03125 40.609375 C 105.050781 45.746094 92.246094 57.347656 88.820313 64.351563 C 86.082031 69.941406 86.394531 75.457031 89.679688 79.511719 C 93.085938 83.71875 95.960938 84.378906 108.359375 83.792969 C 120.414063 83.222656 126.863281 84.234375 134.664063 87.921875 C 140.125 90.507813 144.546875 95.324219 145.199219 99.410156 C 145.722656 102.675781 146.171875 102.871094 148.15625 100.679688 Z M 272.339844 94.761719 C 274.855469 91.210938 281.507813 87.792969 289.273438 86.066406 C 293.90625 85.035156 297.058594 84.878906 305.554688 85.265625 C 317.65625 85.8125 320.417969 85.292969 323.761719 81.824219 C 328.359375 77.058594 328.835938 72.496094 325.445313 65.710938 C 322.640625 60.097656 313.96875 51.601563 304.859375 45.539063 C 299.492188 41.96875 297.761719 41.203125 294.5 40.960938 C 291.515625 40.742188 290.015625 41.03125 288.1875 42.179688 C 283.542969 45.097656 281.964844 51.164063 284.582031 56.027344 C 285.777344 58.246094 285.855469 58.96875 285.082031 60.664063 C 284.09375 62.835938 283.402344 62.859375 277.085938 60.964844 C 273.195313 59.792969 269.15625 61.359375 266.9375 64.898438 C 265.359375 67.414063 265.347656 67.886719 266.675781 76.171875 C 267.066406 78.625 266.898438 79.066406 265.273438 79.808594 C 263.765625 80.496094 262.871094 80.363281 260.351563 79.078125 C 255.066406 76.382813 250.539063 77.394531 248.300781 81.769531 C 247.140625 84.035156 247.25 88.300781 248.546875 91.40625 C 249.597656 93.914063 249.777344 94.007813 253.664063 94.007813 C 258.492188 94.007813 263.515625 95.601563 266.585938 98.109375 C 268.566406 99.722656 268.925781 99.804688 269.585938 98.769531 C 270 98.121094 271.238281 96.316406 272.339844 94.761719 Z M 181.980469 90.953125 C 189.261719 84.242188 198.136719 82.417969 205.460938 86.128906 C 207.492188 87.160156 209.554688 88.765625 210.035156 89.691406 C 210.519531 90.621094 211.011719 91.496094 211.128906 91.636719 C 211.246094 91.773438 212.296875 91.191406 213.464844 90.335938 C 216.441406 88.15625 223.855469 85.757813 227.609375 85.757813 C 231.242188 85.757813 236.636719 87.480469 238.617188 89.269531 C 239.363281 89.945313 240.167969 90.300781 240.410156 90.058594 C 241.613281 88.855469 223.464844 78.4375 217.792969 77.078125 C 216.582031 76.789063 215.25 76.304688 214.835938 76.007813 C 214.425781 75.710938 211.914063 74.746094 209.257813 73.863281 L 204.429688 72.257813 L 201.007813 73.945313 C 199.125 74.871094 197.082031 75.667969 196.460938 75.71875 C 194.257813 75.890625 185.839844 79.84375 180.878906 83.039063 C 176.574219 85.8125 175.660156 86.792969 174.628906 89.742188 C 173.339844 93.429688 173.558594 93.835938 176.878906 93.945313 C 177.984375 93.984375 179.933594 92.839844 181.980469 90.953125 Z M 241.738281 78.753906 C 242.332031 76.386719 246.804688 72.125 249.855469 71.019531 C 251.21875 70.523438 253.601563 70.09375 255.148438 70.0625 C 257.007813 70.027344 257.960938 69.65625 257.960938 68.976563 C 257.960938 68.40625 258.15625 66.972656 258.394531 65.789063 L 258.828125 63.632813 L 254.421875 63.878906 C 250.753906 64.082031 249.894531 64.394531 249.296875 65.753906 C 248.660156 67.191406 248.066406 67.359375 244.238281 67.183594 C 239.015625 66.945313 237.175781 67.8125 235.777344 71.15625 C 234.480469 74.261719 235.234375 76.65625 238.214844 78.878906 C 240.917969 80.890625 241.207031 80.878906 241.738281 78.753906 Z M 178.027344 75.582031 C 179.925781 73.6875 179.515625 69.765625 177.179688 67.429688 C 175.296875 65.542969 174.835938 65.429688 170.917969 65.886719 C 167.527344 66.28125 166.445313 66.132813 165.449219 65.136719 C 163.847656 63.535156 163.894531 62.625 165.710938 59.882813 C 167.496094 57.183594 167.582031 55.644531 166.09375 52.773438 C 164.75 50.171875 162.890625 49.441406 157.554688 49.40625 C 152.542969 49.375 151.335938 48.0625 152.902344 44.335938 C 153.472656 42.988281 154.085938 40.285156 154.269531 38.335938 C 154.6875 33.902344 152.648438 30.238281 148.71875 28.375 C 145.132813 26.675781 141.925781 27.167969 134.609375 30.550781 L 128.710938 33.273438 L 131.863281 35.96875 C 135.683594 39.242188 137.898438 43.367188 138.484375 48.308594 C 138.910156 51.929688 138.972656 52.007813 141.472656 52.007813 C 148.003906 52.007813 154.894531 58.683594 156.347656 66.417969 C 156.707031 68.347656 157.171875 69.03125 157.917969 68.746094 C 161.761719 67.269531 170.597656 71.375 172.9375 75.722656 C 174.320313 78.289063 175.347656 78.261719 178.027344 75.582031 Z M 228.5 69.824219 C 228.96875 68.074219 229.289063 66.585938 229.21875 66.515625 C 228.738281 66.046875 220.144531 68.328125 219.929688 68.984375 C 219.714844 69.621094 225.324219 72.660156 227.246094 72.945313 C 227.46875 72.980469 228.035156 71.574219 228.5 69.824219 Z M 194.960938 65.75 C 194.960938 62.351563 192.097656 60.25 187.71875 60.441406 C 182.636719 60.660156 181.421875 57.542969 184.835938 53.066406 C 186.980469 50.253906 187.175781 48.328125 185.613281 45.308594 C 184.328125 42.820313 183.136719 42.257813 179.152344 42.257813 C 177.210938 42.257813 175.703125 41.746094 174.710938 40.757813 C 172.753906 38.800781 172.816406 38.039063 175.1875 34.929688 C 179.046875 29.871094 178.097656 22.65625 173.238281 20.144531 C 170.15625 18.550781 167.457031 18.714844 160.472656 20.921875 L 154.40625 22.839844 L 157.335938 26.164063 C 160.675781 29.960938 162.34375 34.894531 161.757813 39.257813 C 161.402344 41.898438 161.535156 42.257813 162.867188 42.257813 C 167.800781 42.257813 173.679688 48.832031 174.230469 54.96875 C 174.5 57.945313 174.75 58.289063 177.328125 59.171875 C 181.175781 60.496094 184.285156 63.683594 185.75 67.804688 L 186.976563 71.265625 L 190.96875 69.699219 C 194.621094 68.261719 194.957031 67.929688 194.960938 65.75 Z M 232.574219 58.433594 C 236.96875 57.785156 244.226563 57.0625 248.699219 56.832031 C 258.882813 56.304688 259.988281 56.078125 260.9375 54.300781 C 261.917969 52.46875 261.308594 50.90625 259.039063 49.417969 C 255.742188 47.257813 228.738281 49.71875 209.210938 53.957031 C 204.46875 54.988281 200.199219 55.960938 199.726563 56.117188 C 199.152344 56.304688 199.464844 57.589844 200.664063 59.957031 C 201.652344 61.910156 202.460938 63.902344 202.460938 64.382813 C 202.460938 64.953125 206.246094 64.289063 213.523438 62.433594 C 219.609375 60.886719 228.183594 59.085938 232.574219 58.433594 Z M 273.523438 53.128906 C 275.375 52.753906 275.960938 52.246094 275.960938 51.007813 C 275.960938 49.5625 275.542969 49.375 272.210938 49.328125 L 268.460938 49.273438 L 268.460938 51.816406 C 268.460938 53.878906 268.710938 54.289063 269.773438 53.988281 C 270.496094 53.785156 272.183594 53.398438 273.523438 53.128906 Z M 209.960938 46.480469 C 229.738281 42.417969 240.613281 41.351563 259.335938 41.636719 C 274.457031 41.867188 275.390625 41.800781 276.398438 40.425781 C 277.863281 38.421875 277.730469 35.253906 276.097656 33.238281 C 274.914063 31.777344 273.640625 31.457031 266.535156 30.832031 C 255.921875 29.894531 230.082031 30.589844 218.585938 32.117188 C 209.839844 33.28125 197.5 35.5625 191.761719 37.074219 L 188.933594 37.820313 L 190.75 40.226563 C 192.726563 42.847656 194.429688 48.046875 193.695313 49.230469 C 193.421875 49.679688 193.953125 49.816406 195.039063 49.574219 C 196.027344 49.355469 202.742188 47.964844 209.960938 46.480469 Z M 197.773438 28.308594 C 223.695313 22.777344 251.71875 21.492188 277.359375 24.65625 C 284.726563 25.5625 286.164063 25.5625 287.957031 24.632813 C 290.25 23.449219 290.960938 22.140625 290.960938 19.113281 C 290.960938 15.523438 289.066406 13.910156 282.492188 11.917969 C 271.394531 8.550781 262.734375 7.519531 245.210938 7.472656 C 225.058594 7.421875 205.152344 9.652344 185.363281 14.183594 C 180.359375 15.328125 179.988281 15.539063 181.011719 16.671875 C 183.074219 18.949219 185.179688 24.601563 185.195313 27.898438 C 185.210938 31.09375 185.261719 31.15625 187.273438 30.636719 C 188.410156 30.347656 193.132813 29.296875 197.773438 28.308594 Z M 138.335938 21.234375 C 144.523438 18.699219 155.15625 14.957031 161.960938 12.917969 C 168.769531 10.878906 174.675781 9.050781 175.085938 8.859375 C 176.957031 7.984375 150.363281 9.257813 144.335938 10.328125 C 128.335938 13.171875 122.34375 16.40625 123.207031 21.734375 C 123.699219 24.753906 125.0625 26.75 126.269531 26.207031 C 126.71875 26.003906 132.148438 23.765625 138.335938 21.234375 Z M 138.335938 21.234375 "
         style=" stroke:none;fill-rule:nonzero;fill:rgb(100%,100%,100%);fill-opacity:0.784314;" />
    </g>
  </g>
</svg>
