<?xml version="1.0" encoding="UTF-8" standalone="no"?>
<svg
   xmlns:dc="http://purl.org/dc/elements/1.1/"
   xmlns:cc="http://creativecommons.org/ns#"
   xmlns:rdf="http://www.w3.org/1999/02/22-rdf-syntax-ns#"
   xmlns:svg="http://www.w3.org/2000/svg"
   xmlns="http://www.w3.org/2000/svg"
   xmlns:sodipodi="http://sodipodi.sourceforge.net/DTD/sodipodi-0.dtd"
   xmlns:inkscape="http://www.inkscape.org/namespaces/inkscape"
   inkscape:version="1.0 (4035a4fb49, 2020-05-01)"
   sodipodi:docname="Camera.svg"
   viewBox="0 0 106.61431 85.290001"
   height="85.290001"
   width="106.61431"
   xml:space="preserve"
   id="svg38"
   version="1.1"><metadata
     id="metadata44"><rdf:RDF><cc:Work
         rdf:about=""><dc:format>image/svg+xml</dc:format><dc:type
           rdf:resource="http://purl.org/dc/dcmitype/StillImage" /><dc:title></dc:title></cc:Work></rdf:RDF></metadata><defs
     id="defs42" /><sodipodi:namedview
     inkscape:current-layer="g46"
     inkscape:window-maximized="1"
     inkscape:window-y="-9"
     inkscape:window-x="-9"
     inkscape:cy="42.645"
     inkscape:cx="53.307156"
     inkscape:zoom="9.7315042"
     showgrid="false"
     id="namedview40"
     inkscape:window-height="1001"
     inkscape:window-width="1920"
     inkscape:pageshadow="2"
     inkscape:pageopacity="0"
     guidetolerance="10"
     gridtolerance="10"
     objecttolerance="10"
     borderopacity="1"
     bordercolor="#666666"
     pagecolor="#ffffff" /><g
     transform="matrix(1.3333333,0,0,1.3333333,0,2.1322501e-6)"
     inkscape:label="Camera"
     inkscape:groupmode="layer"
     id="g46"><g
       id="g48"><path
         id="path50"
         style="fill:#000000;fill-opacity:1;fill-rule:nonzero;stroke:none"
         d="M 6.285,63.719 C 3.41,63.098 0.926,60.613 0.234,57.672 0.035,56.84 0.004,53.934 0,38.012 0,26.02 0.055,19.031 0.156,18.488 c 0.578,-3.062 3.321,-5.804 6.383,-6.383 0.465,-0.085 3.262,-0.16 6.246,-0.16 6.086,-0.004 6.106,-0.007 7.238,-1.187 0.512,-0.535 0.739,-1.086 1.993,-4.817 C 23.512,1.48 23.629,1.254 24.91,0.41 L 25.535,0 h 28.891 l 0.625,0.41 c 1.281,0.844 1.398,1.07 2.894,5.531 1.254,3.731 1.481,4.282 1.993,4.817 1.132,1.18 1.152,1.183 7.234,1.187 2.988,0 5.785,0.075 6.25,0.16 3.062,0.579 5.805,3.321 6.383,6.383 0.101,0.543 0.156,7.532 0.156,19.524 -0.004,15.922 -0.035,18.828 -0.234,19.66 -0.7,2.976 -3.184,5.433 -6.125,6.055 -1.532,0.324 -65.821,0.32 -67.317,-0.008 z m 37.203,-8.137 c 6.532,-1.062 12.473,-5.859 14.989,-12.105 2.839,-7.039 1.546,-14.84 -3.414,-20.633 -2.055,-2.395 -5.239,-4.61 -8.137,-5.649 -2.59,-0.929 -3.672,-1.101 -6.946,-1.101 -3.273,0 -4.355,0.172 -6.945,1.101 -6.039,2.168 -11.008,7.762 -12.472,14.043 -2.145,9.2 2.175,18.418 10.593,22.61 3.809,1.894 7.856,2.465 12.332,1.734 z m -5.797,-7.863 c -1.144,-0.246 -2.867,-0.906 -3.75,-1.438 -5.699,-3.445 -7.566,-10.496 -4.328,-16.351 0.848,-1.535 3.071,-3.68 4.668,-4.5 2.133,-1.102 3.266,-1.375 5.699,-1.375 2.434,0 3.567,0.273 5.7,1.375 1.597,0.82 3.82,2.965 4.668,4.5 3.718,6.726 0.625,14.886 -6.582,17.355 -1.188,0.406 -1.629,0.477 -3.395,0.52 -1.117,0.027 -2.324,-0.012 -2.68,-0.086 z M 70.387,25.23 c 1.914,-0.867 2.082,-3.738 0.285,-4.847 -0.828,-0.512 -1.891,-0.563 -2.734,-0.129 -2.055,1.062 -2.059,3.894 -0.004,4.93 0.843,0.429 1.586,0.441 2.453,0.046 z" /></g></g></svg>
