<?xml version="1.0" encoding="UTF-8" standalone="no"?>
<svg
   xmlns:dc="http://purl.org/dc/elements/1.1/"
   xmlns:cc="http://creativecommons.org/ns#"
   xmlns:rdf="http://www.w3.org/1999/02/22-rdf-syntax-ns#"
   xmlns:svg="http://www.w3.org/2000/svg"
   xmlns="http://www.w3.org/2000/svg"
   xmlns:sodipodi="http://sodipodi.sourceforge.net/DTD/sodipodi-0.dtd"
   xmlns:inkscape="http://www.inkscape.org/namespaces/inkscape"
   inkscape:version="1.0 (4035a4fb49, 2020-05-01)"
   sodipodi:docname="delivery_drone.svg"
   id="svg107"
   version="1.2"
   viewBox="0 0 201.495514 193.102203"
   height="193.102203pt"
   width="201.495514pt">
  <metadata
     id="metadata111">
    <rdf:RDF>
      <cc:Work
         rdf:about="">
        <dc:format>image/svg+xml</dc:format>
        <dc:type
           rdf:resource="http://purl.org/dc/dcmitype/StillImage" />
        <dc:title></dc:title>
      </cc:Work>
    </rdf:RDF>
  </metadata>
  <sodipodi:namedview
     inkscape:current-layer="svg107"
     inkscape:window-maximized="0"
     inkscape:window-y="0"
     inkscape:window-x="0"
     inkscape:cy="128.7348"
     inkscape:cx="134.33034"
     inkscape:zoom="3.2236815"
     showgrid="false"
     id="namedview109"
     inkscape:window-height="480"
     inkscape:window-width="821"
     inkscape:pageshadow="2"
     inkscape:pageopacity="0"
     guidetolerance="10"
     gridtolerance="10"
     objecttolerance="10"
     borderopacity="1"
     bordercolor="#666666"
     pagecolor="#ffffff" />
  <defs
     id="defs84">
    <clipPath
       id="clip1">
      <path
         id="path78"
         d="M 0 0 L 201.496094 0 L 201.496094 193.101563 L 0 193.101563 Z M 0 0 " />
    </clipPath>
    <clipPath
       id="clip2">
      <path
         id="path81"
         d="M 3 0 L 201 0 L 201 193.101563 L 3 193.101563 Z M 3 0 " />
    </clipPath>
  </defs>
  <g
     id="surface539954">
    <g
       id="g88"
       clip-rule="nonzero"
       clip-path="url(#clip1)">
      <path
         id="path86"
         d="M 78.601563 191.277344 C 78.601563 190.273438 78.03125 188.316406 77.335938 186.929688 C 74.945313 182.164063 71.207031 179.902344 65.707031 179.902344 C 60.789063 179.902344 56.621094 182.820313 54.609375 187.675781 C 53.769531 189.707031 53.585938 189.769531 51.214844 188.871094 C 50.300781 188.523438 48.578125 188.402344 47.382813 188.605469 C 45.285156 188.960938 42 191.351563 42 192.527344 C 42 192.882813 49.015625 193.101563 60.300781 193.101563 L 78.601563 193.101563 Z M 133.523438 167.679688 C 133.695313 166.976563 133.757813 156.277344 133.667969 143.902344 L 133.5 121.402344 L 129.171875 121.226563 L 124.847656 121.050781 L 119.964844 113.171875 C 117.277344 108.835938 115.015625 105 114.9375 104.648438 C 114.859375 104.292969 114.886719 104.136719 114.996094 104.300781 C 115.109375 104.46875 120.996094 104.523438 128.078125 104.429688 C 143.890625 104.21875 144.597656 104.359375 145.546875 107.933594 C 146.867188 112.902344 147.457031 113.902344 149.074219 113.902344 C 151 113.902344 151.484375 112.148438 150.621094 108.292969 C 150.265625 106.714844 150.132813 105.171875 150.324219 104.863281 C 150.523438 104.539063 156.773438 104.300781 165.035156 104.300781 L 179.398438 104.300781 L 179.398438 101.410156 C 179.398438 92.691406 173.363281 83.925781 165.011719 80.527344 C 161.828125 79.230469 160.09375 78.925781 155.699219 78.890625 C 151.054688 78.855469 149.8125 79.074219 146.820313 80.457031 C 144.90625 81.339844 142.574219 82.609375 141.636719 83.277344 L 139.929688 84.492188 L 139.027344 83.148438 C 138.53125 82.40625 137.289063 80.875 136.261719 79.742188 C 134.570313 77.875 134.398438 77.320313 134.398438 73.671875 C 134.398438 66.917969 138.257813 60.71875 143.339844 59.308594 C 144.527344 58.980469 152.464844 58.707031 160.980469 58.707031 C 174.199219 58.703125 176.738281 58.558594 178.378906 57.710938 C 181.117188 56.296875 181.871094 55.113281 181.535156 52.765625 C 181.136719 49.960938 179.070313 47.902344 176.652344 47.902344 C 174.726563 47.902344 174.710938 47.878906 174.503906 44.617188 L 174.300781 41.335938 L 176.699219 41.769531 C 178.019531 42.007813 182.609375 42.195313 186.898438 42.1875 C 192.839844 42.175781 195.523438 41.90625 198.148438 41.054688 C 201.945313 39.824219 202.460938 39.113281 199.949219 38.566406 C 199.042969 38.367188 197.488281 37.890625 196.5 37.503906 C 193.957031 36.511719 179.226563 36.589844 175.710938 37.613281 C 173.097656 38.371094 172.84375 38.34375 171.660156 37.164063 C 170.066406 35.570313 168.933594 35.570313 167.339844 37.160156 C 166.414063 38.085938 165.664063 38.316406 164.492188 38.03125 C 159.222656 36.742188 155.578125 36.421875 149.578125 36.71875 C 145.882813 36.90625 142.375 37.320313 141.78125 37.640625 C 141.1875 37.964844 139.957031 38.386719 139.050781 38.578125 C 135.28125 39.371094 138.089844 40.898438 145.242188 41.945313 C 149.882813 42.621094 160.46875 42.40625 163.5 41.570313 C 164.613281 41.261719 164.683594 41.484375 164.496094 44.570313 L 164.289063 47.902344 L 153.265625 47.902344 C 138.410156 47.902344 136.917969 47.347656 130.140625 39.3125 C 129.078125 38.054688 126.832031 36.300781 125.152344 35.414063 L 122.101563 33.800781 L 79.5 33.800781 L 76.609375 35.277344 C 74.894531 36.152344 72.144531 38.519531 69.835938 41.09375 C 64.210938 47.378906 62.5625 47.902344 48.332031 47.902344 L 37.3125 47.902344 L 37.105469 44.570313 C 36.914063 41.484375 36.988281 41.261719 38.101563 41.566406 C 41.117188 42.386719 51.109375 42.605469 55.980469 41.953125 C 63.371094 40.96875 66.429688 39.394531 62.550781 38.578125 C 61.640625 38.386719 60.410156 37.960938 59.808594 37.632813 C 59.207031 37.308594 55.5625 36.886719 51.707031 36.699219 C 45.355469 36.394531 42.957031 36.613281 37.109375 38.035156 C 35.9375 38.316406 35.183594 38.085938 34.257813 37.160156 C 32.679688 35.582031 31.476563 35.566406 30.160156 37.101563 C 29 38.457031 27.582031 38.644531 26.523438 37.585938 C 26.035156 37.097656 22.902344 36.859375 16.652344 36.835938 C 9.214844 36.808594 6.796875 37.019531 3.75 37.964844 C 1.6875 38.605469 0 39.339844 0 39.597656 C 0 39.855469 1.550781 40.53125 3.449219 41.097656 C 7.128906 42.195313 20.261719 42.605469 24.898438 41.769531 L 27.300781 41.335938 L 27.09375 44.617188 C 26.890625 47.878906 26.875 47.902344 24.949219 47.902344 C 20.027344 47.902344 18.398438 55.109375 22.742188 57.671875 C 24.273438 58.578125 26.457031 58.703125 40.761719 58.703125 C 58.699219 58.703125 59.4375 58.824219 62.886719 62.363281 C 65.859375 65.410156 67.199219 68.949219 67.199219 73.734375 C 67.199219 76.199219 66.898438 78.128906 66.441406 78.609375 C 63.714844 81.464844 59.875 86.535156 58.105469 89.601563 C 54.390625 96.050781 51.023438 105.710938 50.828125 110.476563 C 50.707031 113.457031 50.773438 113.609375 52.308594 113.789063 C 54.238281 114.011719 54.71875 113.261719 56.085938 107.886719 C 58.527344 98.328125 64.859375 89.125 71.402344 85.640625 C 73.933594 84.289063 74.8125 84.191406 85.648438 84.007813 C 92.003906 83.898438 97.199219 83.992188 97.199219 84.214844 C 97.199219 84.660156 92.164063 92.917969 87.324219 100.402344 C 85.617188 103.042969 84.027344 105.605469 83.792969 106.101563 C 83.558594 106.597656 82.171875 108.890625 80.710938 111.203125 C 79.25 113.511719 77.304688 116.675781 76.386719 118.230469 L 74.722656 121.054688 L 70.511719 121.230469 L 66.300781 121.402344 L 66.144531 144.5 C 66.054688 157.203125 66.109375 167.921875 66.261719 168.316406 C 66.46875 168.859375 74.570313 169.023438 99.875 168.992188 L 133.214844 168.957031 Z M 82.042969 121.175781 L 76.78125 120.800781 L 81.402344 113.300781 C 83.945313 109.175781 86.242188 105.710938 86.511719 105.601563 C 86.78125 105.492188 87 105.085938 87 104.703125 C 87 104.316406 88.175781 102.21875 89.605469 100.039063 C 91.039063 97.859375 93.132813 94.535156 94.257813 92.652344 C 95.378906 90.769531 96.902344 88.234375 97.640625 87.015625 L 98.980469 84.800781 L 98.988281 102.953125 L 99 121.101563 L 97.050781 121.105469 C 95.976563 121.109375 93.34375 121.210938 91.199219 121.328125 C 89.054688 121.449219 84.933594 121.378906 82.042969 121.175781 Z M 111 121.125 L 100.5 120.800781 L 100.417969 103.703125 C 100.371094 94.296875 100.464844 86.386719 100.621094 86.125 C 100.933594 85.597656 110.398438 100.613281 110.398438 101.632813 C 110.398438 101.980469 110.097656 102.5625 109.730469 102.929688 C 108.796875 103.867188 109.675781 105.023438 111.003906 104.601563 C 111.609375 104.410156 112.410156 104.601563 112.78125 105.027344 C 113.605469 105.972656 123 121.050781 123 121.433594 C 123 121.582031 122.664063 121.644531 122.25 121.574219 C 121.835938 121.503906 116.773438 121.300781 111 121.125 Z M 109.371094 96.007813 C 108.121094 94.027344 105.953125 90.558594 104.546875 88.304688 L 101.996094 84.203125 L 113.640625 84.039063 C 124.148438 83.894531 125.601563 83.996094 128.492188 85.097656 C 130.257813 85.773438 132.578125 87.058594 133.648438 87.960938 L 135.597656 89.601563 L 134.117188 92.601563 C 133.304688 94.253906 132.628906 96.074219 132.617188 96.652344 C 132.609375 97.230469 132.320313 97.703125 131.980469 97.703125 C 131.636719 97.703125 130.636719 97.230469 129.757813 96.652344 C 128.566406 95.871094 126.914063 95.601563 123.328125 95.601563 C 118.519531 95.601563 117.109375 96.015625 113.273438 98.539063 L 111.644531 99.609375 Z M 97.800781 63.792969 C 97.800781 61.511719 98.464844 60.851563 100.207031 61.402344 C 101.996094 61.972656 101.664063 63.882813 99.601563 64.914063 L 97.800781 65.808594 Z M 72.414063 43.917969 C 71.773438 43.277344 73.792969 40.429688 75.925781 38.96875 C 78.082031 37.488281 82.488281 36.253906 83.800781 36.757813 C 85.304688 37.335938 84.601563 38.246094 82.351563 38.640625 C 79.53125 39.136719 75.226563 41.558594 74.390625 43.121094 C 73.742188 44.332031 73.09375 44.59375 72.414063 43.917969 Z M 54 17.292969 C 54 16.015625 49.617188 12.5 47.210938 11.839844 C 44.804688 11.183594 43.53125 11.339844 39 12.855469 C 38.371094 13.066406 37.671875 12.214844 36.679688 10.039063 C 35.335938 7.09375 33.171875 4.554688 29.941406 2.136719 C 25.023438 -1.542969 14.765625 -0.300781 9.898438 4.566406 C 7.191406 7.273438 5.339844 11.035156 4.976563 14.574219 L 4.632813 17.902344 L 29.316406 17.902344 C 45.65625 17.902344 54 17.695313 54 17.292969 Z M 54 17.292969 "
         style=" stroke:none;fill-rule:nonzero;fill:rgb(99.215698%,99.215698%,99.215698%);fill-opacity:1;" />
    </g>
    <g
       id="g92"
       clip-rule="nonzero"
       clip-path="url(#clip2)">
      <path
         id="path90"
         d="M 42 192.527344 C 42 191.351563 45.285156 188.960938 47.382813 188.605469 C 48.578125 188.402344 50.300781 188.523438 51.214844 188.871094 C 53.585938 189.769531 53.769531 189.707031 54.609375 187.675781 C 57.957031 179.601563 68.070313 177.207031 74.484375 182.976563 C 76.546875 184.832031 78.601563 188.972656 78.601563 191.277344 L 78.601563 193.101563 L 60.300781 193.101563 C 49.015625 193.101563 42 192.882813 42 192.527344 Z M 66.261719 168.316406 C 66.109375 167.921875 66.054688 157.203125 66.144531 144.5 L 66.300781 121.402344 L 74.699219 121.324219 L 70.648438 121.539063 L 66.601563 121.753906 L 66.601563 168.503906 L 86.398438 168.503906 L 86.398438 121.703125 L 81.300781 121.703125 C 78.496094 121.703125 76.199219 121.484375 76.199219 121.21875 C 76.199219 120.949219 76.621094 120.207031 77.132813 119.566406 C 78.027344 118.449219 78.039063 118.457031 77.410156 119.753906 C 76.761719 121.09375 76.789063 121.101563 82.027344 121.246094 C 84.929688 121.324219 89.863281 121.367188 93 121.339844 C 96.136719 121.3125 97.414063 121.398438 95.84375 121.527344 L 92.984375 121.765625 L 93.144531 144.984375 L 93.300781 168.203125 L 106.949219 168.363281 L 120.601563 168.523438 L 120.601563 121.703125 L 110.398438 121.703125 C 104.789063 121.703125 100.199219 121.5 100.199219 121.253906 C 100.199219 121.003906 105.261719 120.941406 111.449219 121.113281 C 117.636719 121.285156 123.03125 121.324219 123.4375 121.203125 C 123.984375 121.039063 124.015625 120.648438 123.546875 119.691406 C 122.929688 118.421875 122.933594 118.421875 124.007813 119.730469 C 124.914063 120.828125 125.820313 121.085938 129.300781 121.230469 L 133.5 121.402344 L 133.667969 143.902344 C 133.757813 156.277344 133.695313 166.976563 133.523438 167.679688 L 133.214844 168.957031 L 99.875 168.992188 C 74.570313 169.023438 66.46875 168.859375 66.261719 168.316406 Z M 133.058594 144.953125 L 133.214844 121.703125 L 125.398438 121.703125 L 125.398438 168.558594 L 129.148438 168.378906 L 132.898438 168.203125 Z M 70.800781 161.300781 L 70.800781 158.300781 L 79.800781 158.300781 L 79.800781 164.300781 L 70.800781 164.300781 Z M 76.199219 162.503906 C 76.199219 162.171875 75.253906 161.902344 74.101563 161.902344 C 72.945313 161.902344 72 162.171875 72 162.503906 C 72 162.832031 72.945313 163.101563 74.101563 163.101563 C 75.253906 163.101563 76.199219 162.832031 76.199219 162.503906 Z M 78.226563 160.980469 C 78.675781 159.804688 77.535156 159.371094 74.613281 159.613281 C 71.703125 159.851563 71.832031 160.886719 74.832031 161.367188 C 76.078125 161.566406 77.273438 161.769531 77.484375 161.816406 C 77.699219 161.863281 78.03125 161.488281 78.226563 160.980469 Z M 75.601563 119.300781 C 75.953125 118.640625 76.378906 118.101563 76.542969 118.101563 C 76.707031 118.101563 76.554688 118.640625 76.199219 119.300781 C 75.847656 119.960938 75.421875 120.503906 75.257813 120.503906 C 75.09375 120.503906 75.246094 119.960938 75.601563 119.300781 Z M 122.027344 119.753906 C 121.785156 119.339844 121.203125 118.328125 120.730469 117.503906 C 119.90625 116.0625 119.914063 116.050781 120.878906 117.203125 C 122.097656 118.652344 123.148438 120.503906 122.757813 120.503906 C 122.597656 120.503906 122.273438 120.164063 122.027344 119.753906 Z M 78.523438 117.203125 C 78.847656 116.542969 79.550781 115.460938 80.089844 114.800781 L 81.066406 113.601563 L 80.476563 114.800781 C 80.152344 115.460938 79.449219 116.542969 78.910156 117.203125 L 77.933594 118.402344 Z M 77.382813 116.335938 C 77.726563 115.695313 78.304688 114.984375 78.664063 114.761719 C 79.027344 114.539063 78.859375 115.0625 78.292969 115.929688 C 77.09375 117.761719 76.46875 118.039063 77.382813 116.335938 Z M 120.601563 115.101563 C 120.246094 114.441406 120.09375 113.902344 120.257813 113.902344 C 120.421875 113.902344 120.847656 114.441406 121.199219 115.101563 C 121.554688 115.761719 121.707031 116.300781 121.542969 116.300781 C 121.378906 116.300781 120.953125 115.761719 120.601563 115.101563 Z M 118.800781 114.503906 C 118.445313 113.84375 118.292969 113.300781 118.457031 113.300781 C 118.621094 113.300781 119.046875 113.84375 119.398438 114.503906 C 119.753906 115.164063 119.90625 115.703125 119.742188 115.703125 C 119.578125 115.703125 119.152344 115.164063 118.800781 114.503906 Z M 50.683594 113.273438 C 50.1875 112.476563 50.949219 106.691406 51.703125 105.503906 C 52.128906 104.835938 52.199219 104.992188 51.980469 106.101563 C 50.953125 111.292969 50.90625 112.164063 51.605469 113.007813 C 52.074219 113.574219 52.113281 113.902344 51.707031 113.902344 C 51.359375 113.902344 50.894531 113.621094 50.683594 113.273438 Z M 52.800781 113.667969 C 52.800781 113.535156 53.21875 113.269531 53.730469 113.074219 C 54.265625 112.867188 54.507813 112.96875 54.296875 113.308594 C 53.945313 113.878906 52.800781 114.152344 52.800781 113.667969 Z M 80.101563 112.101563 C 80.613281 111.113281 81.164063 110.300781 81.332031 110.300781 C 81.496094 110.300781 81.210938 111.113281 80.699219 112.101563 C 80.1875 113.09375 79.632813 113.902344 79.46875 113.902344 C 79.304688 113.902344 79.589844 113.09375 80.101563 112.101563 Z M 150.078125 112.800781 C 151.402344 110.679688 147.382813 97.167969 143.355469 90.203125 C 141.613281 87.191406 137.355469 81.570313 135.671875 80.058594 C 134.972656 79.429688 134.398438 78.640625 134.398438 78.300781 C 134.398438 77.640625 137.542969 80.929688 139.027344 83.148438 L 139.929688 84.492188 L 141.636719 83.277344 C 142.574219 82.609375 144.90625 81.339844 146.820313 80.457031 C 149.8125 79.074219 151.054688 78.855469 155.699219 78.890625 C 160.09375 78.925781 161.828125 79.230469 165.011719 80.527344 C 173.363281 83.925781 179.398438 92.691406 179.398438 101.410156 L 179.398438 104.300781 L 165.035156 104.300781 C 156.773438 104.300781 150.523438 104.539063 150.324219 104.863281 C 150.132813 105.171875 150.265625 106.714844 150.621094 108.292969 C 151.292969 111.296875 150.996094 113.902344 149.984375 113.902344 C 149.625 113.902344 149.664063 113.464844 150.078125 112.800781 Z M 81.601563 112.101563 C 81.953125 111.441406 82.378906 110.902344 82.542969 110.902344 C 82.707031 110.902344 82.554688 111.441406 82.199219 112.101563 C 81.847656 112.761719 81.421875 113.300781 81.257813 113.300781 C 81.09375 113.300781 81.246094 112.761719 81.601563 112.101563 Z M 119.027344 112.550781 C 118.785156 112.140625 118.203125 111.128906 117.730469 110.300781 C 116.90625 108.863281 116.914063 108.851563 117.878906 110.003906 C 119.097656 111.453125 120.148438 113.300781 119.757813 113.300781 C 119.597656 113.300781 119.273438 112.964844 119.027344 112.550781 Z M 54.976563 110.300781 C 55.183594 109.148438 55.59375 107.664063 55.878906 107.003906 C 56.242188 106.179688 56.285156 106.460938 56.023438 107.902344 C 55.816406 109.058594 55.40625 110.542969 55.121094 111.203125 C 54.757813 112.027344 54.714844 111.742188 54.976563 110.300781 Z M 145.800781 109.101563 C 145.425781 107.714844 145.238281 106.464844 145.382813 106.320313 C 145.527344 106.175781 145.933594 107.207031 146.289063 108.609375 C 146.648438 110.015625 146.835938 111.265625 146.707031 111.394531 C 146.582031 111.519531 146.171875 110.488281 145.800781 109.101563 Z M 115.664063 109.550781 C 114.011719 107.007813 113.253906 105.339844 113.941406 105.765625 C 114.835938 106.320313 114.769531 105.425781 113.808594 103.984375 C 111.636719 100.746094 110.246094 98.074219 111.066406 98.734375 C 111.804688 99.324219 112.371094 99.199219 114.039063 98.074219 C 115.171875 97.308594 117.152344 96.335938 118.4375 95.917969 C 121.378906 94.953125 127.871094 95.417969 129.878906 96.734375 C 131.785156 97.984375 132.59375 97.960938 132.617188 96.652344 C 132.628906 96.074219 133.304688 94.253906 134.117188 92.601563 L 135.597656 89.601563 L 133.648438 87.960938 C 132.578125 87.058594 130.351563 85.789063 128.699219 85.144531 C 127.050781 84.496094 126.121094 83.949219 126.632813 83.933594 C 128.710938 83.863281 133.925781 87.175781 137.050781 90.550781 C 139.972656 93.707031 143.574219 99.972656 144.855469 104.117188 C 145.234375 105.359375 145.144531 105.402344 143.285156 104.867188 C 140.640625 104.109375 115.980469 104.125 115.511719 104.886719 C 115.3125 105.207031 115.597656 106.21875 116.144531 107.136719 L 117.140625 108.800781 L 115.882813 107.300781 C 114.261719 105.367188 114.242188 106.28125 115.847656 108.882813 C 117.226563 111.109375 117.0625 111.707031 115.664063 109.550781 Z M 83.324219 109.402344 C 83.648438 108.742188 84.351563 107.664063 84.890625 107.003906 L 85.867188 105.800781 L 85.277344 107.003906 C 84.953125 107.664063 84.25 108.742188 83.710938 109.402344 L 82.734375 110.601563 Z M 82.183594 108.535156 C 82.527344 107.894531 83.101563 107.1875 83.464844 106.960938 C 83.828125 106.738281 83.660156 107.261719 83.09375 108.128906 C 81.890625 109.960938 81.269531 110.238281 82.183594 108.535156 Z M 84 105.8125 C 84 105.28125 88.234375 98.902344 88.585938 98.902344 C 88.78125 98.902344 88.464844 99.621094 87.890625 100.5 C 87.316406 101.378906 86.3125 103 85.664063 104.101563 C 84.574219 105.945313 84 106.535156 84 105.8125 Z M 86.398438 104.300781 C 86.753906 103.640625 87.140625 103.101563 87.265625 103.101563 C 87.386719 103.101563 87.347656 103.640625 87.175781 104.300781 C 87 104.960938 86.613281 105.503906 86.308594 105.503906 C 86.003906 105.503906 86.046875 104.964844 86.398438 104.300781 Z M 109.421875 104.175781 C 109.242188 103.886719 109.429688 103.25 109.835938 102.757813 C 110.398438 102.082031 110.414063 101.507813 109.902344 100.382813 C 108.84375 98.066406 109.453125 98.632813 111.421875 101.800781 L 113.226563 104.703125 L 111.488281 104.703125 C 110.53125 104.703125 109.601563 104.464844 109.421875 104.175781 Z M 52.242188 103.960938 C 52.183594 103.054688 54.085938 97.585938 54.367188 97.867188 C 54.492188 97.996094 54.078125 99.5625 53.441406 101.351563 C 52.808594 103.140625 52.269531 104.3125 52.242188 103.960938 Z M 57.328125 102.503906 C 58.117188 99.601563 61.46875 93.933594 64.171875 90.925781 C 66.820313 87.980469 71.582031 84.476563 72.867188 84.527344 C 73.214844 84.542969 72.421875 85.125 71.101563 85.820313 C 67.105469 87.925781 62.113281 93.554688 59.386719 99.039063 C 58.03125 101.769531 57.101563 103.328125 57.328125 102.503906 Z M 89.398438 99.503906 C 89.753906 98.84375 90.175781 98.300781 90.34375 98.300781 C 90.507813 98.300781 90.351563 98.84375 90 99.503906 C 89.648438 100.164063 89.222656 100.703125 89.058594 100.703125 C 88.894531 100.703125 89.046875 100.164063 89.398438 99.503906 Z M 89.316406 97.402344 C 89.644531 96.742188 90.335938 95.664063 90.859375 95.003906 L 91.804688 93.800781 L 91.445313 95.003906 C 91.144531 96.019531 91.285156 95.972656 92.378906 94.703125 L 93.671875 93.203125 L 92.742188 95.113281 C 91.695313 97.253906 90.410156 98.390625 90.960938 96.683594 C 91.210938 95.914063 90.9375 96.035156 90.015625 97.101563 C 89.070313 98.195313 88.882813 98.277344 89.316406 97.402344 Z M 54.601563 96.976563 C 54.601563 96.328125 56.421875 92.300781 56.714844 92.300781 C 56.882813 92.300781 56.597656 93.300781 56.089844 94.519531 C 55.191406 96.671875 54.601563 97.644531 54.601563 96.976563 Z M 106.800781 95.300781 C 106.445313 94.640625 106.292969 94.101563 106.457031 94.101563 C 106.621094 94.101563 107.046875 94.640625 107.398438 95.300781 C 107.753906 95.960938 107.90625 96.503906 107.742188 96.503906 C 107.578125 96.503906 107.152344 95.960938 106.800781 95.300781 Z M 92.398438 92.300781 C 92.753906 91.640625 93.175781 91.101563 93.34375 91.101563 C 93.507813 91.101563 93.351563 91.640625 93 92.300781 C 92.648438 92.960938 92.222656 93.503906 92.058594 93.503906 C 91.894531 93.503906 92.046875 92.960938 92.398438 92.300781 Z M 105.230469 92.753906 C 104.984375 92.339844 104.402344 91.328125 103.929688 90.503906 C 103.109375 89.0625 103.113281 89.050781 104.082031 90.203125 C 105.300781 91.652344 106.351563 93.503906 105.957031 93.503906 C 105.800781 93.503906 105.472656 93.164063 105.230469 92.753906 Z M 94.199219 91.703125 C 94.554688 91.042969 94.976563 90.503906 95.140625 90.503906 C 95.308594 90.503906 95.152344 91.042969 94.800781 91.703125 C 94.445313 92.363281 94.023438 92.902344 93.859375 92.902344 C 93.691406 92.902344 93.847656 92.363281 94.199219 91.703125 Z M 106.199219 91.703125 C 105.847656 91.042969 105.691406 90.503906 105.859375 90.503906 C 106.023438 90.503906 106.445313 91.042969 106.800781 91.703125 C 107.152344 92.363281 107.308594 92.902344 107.140625 92.902344 C 106.976563 92.902344 106.554688 92.363281 106.199219 91.703125 Z M 58.480469 89.003906 C 60.640625 85.179688 67.199219 77.164063 67.199219 78.347656 C 67.199219 78.640625 66.367188 79.671875 65.351563 80.640625 C 64.332031 81.609375 62.144531 84.425781 60.492188 86.902344 C 56.847656 92.351563 56.21875 93.003906 58.480469 89.003906 Z M 94.121094 89.601563 C 94.445313 88.941406 95.152344 87.863281 95.6875 87.203125 L 96.667969 86.003906 L 96.078125 87.203125 C 95.753906 87.863281 95.046875 88.941406 94.511719 89.601563 L 93.535156 90.800781 Z M 96.660156 87.839844 C 97.351563 86.664063 98.035156 85.703125 98.175781 85.703125 C 98.601563 85.703125 96.652344 89.199219 96.003906 89.601563 C 95.671875 89.804688 95.964844 89.011719 96.660156 87.839844 Z M 100.292969 88.703125 C 100.292969 87.878906 100.429688 87.539063 100.597656 87.953125 C 100.765625 88.363281 100.765625 89.039063 100.597656 89.453125 C 100.429688 89.863281 100.292969 89.527344 100.292969 88.703125 Z M 104.105469 88.328125 C 103.539063 87.460938 103.371094 86.9375 103.734375 87.160156 C 104.425781 87.589844 105.824219 89.902344 105.390625 89.902344 C 105.25 89.902344 104.675781 89.195313 104.105469 88.328125 Z M 102 87.503906 C 101.648438 86.84375 101.492188 86.300781 101.65625 86.300781 C 101.824219 86.300781 102.246094 86.84375 102.601563 87.503906 C 102.953125 88.164063 103.105469 88.703125 102.941406 88.703125 C 102.777344 88.703125 102.351563 88.164063 102 87.503906 Z M 100.199219 85.367188 C 100.199219 84.851563 100.472656 84.601563 100.808594 84.808594 C 101.144531 85.015625 101.265625 85.4375 101.074219 85.742188 C 100.558594 86.574219 100.199219 86.421875 100.199219 85.367188 Z M 102.019531 85.140625 C 101.679688 84.503906 101.398438 83.828125 101.398438 83.640625 C 101.398438 83.453125 106.734375 83.363281 113.25 83.4375 L 125.101563 83.574219 L 113.535156 83.75 C 102.226563 83.925781 101.984375 83.953125 102.605469 85.113281 C 102.957031 85.769531 103.105469 86.300781 102.941406 86.300781 C 102.777344 86.300781 102.363281 85.78125 102.019531 85.140625 Z M 96.976563 84.816406 C 97.265625 84.0625 95.789063 83.90625 86.910156 83.75 L 76.5 83.570313 L 87.472656 83.4375 C 98.277344 83.304688 98.433594 83.320313 97.800781 84.503906 C 97.054688 85.894531 96.480469 86.117188 96.976563 84.816406 Z M 74.289063 84.09375 C 74.71875 83.917969 75.238281 83.941406 75.4375 84.140625 C 75.636719 84.339844 75.28125 84.480469 74.648438 84.453125 C 73.949219 84.425781 73.808594 84.285156 74.289063 84.09375 Z M 65.773438 66.777344 C 65.195313 65.269531 65.367188 64.882813 66.074219 66.097656 C 66.421875 66.699219 66.582031 67.320313 66.429688 67.472656 C 66.273438 67.628906 65.980469 67.316406 65.773438 66.777344 Z M 135.019531 67.402344 C 135.019531 67.070313 135.28125 66.398438 135.601563 65.902344 C 135.917969 65.40625 136.179688 65.273438 136.179688 65.601563 C 136.179688 65.933594 135.917969 66.605469 135.601563 67.101563 C 135.28125 67.597656 135.019531 67.730469 135.019531 67.402344 Z M 97.476563 65.863281 C 97.257813 65.511719 97.242188 65.058594 97.441406 64.863281 C 97.636719 64.664063 97.800781 64.796875 97.800781 65.15625 C 97.800781 65.574219 98.449219 65.484375 99.601563 64.914063 C 101.695313 63.867188 101.984375 61.96875 100.140625 61.382813 C 98.738281 60.9375 98.074219 61.414063 97.597656 63.203125 C 97.347656 64.144531 97.300781 64.09375 97.390625 62.964844 C 97.535156 61.066406 99.230469 59.976563 100.648438 60.867188 C 102.410156 61.96875 102.253906 63.839844 100.289063 65.238281 C 98.253906 66.6875 98.015625 66.738281 97.476563 65.863281 Z M 63.898438 63.503906 C 63.300781 62.84375 63.0625 62.300781 63.363281 62.300781 C 63.664063 62.300781 64.25 62.84375 64.660156 63.503906 C 65.074219 64.164063 65.316406 64.703125 65.199219 64.703125 C 65.082031 64.703125 64.496094 64.164063 63.898438 63.503906 Z M 136.199219 64.476563 C 136.199219 64.351563 136.671875 63.878906 137.25 63.425781 C 138.203125 62.679688 138.222656 62.699219 137.476563 63.652344 C 136.691406 64.652344 136.199219 64.96875 136.199219 64.476563 Z M 61.125 60.652344 C 60.378906 59.699219 60.398438 59.679688 61.351563 60.425781 C 61.925781 60.878906 62.398438 61.351563 62.398438 61.476563 C 62.398438 61.96875 61.90625 61.652344 61.125 60.652344 Z M 139.199219 61.476563 C 139.199219 61.351563 139.671875 60.878906 140.25 60.425781 C 141.203125 59.679688 141.222656 59.699219 140.476563 60.652344 C 139.691406 61.652344 139.199219 61.96875 139.199219 61.476563 Z M 143.867188 58.59375 C 144.433594 58.371094 152.191406 58.21875 161.101563 58.261719 C 170.011719 58.300781 175.679688 58.414063 173.699219 58.507813 C 165.523438 58.90625 142.910156 58.972656 143.867188 58.59375 Z M 23.066406 57.757813 C 22.425781 57.238281 22.304688 57.035156 22.800781 57.308594 C 23.296875 57.578125 31.261719 57.945313 40.5 58.121094 L 57.300781 58.4375 L 40.765625 58.570313 C 26.480469 58.683594 24.070313 58.574219 23.066406 57.757813 Z M 181.128906 53.769531 C 181.40625 52.105469 181.488281 52.019531 181.679688 53.222656 C 181.800781 54.003906 181.652344 54.886719 181.351563 55.191406 C 181.019531 55.523438 180.929688 54.964844 181.128906 53.769531 Z M 20.398438 51.085938 C 20.398438 50.085938 23.277344 47.757813 24.105469 48.089844 C 24.648438 48.308594 24.582031 48.421875 23.894531 48.453125 C 23.339844 48.480469 22.328125 49.214844 21.644531 50.082031 C 20.960938 50.953125 20.398438 51.40625 20.398438 51.085938 Z M 180.105469 50.246094 C 179.691406 49.585938 178.757813 48.804688 178.027344 48.511719 C 177.167969 48.167969 177.035156 47.964844 177.644531 47.941406 C 178.621094 47.902344 181.621094 50.683594 181.128906 51.171875 C 180.976563 51.324219 180.515625 50.90625 180.105469 50.246094 Z M 27.242188 44.453125 L 27.300781 41.300781 L 25.199219 41.578125 C 23.851563 41.753906 24.171875 41.574219 26.101563 41.070313 C 29.398438 40.214844 30.125 40.324219 28.632813 41.457031 C 28.0625 41.890625 27.554688 43.339844 27.417969 44.902344 C 27.203125 47.339844 27.1875 47.296875 27.242188 44.453125 Z M 36.78125 44.902344 C 36.78125 43.085938 36.890625 42.34375 37.03125 43.253906 C 37.167969 44.160156 37.167969 45.644531 37.03125 46.550781 C 36.890625 47.460938 36.78125 46.71875 36.78125 44.902344 Z M 62.835938 46.632813 C 65.246094 45.707031 66.84375 44.449219 69.71875 41.214844 C 71.777344 38.898438 74.011719 36.734375 74.679688 36.40625 C 75.351563 36.074219 75.042969 36.503906 73.996094 37.363281 C 72.949219 38.21875 71.117188 40.246094 69.925781 41.867188 C 67.824219 44.730469 62.847656 47.945313 60.632813 47.871094 C 60.121094 47.855469 61.113281 47.296875 62.835938 46.632813 Z M 138.109375 46.992188 C 135.507813 45.859375 132.441406 43.664063 132.867188 43.234375 C 133.054688 43.050781 133.839844 43.496094 134.617188 44.226563 C 135.398438 44.957031 137.351563 46.070313 138.964844 46.699219 C 140.578125 47.332031 141.496094 47.847656 141 47.851563 C 140.503906 47.851563 139.203125 47.464844 138.109375 46.992188 Z M 164.640625 44.453125 L 164.699219 41.300781 L 162.601563 41.578125 C 161.25 41.753906 161.570313 41.574219 163.5 41.070313 C 166.800781 40.214844 167.527344 40.324219 166.03125 41.457031 C 165.464844 41.890625 164.953125 43.339844 164.816406 44.902344 C 164.605469 47.339844 164.589844 47.296875 164.640625 44.453125 Z M 174.070313 45.082031 C 174.019531 42.789063 173.722656 41.804688 172.953125 41.378906 C 171.191406 40.390625 172.347656 40.25 175.5 41.070313 C 177.46875 41.585938 177.773438 41.757813 176.382813 41.574219 L 174.269531 41.296875 L 174.492188 43.632813 C 174.613281 44.917969 174.585938 46.472656 174.425781 47.085938 C 174.269531 47.699219 174.109375 46.796875 174.070313 45.082031 Z M 71.625 44.019531 C 71.242188 43.019531 73.179688 40.304688 75.171875 39.046875 L 76.5 38.207031 L 75.253906 39.316406 C 74.570313 39.925781 73.542969 41.136719 72.972656 42.007813 C 71.523438 44.214844 72.894531 44.976563 74.617188 42.921875 C 76.234375 40.984375 79.730469 38.898438 81.300781 38.929688 C 81.996094 38.945313 81.519531 39.304688 80.167969 39.785156 C 78.886719 40.242188 76.851563 41.582031 75.644531 42.757813 C 73.28125 45.066406 72.160156 45.417969 71.625 44.019531 Z M 12.75 42.0625 C 14.316406 41.9375 16.882813 41.9375 18.449219 42.0625 C 20.015625 42.183594 18.734375 42.285156 15.601563 42.285156 C 12.464844 42.285156 11.183594 42.183594 12.75 42.0625 Z M 45.75 42.0625 C 47.316406 41.9375 49.882813 41.9375 51.449219 42.0625 C 53.015625 42.183594 51.734375 42.285156 48.601563 42.285156 C 45.464844 42.285156 44.183594 42.183594 45.75 42.0625 Z M 129.078125 39.097656 C 127.308594 37.277344 126.363281 36.058594 126.980469 36.390625 C 128.054688 36.972656 130.28125 39.238281 131.953125 41.453125 C 133.335938 43.28125 132.398438 42.515625 129.078125 39.097656 Z M 149.871094 42.058594 C 151.613281 41.9375 154.3125 41.9375 155.871094 42.0625 C 157.425781 42.183594 156 42.285156 152.699219 42.285156 C 149.398438 42.28125 148.125 42.179688 149.871094 42.058594 Z M 183.46875 42.058594 C 185.214844 41.9375 187.914063 41.9375 189.46875 42.0625 C 191.027344 42.183594 189.601563 42.285156 186.300781 42.285156 C 183 42.28125 181.726563 42.179688 183.46875 42.058594 Z M 4.199219 41.300781 C 3.011719 40.921875 2.949219 40.820313 3.898438 40.820313 C 4.558594 40.820313 5.773438 41.039063 6.601563 41.300781 C 7.789063 41.683594 7.851563 41.78125 6.898438 41.78125 C 6.238281 41.78125 5.023438 41.566406 4.199219 41.300781 Z M 36.75 41.46875 C 35.675781 41.335938 34.800781 41.003906 34.800781 40.726563 C 34.800781 40.289063 36.25 40.480469 40.5 41.480469 C 41.417969 41.695313 41.347656 41.757813 40.199219 41.738281 C 39.375 41.722656 37.824219 41.601563 36.75 41.46875 Z M 56.851563 41.503906 C 57.261719 41.339844 57.9375 41.339844 58.351563 41.503906 C 58.761719 41.671875 58.425781 41.808594 57.601563 41.808594 C 56.773438 41.808594 56.4375 41.671875 56.851563 41.503906 Z M 143.25 41.503906 C 143.664063 41.339844 144.335938 41.339844 144.75 41.503906 C 145.164063 41.671875 144.824219 41.808594 144 41.808594 C 143.175781 41.808594 142.835938 41.671875 143.25 41.503906 Z M 194.25 41.503906 C 194.664063 41.339844 195.335938 41.339844 195.75 41.503906 C 196.164063 41.671875 195.824219 41.808594 195 41.808594 C 194.175781 41.808594 193.835938 41.671875 194.25 41.503906 Z M 59.449219 41.085938 C 59.585938 40.96875 60.511719 40.691406 61.5 40.46875 C 62.816406 40.175781 63.058594 40.230469 62.398438 40.675781 C 61.589844 41.222656 58.847656 41.605469 59.449219 41.085938 Z M 139.199219 40.675781 C 138.542969 40.230469 138.785156 40.175781 140.101563 40.46875 C 142.304688 40.960938 142.785156 41.304688 141.25 41.292969 C 140.617188 41.289063 139.695313 41.007813 139.199219 40.675781 Z M 197.289063 40.890625 C 197.71875 40.71875 198.238281 40.742188 198.4375 40.941406 C 198.636719 41.140625 198.28125 41.28125 197.648438 41.253906 C 196.949219 41.226563 196.808594 41.082031 197.289063 40.890625 Z M 29.757813 37.402344 C 30.648438 36.578125 31.808594 35.917969 32.335938 35.941406 C 32.964844 35.964844 32.824219 36.167969 31.9375 36.527344 C 31.1875 36.828125 30.414063 37.484375 30.222656 37.988281 C 30.03125 38.492188 29.480469 38.902344 29.003906 38.902344 C 28.449219 38.902344 28.71875 38.363281 29.757813 37.402344 Z M 61.6875 38.492188 C 62.121094 38.320313 62.636719 38.339844 62.835938 38.539063 C 63.035156 38.738281 62.683594 38.882813 62.050781 38.855469 C 61.351563 38.824219 61.207031 38.683594 61.6875 38.492188 Z M 83.582031 38.480469 C 85.671875 37.941406 84.195313 36.800781 81.535156 36.902344 L 78.898438 37.003906 L 81.207031 36.382813 C 83.074219 35.875 83.6875 35.929688 84.425781 36.671875 C 85.488281 37.734375 84.984375 38.933594 83.515625 38.832031 C 82.632813 38.773438 82.644531 38.726563 83.582031 38.480469 Z M 167.042969 37.402344 C 167.933594 36.578125 169.121094 35.917969 169.679688 35.941406 C 170.359375 35.964844 170.199219 36.179688 169.203125 36.574219 C 168.382813 36.902344 167.492188 37.5625 167.226563 38.035156 C 166.957031 38.511719 166.445313 38.902344 166.082031 38.902344 C 165.722656 38.902344 166.152344 38.226563 167.042969 37.402344 Z M 171.601563 37.703125 C 171.246094 37.042969 171.042969 36.503906 171.144531 36.503906 C 171.25 36.503906 171.796875 37.042969 172.359375 37.703125 C 172.925781 38.363281 173.128906 38.902344 172.816406 38.902344 C 172.5 38.902344 171.953125 38.363281 171.601563 37.703125 Z M 199.085938 38.492188 C 199.519531 38.320313 200.039063 38.339844 200.238281 38.539063 C 200.4375 38.738281 200.082031 38.882813 199.449219 38.855469 C 198.75 38.824219 198.609375 38.683594 199.085938 38.492188 Z M 4.800781 37.695313 C 5.296875 37.378906 6.488281 37.117188 7.449219 37.113281 C 9.769531 37.097656 9.265625 37.445313 6.300781 37.898438 C 4.664063 38.152344 4.1875 38.085938 4.800781 37.695313 Z M 23.699219 37.703125 L 21.300781 37.273438 L 23.816406 37.1875 C 25.199219 37.140625 26.496094 37.371094 26.699219 37.703125 C 26.902344 38.03125 26.851563 38.265625 26.585938 38.21875 C 26.320313 38.171875 25.019531 37.9375 23.699219 37.703125 Z M 57 37.703125 L 54.898438 37.261719 L 57.113281 37.179688 C 58.332031 37.136719 59.496094 37.371094 59.699219 37.703125 C 60.101563 38.351563 60.09375 38.351563 57 37.703125 Z M 77.238281 37.628906 C 77.648438 37.21875 78.132813 37.035156 78.316406 37.21875 C 78.5 37.402344 78.167969 37.738281 77.574219 37.964844 C 76.722656 38.289063 76.652344 38.21875 77.238281 37.628906 Z M 141.921875 37.667969 C 142.113281 37.355469 143.246094 37.101563 144.433594 37.101563 C 147.089844 37.101563 146.847656 37.417969 143.835938 37.882813 C 142.488281 38.089844 141.714844 38.003906 141.921875 37.667969 Z M 194.398438 37.703125 C 192.324219 37.265625 192.320313 37.257813 194.101563 37.191406 C 195.089844 37.152344 196.304688 37.382813 196.800781 37.703125 C 197.800781 38.347656 197.46875 38.347656 194.398438 37.703125 Z M 41.101563 37.039063 C 43.488281 36.574219 55.027344 36.300781 54.550781 36.722656 C 54.414063 36.84375 50.789063 37.070313 46.5 37.226563 C 41.964844 37.390625 39.703125 37.3125 41.101563 37.039063 Z M 159.75 37.289063 C 160.328125 37.136719 161.273438 37.136719 161.851563 37.289063 C 162.425781 37.441406 161.953125 37.5625 160.800781 37.5625 C 159.644531 37.5625 159.171875 37.441406 159.75 37.289063 Z M 177.148438 37.289063 C 177.726563 37.136719 178.671875 37.136719 179.25 37.289063 C 179.828125 37.441406 179.355469 37.5625 178.199219 37.5625 C 177.046875 37.5625 176.574219 37.441406 177.148438 37.289063 Z M 12.46875 36.660156 C 14.214844 36.539063 16.914063 36.539063 18.46875 36.664063 C 20.027344 36.785156 18.601563 36.886719 15.300781 36.882813 C 12 36.882813 10.726563 36.78125 12.46875 36.660156 Z M 149.871094 36.660156 C 151.613281 36.539063 154.3125 36.539063 155.871094 36.664063 C 157.425781 36.785156 156 36.886719 152.699219 36.882813 C 149.398438 36.882813 148.125 36.78125 149.871094 36.660156 Z M 183.46875 36.660156 C 185.214844 36.539063 187.914063 36.539063 189.46875 36.664063 C 191.027344 36.785156 189.601563 36.886719 186.300781 36.882813 C 183 36.882813 181.726563 36.78125 183.46875 36.660156 Z M 76.53125 35.328125 C 76.863281 34.996094 78.074219 34.582031 79.21875 34.40625 C 81.332031 34.085938 80.933594 34.339844 77.714844 35.367188 C 76.511719 35.75 76.125 35.738281 76.53125 35.328125 Z M 121.800781 34.703125 C 120.5625 34.304688 120.511719 34.214844 121.5 34.171875 C 122.160156 34.144531 123.105469 34.382813 123.601563 34.703125 C 124.652344 35.382813 123.921875 35.382813 121.800781 34.703125 Z M 91.351563 33.652344 C 96.546875 33.554688 105.050781 33.554688 110.25 33.652344 C 115.449219 33.753906 111.195313 33.835938 100.800781 33.835938 C 90.40625 33.835938 86.152344 33.753906 91.351563 33.652344 Z M 4.976563 14.574219 C 5.339844 11.035156 7.191406 7.273438 9.898438 4.566406 C 14.765625 -0.300781 25.023438 -1.542969 29.941406 2.136719 C 33.171875 4.554688 35.335938 7.09375 36.679688 10.039063 C 37.671875 12.214844 38.371094 13.066406 39 12.855469 C 43.53125 11.339844 44.804688 11.183594 47.210938 11.839844 C 49.617188 12.5 54 16.015625 54 17.292969 C 54 17.695313 45.65625 17.902344 29.316406 17.902344 L 4.632813 17.902344 Z M 4.976563 14.574219 "
         style=" stroke:none;fill-rule:nonzero;fill:rgb(90.586853%,92.547607%,92.547607%);fill-opacity:1;" />
    </g>
    <path
       id="path94"
       d="M 72.316406 160.730469 C 72.101563 160.378906 72.316406 159.941406 72.800781 159.757813 C 74.144531 159.242188 78.300781 159.726563 78.300781 160.402344 C 78.300781 161.222656 72.804688 161.519531 72.316406 160.730469 Z M 76.957031 160.28125 C 76.21875 160.136719 74.871094 160.132813 73.957031 160.273438 C 73.046875 160.410156 73.648438 160.527344 75.300781 160.53125 C 76.949219 160.535156 77.695313 160.421875 76.957031 160.28125 Z M 51.695313 113.160156 C 50.746094 112.210938 50.8125 111.230469 52.167969 105.929688 C 54.628906 96.3125 59.230469 87.3125 64.761719 81.3125 C 67.097656 78.78125 67.152344 78.617188 67.351563 73.664063 C 67.550781 68.679688 67.558594 68.703125 67.679688 75.019531 C 67.824219 82.621094 68.300781 83.277344 73.785156 83.34375 L 77.101563 83.382813 L 74.371094 84.121094 C 66.128906 86.34375 59.21875 95.070313 55.601563 107.828125 C 54.167969 112.882813 53.007813 114.46875 51.695313 113.160156 Z M 147.792969 113.152344 C 147.488281 112.738281 146.636719 110.28125 145.898438 107.6875 C 142.269531 94.953125 135.445313 86.335938 127.230469 84.121094 L 124.5 83.382813 L 127.816406 83.34375 C 133.296875 83.277344 133.777344 82.621094 133.921875 75.019531 C 134.042969 68.644531 134.046875 68.636719 134.25 73.703125 C 134.441406 78.515625 134.5625 78.921875 136.421875 80.902344 C 138.945313 83.589844 141.601563 87.15625 143.359375 90.203125 C 147.492188 97.371094 151.527344 111.164063 150.023438 112.976563 C 149.089844 114.097656 148.523438 114.144531 147.792969 113.152344 Z M 82.320313 82.855469 C 85.191406 82.746094 90.050781 82.746094 93.121094 82.855469 C 96.1875 82.964844 93.839844 83.054688 87.898438 83.054688 C 81.960938 83.054688 79.449219 82.964844 82.320313 82.855469 Z M 106.683594 82.855469 C 110.082031 82.746094 115.480469 82.746094 118.683594 82.855469 C 121.882813 82.964844 119.101563 83.050781 112.5 83.050781 C 105.898438 83.050781 103.28125 82.960938 106.683594 82.855469 Z M 97.304688 67.511719 C 94.484375 64.511719 96.703125 59.300781 100.800781 59.300781 C 104.964844 59.300781 107.214844 64.777344 104.210938 67.597656 C 102.308594 69.386719 99.027344 69.34375 97.304688 67.511719 Z M 100.289063 65.238281 C 102.253906 63.839844 102.410156 61.96875 100.648438 60.867188 C 99.039063 59.855469 97.515625 61.132813 97.425781 63.566406 C 97.304688 66.890625 97.671875 67.101563 100.289063 65.238281 Z M 65.242188 64.546875 L 64.183594 62.601563 L 65.390625 64.019531 C 66.417969 65.222656 66.96875 66.511719 66.449219 66.5 C 66.367188 66.496094 65.824219 65.617188 65.242188 64.546875 Z M 135.019531 66.015625 C 135.007813 65.585938 136.148438 64.089844 137.550781 62.691406 C 139.269531 60.980469 139.492188 60.84375 138.226563 62.277344 C 137.199219 63.445313 136.058594 64.941406 135.695313 65.601563 C 135.332031 66.261719 135.027344 66.449219 135.019531 66.015625 Z M 62.042969 60.953125 L 60.898438 59.601563 L 62.25 60.746094 C 63.519531 61.820313 63.875 62.300781 63.394531 62.300781 C 63.277344 62.300781 62.671875 61.695313 62.042969 60.953125 Z M 31.984375 57.652344 C 36.542969 57.550781 43.832031 57.550781 48.1875 57.652344 C 52.539063 57.757813 48.808594 57.839844 39.898438 57.839844 C 30.988281 57.839844 27.429688 57.753906 31.984375 57.652344 Z M 154.050781 57.652344 C 158.421875 57.550781 165.578125 57.550781 169.949219 57.652344 C 174.324219 57.757813 170.746094 57.839844 162 57.839844 C 153.253906 57.839844 149.675781 57.757813 154.050781 57.652344 Z M 20.972656 55.652344 C 20.605469 54.960938 20.414063 54.285156 20.554688 54.148438 C 20.691406 54.011719 21.113281 54.574219 21.488281 55.398438 C 22.316406 57.214844 21.914063 57.410156 20.972656 55.652344 Z M 180.046875 55.703125 C 180.921875 53.867188 181.199219 53.523438 181.199219 54.289063 C 181.199219 54.609375 180.78125 55.398438 180.265625 56.039063 C 179.386719 57.136719 179.375 57.117188 180.046875 55.703125 Z M 21.140625 50.753906 C 22.925781 48.042969 23.867188 47.921875 43.28125 47.910156 L 61.664063 47.902344 L 64.738281 46.253906 C 66.652344 45.222656 68.882813 43.257813 70.65625 41.035156 C 72.464844 38.769531 74.585938 36.914063 76.480469 35.9375 L 79.464844 34.402344 L 99.28125 34.21875 C 112.4375 34.097656 120.007813 34.261719 121.800781 34.707031 C 125.441406 35.609375 128.695313 37.949219 131.539063 41.714844 C 133.097656 43.78125 134.945313 45.367188 136.96875 46.375 L 140.035156 47.902344 L 158.367188 47.910156 C 177.730469 47.921875 178.675781 48.042969 180.457031 50.753906 L 181.347656 52.101563 L 20.253906 52.101563 Z M 75.929688 42.539063 C 77.453125 41.132813 79.546875 39.90625 81.09375 39.511719 C 85.707031 38.328125 86.082031 37.980469 84.300781 36.503906 C 81.617188 34.277344 70.429688 40.910156 71.625 44.019531 C 72.160156 45.421875 73.183594 45.070313 75.929688 42.539063 Z M 35.699219 41.902344 C 35.496094 41.570313 35.613281 41.300781 35.964844 41.300781 C 36.3125 41.300781 36.601563 41.570313 36.601563 41.902344 C 36.601563 42.230469 36.480469 42.503906 36.335938 42.503906 C 36.191406 42.503906 35.902344 42.230469 35.699219 41.902344 Z M 8.855469 41.476563 C 9.601563 41.335938 10.683594 41.339844 11.257813 41.488281 C 11.832031 41.640625 11.21875 41.757813 9.898438 41.75 C 8.578125 41.746094 8.109375 41.621094 8.855469 41.476563 Z M 19.648438 41.480469 C 20.390625 41.335938 21.609375 41.335938 22.351563 41.480469 C 23.09375 41.621094 22.484375 41.738281 21 41.738281 C 19.515625 41.738281 18.90625 41.621094 19.648438 41.480469 Z M 42.457031 41.476563 C 43.203125 41.335938 44.285156 41.339844 44.855469 41.488281 C 45.429688 41.640625 44.820313 41.757813 43.5 41.75 C 42.179688 41.746094 41.710938 41.621094 42.457031 41.476563 Z M 53.257813 41.476563 C 54.003906 41.335938 55.082031 41.339844 55.65625 41.488281 C 56.230469 41.640625 55.621094 41.757813 54.300781 41.75 C 52.980469 41.746094 52.511719 41.621094 53.257813 41.476563 Z M 146.257813 41.476563 C 147.003906 41.335938 148.082031 41.339844 148.65625 41.488281 C 149.230469 41.640625 148.621094 41.757813 147.300781 41.75 C 145.980469 41.746094 145.511719 41.621094 146.257813 41.476563 Z M 157.050781 41.480469 C 157.792969 41.335938 159.007813 41.335938 159.75 41.480469 C 160.492188 41.621094 159.886719 41.738281 158.398438 41.738281 C 156.914063 41.738281 156.308594 41.621094 157.050781 41.480469 Z M 179.257813 41.476563 C 180.003906 41.335938 181.082031 41.339844 181.65625 41.488281 C 182.230469 41.640625 181.621094 41.757813 180.300781 41.75 C 178.980469 41.746094 178.511719 41.621094 179.257813 41.476563 Z M 190.65625 41.476563 C 191.402344 41.335938 192.484375 41.339844 193.058594 41.488281 C 193.628906 41.640625 193.019531 41.757813 191.699219 41.75 C 190.378906 41.746094 189.910156 41.621094 190.65625 41.476563 Z M 29.617188 40.402344 C 29.808594 39.90625 29.703125 39.503906 29.386719 39.503906 C 29.066406 39.503906 29.394531 38.828125 30.113281 38.003906 C 30.828125 37.175781 31.890625 36.503906 32.472656 36.503906 C 33.644531 36.503906 35.761719 39.082031 34.84375 39.386719 C 34.527344 39.492188 34.417969 39.96875 34.597656 40.441406 C 34.855469 41.113281 34.3125 41.300781 32.101563 41.300781 C 29.832031 41.300781 29.339844 41.125 29.617188 40.402344 Z M 58.085938 40.890625 C 58.519531 40.71875 59.039063 40.742188 59.238281 40.941406 C 59.4375 41.140625 59.082031 41.28125 58.449219 41.253906 C 57.75 41.226563 57.609375 41.082031 58.085938 40.890625 Z M 142.6875 40.890625 C 143.121094 40.71875 143.636719 40.742188 143.835938 40.941406 C 144.035156 41.140625 143.683594 41.28125 143.050781 41.253906 C 142.351563 41.226563 142.207031 41.082031 142.6875 40.890625 Z M 166.988281 40.472656 C 167.179688 39.980469 167.066406 39.492188 166.738281 39.382813 C 165.816406 39.074219 168.511719 36.503906 169.753906 36.503906 C 170.363281 36.503906 171.304688 37.175781 171.84375 38.003906 C 172.386719 38.828125 172.558594 39.503906 172.234375 39.503906 C 171.90625 39.503906 171.773438 39.855469 171.941406 40.289063 C 172.15625 40.859375 171.464844 41.117188 169.445313 41.21875 C 167.179688 41.335938 166.710938 41.195313 166.988281 40.472656 Z M 176.289063 40.890625 C 176.71875 40.71875 177.238281 40.742188 177.4375 40.941406 C 177.636719 41.140625 177.28125 41.28125 176.648438 41.253906 C 175.949219 41.226563 175.808594 41.082031 176.289063 40.890625 Z M 195.488281 40.890625 C 195.921875 40.71875 196.4375 40.742188 196.636719 40.941406 C 196.835938 41.140625 196.484375 41.28125 195.851563 41.253906 C 195.152344 41.226563 195.007813 41.082031 195.488281 40.890625 Z M 27.488281 40.292969 C 27.921875 40.117188 28.4375 40.140625 28.636719 40.339844 C 28.835938 40.539063 28.484375 40.679688 27.851563 40.65625 C 27.152344 40.625 27.007813 40.484375 27.488281 40.292969 Z M 35.886719 40.292969 C 36.320313 40.117188 36.839844 40.140625 37.039063 40.339844 C 37.238281 40.539063 36.882813 40.679688 36.25 40.65625 C 35.550781 40.625 35.410156 40.484375 35.886719 40.292969 Z M 164.886719 40.292969 C 165.320313 40.117188 165.839844 40.140625 166.039063 40.339844 C 166.238281 40.539063 165.882813 40.679688 165.25 40.65625 C 164.550781 40.625 164.410156 40.484375 164.886719 40.292969 Z M 173.289063 40.292969 C 173.71875 40.117188 174.238281 40.140625 174.4375 40.339844 C 174.636719 40.539063 174.28125 40.679688 173.648438 40.65625 C 172.949219 40.625 172.808594 40.484375 173.289063 40.292969 Z M 0.601563 39.484375 C 0.601563 39.164063 1.003906 38.902344 1.5 38.902344 C 1.996094 38.902344 2.398438 39.007813 2.398438 39.136719 C 2.398438 39.269531 1.996094 39.527344 1.5 39.71875 C 1.003906 39.910156 0.601563 39.804688 0.601563 39.484375 Z M 62.699219 39.503906 C 62.496094 39.171875 62.613281 38.902344 62.964844 38.902344 C 63.3125 38.902344 63.601563 39.171875 63.601563 39.503906 C 63.601563 39.832031 63.480469 40.101563 63.335938 40.101563 C 63.191406 40.101563 62.902344 39.832031 62.699219 39.503906 Z M 138 39.503906 C 138 39.171875 138.285156 38.902344 138.636719 38.902344 C 138.984375 38.902344 139.105469 39.171875 138.898438 39.503906 C 138.695313 39.832031 138.410156 40.101563 138.265625 40.101563 C 138.117188 40.101563 138 39.832031 138 39.503906 Z M 200.101563 39.503906 C 199.894531 39.171875 200.015625 38.902344 200.363281 38.902344 C 200.714844 38.902344 201 39.171875 201 39.503906 C 201 39.832031 200.882813 40.101563 200.734375 40.101563 C 200.589844 40.101563 200.304688 39.832031 200.101563 39.503906 Z M 5.886719 37.890625 C 6.320313 37.71875 6.839844 37.742188 7.039063 37.941406 C 7.238281 38.140625 6.882813 38.28125 6.25 38.253906 C 5.550781 38.226563 5.410156 38.082031 5.886719 37.890625 Z M 24.488281 37.890625 C 24.921875 37.71875 25.4375 37.742188 25.636719 37.941406 C 25.835938 38.140625 25.484375 38.28125 24.851563 38.253906 C 24.152344 38.226563 24.007813 38.082031 24.488281 37.890625 Z M 38.886719 37.890625 C 39.320313 37.71875 39.839844 37.742188 40.039063 37.941406 C 40.238281 38.140625 39.882813 38.28125 39.25 38.253906 C 38.550781 38.226563 38.410156 38.082031 38.886719 37.890625 Z M 57.488281 37.890625 C 57.921875 37.71875 58.4375 37.742188 58.636719 37.941406 C 58.835938 38.140625 58.484375 38.28125 57.851563 38.253906 C 57.152344 38.226563 57.007813 38.082031 57.488281 37.890625 Z M 143.289063 37.890625 C 143.71875 37.71875 144.238281 37.742188 144.4375 37.941406 C 144.636719 38.140625 144.28125 38.28125 143.648438 38.253906 C 142.949219 38.226563 142.808594 38.082031 143.289063 37.890625 Z M 161.25 37.90625 C 161.664063 37.738281 162.335938 37.738281 162.75 37.90625 C 163.164063 38.070313 162.824219 38.207031 162 38.207031 C 161.175781 38.207031 160.835938 38.070313 161.25 37.90625 Z M 176.289063 37.890625 C 176.71875 37.71875 177.238281 37.742188 177.4375 37.941406 C 177.636719 38.140625 177.28125 38.28125 176.648438 38.253906 C 175.949219 38.226563 175.808594 38.082031 176.289063 37.890625 Z M 194.886719 37.890625 C 195.320313 37.71875 195.839844 37.742188 196.039063 37.941406 C 196.238281 38.140625 195.882813 38.28125 195.25 38.253906 C 194.550781 38.226563 194.410156 38.082031 194.886719 37.890625 Z M 9.75 37.289063 C 10.328125 37.136719 11.273438 37.136719 11.851563 37.289063 C 12.425781 37.441406 11.953125 37.5625 10.800781 37.5625 C 9.644531 37.5625 9.171875 37.441406 9.75 37.289063 Z M 19.363281 37.285156 C 19.945313 37.132813 20.753906 37.144531 21.160156 37.308594 C 21.566406 37.472656 21.089844 37.597656 20.101563 37.585938 C 19.109375 37.574219 18.777344 37.4375 19.363281 37.285156 Z M 43.363281 37.285156 C 43.945313 37.132813 44.753906 37.144531 45.160156 37.308594 C 45.566406 37.472656 45.089844 37.597656 44.101563 37.585938 C 43.109375 37.574219 42.777344 37.4375 43.363281 37.285156 Z M 52.960938 37.285156 C 53.546875 37.132813 54.355469 37.144531 54.761719 37.308594 C 55.167969 37.472656 54.691406 37.597656 53.699219 37.585938 C 52.710938 37.574219 52.378906 37.4375 52.960938 37.285156 Z M 147.148438 37.289063 C 147.726563 37.136719 148.671875 37.136719 149.25 37.289063 C 149.828125 37.441406 149.355469 37.5625 148.199219 37.5625 C 147.046875 37.5625 146.574219 37.441406 147.148438 37.289063 Z M 156.761719 37.285156 C 157.34375 37.132813 158.15625 37.144531 158.5625 37.308594 C 158.96875 37.472656 158.488281 37.597656 157.5 37.585938 C 156.511719 37.574219 156.175781 37.4375 156.761719 37.285156 Z M 180.761719 37.285156 C 181.34375 37.132813 182.15625 37.144531 182.5625 37.308594 C 182.96875 37.472656 182.488281 37.597656 181.5 37.585938 C 180.511719 37.574219 180.175781 37.4375 180.761719 37.285156 Z M 190.363281 37.285156 C 190.945313 37.132813 191.753906 37.144531 192.160156 37.308594 C 192.566406 37.472656 192.089844 37.597656 191.101563 37.585938 C 190.109375 37.574219 189.777344 37.4375 190.363281 37.285156 Z M 190.363281 37.285156 "
       style=" stroke:none;fill-rule:nonzero;fill:rgb(63.920593%,67.0578%,82.351685%);fill-opacity:1;" />
    <path
       id="path96"
       d="M 66.601563 145.101563 L 66.601563 121.703125 L 70.648438 121.691406 L 74.699219 121.679688 L 77.933594 116.441406 C 84.367188 106.023438 85.507813 104.3125 86.019531 104.308594 C 86.304688 104.304688 86.140625 104.910156 85.65625 105.652344 C 83.023438 109.6875 76.199219 120.992188 76.199219 121.320313 C 76.199219 121.53125 78.496094 121.703125 81.300781 121.703125 L 86.398438 121.703125 L 86.398438 168.503906 L 66.601563 168.503906 Z M 79.800781 161.300781 L 79.800781 158.300781 L 70.800781 158.300781 L 70.800781 164.300781 L 79.800781 164.300781 Z M 93.398438 168.101563 C 93.179688 167.882813 93 157.351563 93 144.703125 L 93 121.703125 L 99 121.703125 L 99 103.101563 C 99 89.332031 98.816406 84.503906 98.300781 84.503906 C 97.097656 84.503906 98.328125 83.710938 99.769531 83.558594 C 100.738281 83.453125 101.433594 83.921875 102.140625 85.15625 C 103.320313 87.207031 102.578125 87.519531 101.203125 85.550781 C 100.339844 84.3125 100.261719 85.738281 100.230469 102.953125 L 100.199219 121.703125 L 113.699219 121.703125 L 113.371094 167.84375 L 117.136719 168.058594 C 119.207031 168.175781 114.800781 168.324219 107.351563 168.386719 C 99.898438 168.449219 93.621094 168.320313 93.398438 168.101563 Z M 125.398438 145.128906 C 125.398438 132.246094 125.601563 121.703125 125.851563 121.703125 C 126.097656 121.703125 126.226563 132.097656 126.136719 144.800781 L 125.972656 167.902344 L 132.585938 167.902344 L 132.921875 121.402344 L 132.910156 144.800781 L 132.898438 168.203125 L 129.148438 168.378906 L 125.398438 168.558594 Z M 122.78125 120.203125 C 122.59375 119.707031 122.671875 119.300781 122.953125 119.300781 C 123.238281 119.300781 123.628906 119.707031 123.816406 120.203125 C 124.007813 120.695313 123.929688 121.101563 123.644531 121.101563 C 123.359375 121.101563 122.972656 120.695313 122.78125 120.203125 Z M 120.957031 117.203125 C 120.414063 116.378906 120.21875 115.703125 120.515625 115.703125 C 120.816406 115.703125 121.503906 116.378906 122.042969 117.203125 C 122.585938 118.027344 122.78125 118.703125 122.484375 118.703125 C 122.183594 118.703125 121.496094 118.027344 120.957031 117.203125 Z M 111.597656 102.121094 C 101.699219 86.253906 102.425781 87.503906 103.117188 87.503906 C 103.75 87.503906 117.601563 109.839844 117.601563 110.863281 C 117.601563 111.214844 117.8125 111.503906 118.070313 111.503906 C 118.328125 111.503906 119.019531 112.3125 119.605469 113.300781 C 120.1875 114.292969 120.449219 115.101563 120.183594 115.101563 C 119.914063 115.101563 116.050781 109.261719 111.597656 102.121094 Z M 91.550781 94.550781 C 94.671875 89.519531 97.507813 85.304688 97.855469 85.1875 C 98.203125 85.070313 97.074219 87.230469 95.34375 89.988281 C 93.613281 92.746094 91.007813 96.960938 89.554688 99.351563 C 88.101563 101.746094 86.679688 103.703125 86.394531 103.703125 C 86.113281 103.703125 88.433594 99.585938 91.550781 94.550781 Z M 91.550781 94.550781 "
       style=" stroke:none;fill-rule:nonzero;fill:rgb(83.920288%,76.861572%,52.156067%);fill-opacity:1;" />
    <path
       id="path98"
       d="M 113.542969 144.953125 L 113.699219 122.003906 L 120.300781 122.003906 L 120.457031 144.203125 C 120.636719 169.234375 120.890625 167.902344 115.976563 167.902344 L 113.386719 167.902344 Z M 115.050781 133.292969 C 114.953125 127.082031 114.871094 131.992188 114.871094 144.203125 C 114.871094 156.414063 114.953125 161.492188 115.050781 155.492188 C 115.148438 149.492188 115.148438 139.5 115.050781 133.292969 Z M 126.144531 144.855469 L 126.300781 122.003906 L 129.449219 121.820313 L 132.601563 121.640625 L 132.601563 167.722656 L 125.984375 167.707031 Z M 127.050781 133.292969 C 126.953125 127.082031 126.871094 131.992188 126.871094 144.203125 C 126.871094 156.414063 126.953125 161.492188 127.050781 155.492188 C 127.148438 149.492188 127.148438 139.5 127.050781 133.292969 Z M 127.050781 133.292969 "
       style=" stroke:none;fill-rule:nonzero;fill:rgb(75.68512%,67.0578%,43.136597%);fill-opacity:1;" />
    <path
       id="path100"
       d="M 118.800781 167.667969 C 118.800781 167.535156 119.203125 167.273438 119.699219 167.085938 C 120.195313 166.894531 120.601563 167 120.601563 167.320313 C 120.601563 167.640625 120.195313 167.902344 119.699219 167.902344 C 119.203125 167.902344 118.800781 167.796875 118.800781 167.667969 Z M 114.871094 144.203125 C 114.871094 131.992188 114.953125 127.082031 115.050781 133.292969 C 115.148438 139.5 115.148438 149.492188 115.050781 155.492188 C 114.953125 161.492188 114.871094 156.414063 114.871094 144.203125 Z M 126.871094 144.203125 C 126.871094 131.992188 126.953125 127.082031 127.050781 133.292969 C 127.148438 139.5 127.148438 149.492188 127.050781 155.492188 C 126.953125 161.492188 126.871094 156.414063 126.871094 144.203125 Z M 126.871094 144.203125 "
       style=" stroke:none;fill-rule:nonzero;fill:rgb(74.508667%,66.273499%,43.136597%);fill-opacity:1;" />
    <path
       id="path102"
       d="M 72.601563 162.503906 C 72.601563 162.171875 73.273438 161.902344 74.101563 161.902344 C 74.925781 161.902344 75.601563 162.171875 75.601563 162.503906 C 75.601563 162.832031 74.925781 163.101563 74.101563 163.101563 C 73.273438 163.101563 72.601563 162.832031 72.601563 162.503906 Z M 73.957031 160.273438 C 74.871094 160.132813 76.21875 160.136719 76.957031 160.28125 C 77.695313 160.421875 76.949219 160.535156 75.300781 160.53125 C 73.648438 160.527344 73.046875 160.410156 73.957031 160.273438 Z M 68.917969 82.21875 C 67.957031 81.542969 67.800781 80.613281 67.800781 75.542969 C 67.800781 66.570313 65.722656 62.355469 59.699219 59.101563 C 57.433594 57.875 56.40625 57.792969 41.101563 57.648438 C 32.191406 57.5625 24.296875 57.355469 23.5625 57.1875 C 22.324219 56.90625 20.398438 54.195313 20.398438 52.730469 C 20.398438 52.296875 45.0625 52.101563 100.800781 52.101563 C 156.535156 52.101563 181.199219 52.296875 181.199219 52.730469 C 181.199219 54.199219 179.277344 56.90625 178.039063 57.183594 C 177.300781 57.347656 169.410156 57.554688 160.5 57.640625 C 145.199219 57.792969 144.167969 57.875 141.898438 59.101563 C 135.886719 62.351563 133.800781 66.574219 133.800781 75.503906 C 133.800781 79.992188 133.589844 81.53125 132.894531 82.109375 C 131.539063 83.234375 70.515625 83.335938 68.917969 82.21875 Z M 107.398438 70.703125 C 108.394531 69.707031 108.597656 68.710938 108.59375 64.851563 C 108.585938 62.292969 108.429688 59.628906 108.242188 58.925781 C 107.738281 57.050781 105.507813 56.300781 100.445313 56.300781 C 96.46875 56.300781 95.773438 56.472656 94.472656 57.773438 C 93.140625 59.109375 93 59.730469 93 64.375 C 93 71.40625 93.511719 71.902344 100.800781 71.902344 C 105.398438 71.902344 106.378906 71.722656 107.398438 70.703125 Z M 97.382813 68.664063 C 95.046875 66.699219 94.535156 64.699219 95.667969 61.984375 C 96.921875 58.988281 99.945313 57.730469 102.921875 58.972656 C 105.328125 59.980469 107.054688 63.183594 106.460938 65.550781 C 105.941406 67.613281 103.703125 69.496094 101.304688 69.886719 C 99.652344 70.152344 98.859375 69.90625 97.382813 68.664063 Z M 104.210938 67.597656 C 107.214844 64.777344 104.964844 59.300781 100.800781 59.300781 C 96.703125 59.300781 94.484375 64.511719 97.304688 67.511719 C 99.027344 69.34375 102.308594 69.386719 104.210938 67.597656 Z M 27.601563 45.320313 C 27.601563 41.988281 28.371094 41.300781 32.101563 41.300781 C 35.832031 41.300781 36.601563 41.988281 36.601563 45.320313 L 36.601563 47.902344 L 27.601563 47.902344 Z M 165 45.277344 C 165 42.085938 165.71875 41.414063 169.328125 41.226563 C 172.960938 41.039063 174 41.9375 174 45.277344 L 174 47.902344 L 165 47.902344 Z M 10.800781 41.558594 C 9.976563 41.421875 7.410156 40.996094 5.101563 40.613281 L 0.898438 39.917969 L 2.800781 39.128906 C 6.316406 37.667969 15.125 36.957031 20.917969 37.660156 C 23.839844 38.015625 27.144531 38.625 28.253906 39.011719 L 30.277344 39.714844 L 26.988281 40.464844 C 23.4375 41.273438 13.238281 41.960938 10.800781 41.558594 Z M 42 41.269531 C 39.855469 40.96875 37.15625 40.5 36 40.230469 L 33.898438 39.738281 L 35.933594 39.023438 C 40.144531 37.539063 48.523438 36.945313 54.53125 37.699219 C 57.664063 38.09375 60.917969 38.703125 61.761719 39.050781 C 63.21875 39.652344 63.125 39.726563 60 40.464844 C 55.472656 41.535156 46.703125 41.929688 42 41.269531 Z M 146.078125 41.308594 C 144.085938 41.03125 141.519531 40.546875 140.378906 40.230469 L 138.300781 39.660156 L 139.851563 39.03125 C 140.707031 38.6875 144.042969 38.089844 147.265625 37.707031 C 153.332031 36.980469 160.960938 37.53125 165.601563 39.027344 L 167.699219 39.703125 L 164.398438 40.457031 C 159.898438 41.488281 150.480469 41.925781 146.078125 41.308594 Z M 181.800781 41.621094 C 181.304688 41.5 178.742188 41.058594 176.109375 40.640625 C 171.371094 39.890625 171.335938 39.875 173.207031 39.109375 C 176.023438 37.964844 185.722656 36.933594 189.550781 37.375 C 194.605469 37.960938 199.796875 39.007813 200.101563 39.507813 C 200.714844 40.5 184.734375 42.34375 181.800781 41.621094 Z M 181.800781 41.621094 "
       style=" stroke:none;fill-rule:nonzero;fill:rgb(33.724976%,36.862183%,63.920593%);fill-opacity:1;" />
    <path
       id="path104"
       d="M 94.199219 70.703125 C 93.1875 69.6875 93 68.703125 93 64.375 C 93 59.730469 93.140625 59.109375 94.472656 57.773438 C 95.773438 56.472656 96.46875 56.300781 100.445313 56.300781 C 105.507813 56.300781 107.738281 57.050781 108.242188 58.925781 C 108.429688 59.628906 108.585938 62.292969 108.59375 64.851563 C 108.601563 71.34375 107.988281 71.902344 100.800781 71.902344 C 96.199219 71.902344 95.222656 71.722656 94.199219 70.703125 Z M 104.734375 68.269531 C 106.601563 66.515625 106.984375 64.507813 105.933594 61.984375 C 104.679688 58.988281 101.652344 57.730469 98.679688 58.972656 C 97.222656 59.582031 96.277344 60.527344 95.667969 61.984375 C 94.535156 64.699219 95.046875 66.699219 97.382813 68.664063 C 99.574219 70.507813 102.519531 70.351563 104.734375 68.269531 Z M 104.734375 68.269531 "
       style=" stroke:none;fill-rule:nonzero;fill:rgb(8.235168%,9.01947%,14.509583%);fill-opacity:1;" />
  </g>
</svg>
