<?xml version="1.0" encoding="UTF-8" standalone="no"?>
<svg
   xmlns:dc="http://purl.org/dc/elements/1.1/"
   xmlns:cc="http://creativecommons.org/ns#"
   xmlns:rdf="http://www.w3.org/1999/02/22-rdf-syntax-ns#"
   xmlns:svg="http://www.w3.org/2000/svg"
   xmlns="http://www.w3.org/2000/svg"
   xmlns:sodipodi="http://sodipodi.sourceforge.net/DTD/sodipodi-0.dtd"
   xmlns:inkscape="http://www.inkscape.org/namespaces/inkscape"
   inkscape:version="1.0 (4035a4fb49, 2020-05-01)"
   sodipodi:docname="drone.svg"
   viewBox="0 0 1348.5002 426.02856"
   height="426.02856"
   width="1348.5002"
   xml:space="preserve"
   id="svg100678"
   version="1.1"><metadata
     id="metadata100684"><rdf:RDF><cc:Work
         rdf:about=""><dc:format>image/svg+xml</dc:format><dc:type
           rdf:resource="http://purl.org/dc/dcmitype/StillImage" /><dc:title></dc:title></cc:Work></rdf:RDF></metadata><defs
     id="defs100682" /><sodipodi:namedview
     inkscape:current-layer="g100686"
     inkscape:window-maximized="1"
     inkscape:window-y="-9"
     inkscape:window-x="-9"
     inkscape:cy="213.01428"
     inkscape:cx="674.25012"
     inkscape:zoom="1.1501666"
     showgrid="false"
     id="namedview100680"
     inkscape:window-height="1001"
     inkscape:window-width="1920"
     inkscape:pageshadow="2"
     inkscape:pageopacity="0"
     guidetolerance="10"
     gridtolerance="10"
     objecttolerance="10"
     borderopacity="1"
     bordercolor="#666666"
     pagecolor="#ffffff" /><g
     transform="matrix(1.3333333,0,0,1.3333333,0,6.6507142e-6)"
     inkscape:label="download"
     inkscape:groupmode="layer"
     id="g100686"><g
       id="g100688"><path
         id="path100690"
         style="fill:#000000;fill-opacity:1;fill-rule:nonzero;stroke:none"
         d="m 283.266,319.063 c -0.371,-0.598 0.339,-3.426 2.906,-11.536 0.781,-2.476 2.269,-7.336 3.301,-10.8 1.035,-3.465 2.117,-6.977 2.406,-7.801 0.289,-0.824 1.379,-4.336 2.422,-7.801 1.047,-3.465 2.668,-8.727 3.609,-11.699 1.531,-4.852 6.125,-19.903 8.969,-29.399 0.594,-1.98 3.008,-9.812 5.367,-17.402 3.922,-12.613 5.82,-18.773 9.145,-29.699 0.656,-2.145 1.964,-6.328 2.914,-9.301 9.027,-28.285 12.406,-46.012 10.125,-53.16 -2,-6.262 -6.157,-11.184 -11.95,-14.149 l -3.3,-1.691 -10.5,0.098 c -5.778,0.054 -15.903,0.398 -22.5,0.765 -21.594,1.196 -60.114,3.039 -63.543,3.039 h -3.36 v -10.464 c 0,-5.758 0.215,-10.598 0.473,-10.758 0.262,-0.16 3.434,-0.739 7.051,-1.285 3.617,-0.547 8.062,-1.223 9.879,-1.5 8.351,-1.286 26.148,-3.961 37.5,-5.641 11.383,-1.684 22.535,-3.363 34.199,-5.141 4.289,-0.656 10.637,-1.601 14.101,-2.105 3.465,-0.504 7.918,-1.184 9.899,-1.512 1.98,-0.328 15.48,-2.351 30,-4.496 14.519,-2.145 28.086,-4.168 30.148,-4.5 2.063,-0.328 5.508,-0.867 7.653,-1.199 2.144,-0.328 5.652,-0.871 7.8,-1.199 2.145,-0.329 5.586,-0.868 7.649,-1.196 2.062,-0.328 6.719,-1.023 10.351,-1.547 3.629,-0.519 11.055,-1.613 16.5,-2.429 5.446,-0.813 12.965,-1.887 16.711,-2.383 l 6.813,-0.902 85.375,0.421 11.699,1.911 c 16.07,2.625 18.641,3.039 22.949,3.707 8.692,1.347 19.477,3.07 21.153,3.379 0.988,0.183 3.418,0.57 5.398,0.859 1.981,0.289 5.223,0.785 7.199,1.101 6.254,1.004 46.629,7.348 50.703,7.969 2.145,0.328 5.383,0.836 7.2,1.133 1.812,0.293 4.918,0.793 6.898,1.105 1.981,0.317 7.246,1.157 11.699,1.872 4.457,0.714 9.586,1.523 11.403,1.8 6.773,1.036 27.558,4.278 34.8,5.43 4.125,0.656 9.118,1.449 11.098,1.762 1.981,0.316 7.11,1.129 11.402,1.808 4.29,0.68 9.555,1.508 11.7,1.84 2.144,0.332 5.383,0.856 7.199,1.16 1.816,0.305 4.312,0.711 5.551,0.903 l 2.25,0.351 v 20.344 H 789 c -2.535,0 -48.09,-2.168 -76.949,-3.66 -15.852,-0.82 -18.598,-0.656 -23.078,1.394 -6.633,3.039 -11.071,8.637 -12.547,15.832 l -0.75,3.664 1.012,7.606 c 1.332,9.988 3.574,18.473 12.703,48.066 4.175,13.528 7.984,25.95 8.468,27.598 0.485,1.652 1.118,3.676 1.411,4.5 0.293,0.828 1.343,4.203 2.335,7.5 1.633,5.441 8.504,27.824 14.454,47.102 1.273,4.125 3.847,12.496 5.722,18.601 1.871,6.102 4.157,13.481 5.082,16.395 l 1.676,5.297 -0.91,0.347 c -1.684,0.645 -10.141,-0.859 -13.516,-2.402 -4.187,-1.918 -8.156,-5.531 -10.168,-9.266 -1.289,-2.39 -5.156,-13.789 -7.078,-20.871 -0.269,-0.992 -1.027,-3.555 -1.687,-5.703 -0.66,-2.145 -2.282,-7.543 -3.602,-12 -1.32,-4.453 -3.398,-11.34 -4.609,-15.297 -2.879,-9.379 -4.203,-13.754 -6.274,-20.703 -1.582,-5.301 -8.191,-27.098 -10.922,-36 -0.656,-2.145 -1.414,-4.707 -1.683,-5.699 -0.27,-0.988 -2.242,-7.606 -4.387,-14.699 -5.98,-19.789 -8.215,-30.805 -8.23,-40.551 -0.012,-8.305 -2.266,-13.969 -7.469,-18.762 -3.586,-3.309 -7.285,-4.844 -13.219,-5.496 -7.191,-0.789 -33.762,-1.953 -34.48,-1.508 -0.387,0.238 -0.629,3.742 -0.641,9.203 l -0.012,8.813 -1.14,2.512 c -0.684,1.503 -1.867,2.886 -2.957,3.449 l -1.817,0.941 -9.781,0.008 c -5.379,0.004 -10.113,0.223 -10.523,0.484 l -0.746,0.473 -0.153,38.965 -0.156,38.969 -7.09,0.191 c -4.051,0.109 -7.394,-0.063 -7.801,-0.398 -0.457,-0.379 -0.636,-1.997 -0.508,-4.54 l 0.2,-3.953 h 3.187 c 2.348,0 3.278,-0.25 3.547,-0.949 0.199,-0.523 0.363,-15.992 0.363,-34.379 v -33.433 l -1.437,-1.438 h -57.445 c -37.938,0 -57.571,0.203 -57.821,0.602 -0.269,0.437 -0.465,45.332 -0.297,69.148 0,0.246 1.489,0.449 3.301,0.449 h 3.301 v 9.036 l -7.649,-0.168 -7.652,-0.168 -0.152,-38.969 -0.156,-38.965 -0.747,-0.473 c -0.41,-0.261 -5.296,-0.48 -10.863,-0.484 l -10.121,-0.008 -4.66,-4.66 -0.008,-9.82 c -0.004,-5.403 -0.242,-10.184 -0.523,-10.629 l -0.512,-0.809 -8.027,0.379 c -19.606,0.922 -29.758,1.645 -31.43,2.231 -4.297,1.507 -7.188,3.355 -9.906,6.328 -4.211,4.605 -5.383,8.226 -5.993,18.504 -0.882,14.789 -2.382,21.457 -11.679,51.875 -2.875,9.406 -5.981,19.664 -6.903,22.8 -0.921,3.133 -3.496,11.641 -5.714,18.899 -2.223,7.262 -4.258,14.012 -4.524,15 -0.265,0.992 -1.062,3.691 -1.773,6 -0.711,2.312 -2.063,6.765 -3,9.902 -4.414,14.766 -12.008,39.602 -12.914,42.254 -1.368,3.984 -3.196,6.758 -6.418,9.723 -2.461,2.265 -3.813,3.058 -8.321,4.875 -2.289,0.925 -10.535,1.59 -10.968,0.883 z m 181.867,-82.188 c -0.906,-0.562 -2.055,-1.879 -2.551,-2.926 l -0.902,-1.902 v -22.41 l 0.004,-22.41 1.171,-1.922 c 0.645,-1.055 1.981,-2.34 2.969,-2.848 l 1.793,-0.93 h 75.102 l 1.976,0.828 c 1.09,0.454 2.567,1.571 3.282,2.481 l 1.3,1.652 v 46.098 l -0.91,1.762 c -0.5,0.965 -1.699,2.168 -2.668,2.668 l -1.761,0.91 -38.579,-0.016 -38.582,-0.015 z m 49.078,-7.582 c 6.969,-3.176 11.852,-9.957 12.637,-17.547 0.871,-8.391 -3.961,-16.933 -11.868,-20.988 l -3.203,-1.645 -5.097,-0.25 -5.102,-0.25 -3.598,1.356 c -2.433,0.918 -4.699,2.406 -7.007,4.609 -3.754,3.578 -5.348,6.453 -6.532,11.754 l -0.777,3.508 0.727,3.523 c 2.902,14.063 17.187,21.696 29.82,15.93 z m -11.535,-10.734 c -1.047,-0.317 -2.766,-1.469 -3.817,-2.555 -3.496,-3.606 -3.023,-10.211 0.946,-13.238 3.758,-2.868 9.261,-2.5 12.441,0.824 3.754,3.926 2.902,11.16 -1.629,13.879 -2.332,1.398 -5.5,1.832 -7.941,1.09 z m -364.86,-99.582 c -4.668,-1.5 -7.765,-7.813 -6.187,-12.598 0.781,-2.367 3.762,-5.356 6.351,-6.367 1.313,-0.512 10.688,-0.657 34.797,-0.543 l 33,0.156 v 19.801 l -33,0.094 c -21.703,0.058 -33.668,-0.125 -34.961,-0.543 z m 667.633,0.519 c -0.148,-0.144 -0.191,-4.746 -0.094,-10.219 l 0.18,-9.949 h 66.164 l 2.586,1.25 c 3.438,1.664 5.149,4.18 5.469,8.039 l 0.258,3.102 -1.25,2.441 c -0.692,1.356 -2.254,3.074 -3.516,3.856 l -2.266,1.41 -33.632,0.168 c -18.496,0.094 -33.754,0.051 -33.899,-0.098 z M 160.48,88.848 v -6.321 h 6.235 c 4.473,0 6.297,0.211 6.449,0.75 0.117,0.411 0.215,3.18 0.215,6.149 v 5.402 l -6.449,0.168 -6.45,0.172 z m 677.399,-0.02 V 82.527 H 850.48 V 95.125 H 837.879 Z M 150.688,75.535 c -0.223,-0.222 -0.411,-1.969 -0.411,-3.875 0,-1.902 -0.199,-3.586 -0.449,-3.734 -0.246,-0.149 -5.445,0.117 -11.551,0.586 L 127.18,69.371 110.078,68.734 C 77.828,67.531 32.375,65.73 18.984,65.129 L 5.59,64.523 2.793,62.598 0,60.676 2.09,60.25 c 1.148,-0.234 5.734,-0.738 10.187,-1.113 9.493,-0.805 18.465,-1.582 27.453,-2.387 3.547,-0.316 9.688,-0.859 13.649,-1.211 3.961,-0.351 10.035,-0.891 13.5,-1.199 3.465,-0.309 9.539,-0.836 13.5,-1.172 3.961,-0.336 13.449,-1.168 21.09,-1.844 l 13.89,-1.234 16.11,4.164 c 8.859,2.293 16.711,4.355 17.441,4.586 l 1.332,0.418 0.336,-15.43 h 32.402 l 0.18,3.598 c 0.102,1.98 0.371,3.781 0.602,4 0.23,0.219 5.547,0.012 11.816,-0.465 l 11.402,-0.867 31.5,1.234 c 17.325,0.68 38.922,1.492 48,1.805 9.075,0.312 17.715,0.699 19.2,0.863 1.484,0.16 6.941,0.34 12.129,0.395 l 9.433,0.097 3,1.871 c 1.653,1.028 3.012,2.059 3.02,2.289 0.023,0.567 -2.317,0.887 -12.282,1.676 -4.621,0.367 -10.964,0.914 -14.101,1.219 -3.137,0.305 -9.074,0.84 -13.199,1.187 -4.125,0.352 -10.336,0.907 -13.801,1.231 -8.801,0.824 -37.723,3.352 -51,4.457 l -11.102,0.926 -16.199,-4.242 c -8.91,-2.336 -16.605,-4.297 -17.098,-4.36 l -0.902,-0.117 -0.301,7.5 -0.297,7.5 -15.941,0.16 c -8.769,0.09 -16.125,-0.023 -16.351,-0.25 z m 677.39,-0.008 c -0.219,-0.222 -0.398,-3.757 -0.398,-7.863 v -7.465 l -1.039,0.399 c -1.403,0.539 -7.161,2.058 -21.668,5.726 l -12.207,3.086 -3.696,-0.355 c -2.031,-0.192 -14.492,-1.285 -27.691,-2.426 -13.199,-1.141 -26.836,-2.34 -30.301,-2.664 -3.465,-0.32 -9.539,-0.871 -13.5,-1.227 -3.961,-0.351 -10.035,-0.89 -13.5,-1.203 -3.465,-0.308 -10.078,-0.863 -14.699,-1.23 -4.621,-0.364 -9.172,-0.848 -10.117,-1.071 l -1.719,-0.406 2.914,-2.094 2.91,-2.089 13.207,-0.418 c 7.262,-0.231 20.496,-0.707 29.406,-1.059 37.711,-1.492 47.004,-1.863 61.891,-2.465 14.695,-0.594 26.242,-0.285 36.356,0.981 l 2.847,0.355 0.344,-0.894 c 0.187,-0.493 0.391,-2.34 0.453,-4.106 l 0.109,-3.211 h 32.399 l 0.601,15 0.899,-0.101 c 0.496,-0.055 2.387,-0.508 4.199,-1.004 1.817,-0.496 9.172,-2.414 16.352,-4.266 l 13.05,-3.359 13.95,1.215 c 7.672,0.667 17.054,1.492 20.847,1.832 3.797,0.339 10.008,0.882 13.801,1.21 3.797,0.329 9.735,0.848 13.199,1.161 3.465,0.308 9.543,0.839 13.5,1.183 3.961,0.34 10.172,0.887 13.801,1.211 3.629,0.324 9.84,0.863 13.801,1.195 3.961,0.329 8.504,0.77 10.098,0.973 l 2.898,0.375 -3.082,2.074 -3.082,2.078 -43.316,1.735 c -23.825,0.953 -50.852,2.027 -60.063,2.39 -12.398,0.485 -19.254,0.477 -26.398,-0.031 -5.313,-0.379 -10.735,-0.73 -12.055,-0.781 l -2.399,-0.09 -0.179,4.047 -0.176,4.051 h -16.074 c -8.84,0 -16.25,-0.18 -16.473,-0.399 z M 414.277,51.504 c -2.879,-1.055 -5.398,-4.977 -5.394,-8.399 0.004,-3.011 1.008,-4.792 4.551,-8.097 14.293,-13.317 33.191,-23.949 53.101,-29.871 5.848,-1.739 8.192,-2.274 18.844,-4.309 5.785,-1.105 34.414,-1.105 40.199,0 7.102,1.356 12.504,2.477 14.699,3.051 10.899,2.848 23.86,8.125 33.371,13.586 9.489,5.445 25.09,17.473 27.379,21.101 2.496,3.965 0.657,10.454 -3.539,12.457 l -1.89,0.903 -90.211,-0.047 c -49.614,-0.027 -90.614,-0.195 -91.11,-0.375 z m -261,-15.703 c 0,-3.473 3.852,-8.242 8.075,-10.004 3.332,-1.387 8.566,-1.281 11.539,0.234 3.922,2 7.386,6.571 7.386,9.735 v 1.16 h -27 z m 677.59,0.742 c -0.972,-0.398 1.168,-5.359 3.301,-7.645 5.437,-5.832 16.137,-5.335 21.105,0.985 1.606,2.043 3.141,5.738 2.688,6.469 -0.356,0.578 -25.707,0.753 -27.094,0.191 z" /></g></g></svg>
