<?xml version="1.0" encoding="UTF-8" standalone="no"?>
<svg
   xmlns:dc="http://purl.org/dc/elements/1.1/"
   xmlns:cc="http://creativecommons.org/ns#"
   xmlns:rdf="http://www.w3.org/1999/02/22-rdf-syntax-ns#"
   xmlns:svg="http://www.w3.org/2000/svg"
   xmlns="http://www.w3.org/2000/svg"
   xmlns:sodipodi="http://sodipodi.sourceforge.net/DTD/sodipodi-0.dtd"
   xmlns:inkscape="http://www.inkscape.org/namespaces/inkscape"
   inkscape:version="1.0 (4035a4fb49, 2020-05-01)"
   sodipodi:docname="drone2.svg"
   id="svg34"
   version="1.2"
   viewBox="0 0 115.163773 115.259209"
   height="115.259209pt"
   width="115.163773pt">
  <metadata
     id="metadata38">
    <rdf:RDF>
      <cc:Work
         rdf:about="">
        <dc:format>image/svg+xml</dc:format>
        <dc:type
           rdf:resource="http://purl.org/dc/dcmitype/StillImage" />
        <dc:title></dc:title>
      </cc:Work>
    </rdf:RDF>
  </metadata>
  <sodipodi:namedview
     inkscape:current-layer="svg34"
     inkscape:window-maximized="0"
     inkscape:window-y="0"
     inkscape:window-x="0"
     inkscape:cy="76.839472"
     inkscape:cx="76.775848"
     inkscape:zoom="5.40087"
     showgrid="false"
     id="namedview36"
     inkscape:window-height="480"
     inkscape:window-width="821"
     inkscape:pageshadow="2"
     inkscape:pageopacity="0"
     guidetolerance="10"
     gridtolerance="10"
     objecttolerance="10"
     borderopacity="1"
     bordercolor="#666666"
     pagecolor="#ffffff" />
  <defs
     id="defs27">
    <clipPath
       id="clip1">
      <path
         id="path24"
         d="M 0 0 L 115.164063 0 L 115.164063 115.257813 L 0 115.257813 Z M 0 0 " />
    </clipPath>
  </defs>
  <g
     id="surface80930">
    <g
       id="g31"
       clip-rule="nonzero"
       clip-path="url(#clip1)">
      <path
         id="path29"
         d="M 18.59375 115.003906 C 12.402344 113.800781 7.160156 110.328125 3.707031 105.140625 C 1.136719 101.277344 0.0078125 97.507813 0 92.746094 C -0.0117188 86.570313 1.972656 81.578125 6.195313 77.136719 C 9.292969 73.882813 12.746094 71.824219 17.035156 70.675781 C 19.925781 69.902344 25.148438 69.890625 27.996094 70.65625 C 30.246094 71.257813 32.15625 72.027344 32.15625 72.332031 C 32.15625 72.546875 30.449219 75.074219 29.828125 75.78125 C 29.5 76.15625 29.390625 76.152344 28.203125 75.746094 C 23.355469 74.074219 17.929688 74.695313 13.257813 77.457031 C 11.304688 78.609375 8.410156 81.550781 7.242188 83.566406 C 6.699219 84.503906 5.957031 86.121094 5.59375 87.164063 C 4.988281 88.902344 4.929688 89.359375 4.925781 92.660156 C 4.917969 95.996094 4.96875 96.402344 5.589844 98.179688 C 6.574219 100.988281 7.980469 103.214844 10.0625 105.261719 C 13.855469 108.984375 18.578125 110.792969 23.636719 110.457031 C 28.167969 110.152344 31.851563 108.476563 35.035156 105.273438 C 37.332031 102.960938 38.398438 101.308594 39.425781 98.460938 C 40.023438 96.804688 40.152344 96.035156 40.25 93.5 C 40.363281 90.585938 40.152344 89.066406 39.234375 86.144531 C 39.09375 85.703125 39.347656 85.429688 40.953125 84.289063 C 41.988281 83.558594 42.902344 82.953125 42.988281 82.949219 C 43.230469 82.9375 44.386719 86.242188 44.792969 88.09375 C 45.277344 90.328125 45.277344 95.035156 44.792969 97.238281 C 42.945313 105.632813 36.398438 112.480469 28.160156 114.640625 C 25.726563 115.28125 20.953125 115.460938 18.59375 115.003906 Z M 88.636719 115 C 80.195313 113.390625 73.523438 107.492188 70.964844 99.378906 C 69.515625 94.78125 69.585938 90.203125 71.175781 85.339844 C 72.070313 82.605469 71.914063 82.660156 74.148438 84.269531 C 75.78125 85.445313 76.078125 85.761719 75.945313 86.171875 C 75.082031 88.808594 74.839844 90.214844 74.835938 92.660156 C 74.828125 97.382813 76.355469 101.300781 79.53125 104.710938 C 81.976563 107.335938 84.636719 108.96875 88.074219 109.949219 C 90.1875 110.554688 94.769531 110.578125 96.953125 109.996094 C 104.859375 107.882813 110.386719 100.773438 110.394531 92.707031 C 110.394531 89.90625 109.859375 87.605469 108.59375 84.980469 C 106.28125 80.191406 102.402344 76.917969 97.304688 75.460938 C 94.507813 74.660156 90.152344 74.707031 87.535156 75.5625 L 85.675781 76.167969 L 84.992188 75.296875 C 83.671875 73.609375 82.953125 72.363281 83.175781 72.144531 C 83.636719 71.683594 86.75 70.679688 88.863281 70.3125 C 95.773438 69.105469 103.082031 71.375 108.199219 76.316406 C 111.210938 79.222656 113.144531 82.390625 114.402344 86.472656 C 114.996094 88.414063 115.050781 88.90625 115.050781 92.660156 C 115.050781 96.414063 114.996094 96.910156 114.402344 98.851563 C 113.140625 102.9375 111.203125 106.117188 108.199219 108.996094 C 103.945313 113.078125 99.277344 115.042969 93.355469 115.234375 C 91.417969 115.296875 89.746094 115.214844 88.636719 115 Z M 20.960938 100.941406 C 17.90625 100.308594 15.289063 97.859375 14.503906 94.90625 C 13.726563 91.988281 14.398438 89.261719 16.433594 87.0625 C 18.222656 85.132813 19.988281 84.339844 22.511719 84.335938 C 23.527344 84.335938 24.640625 84.445313 24.988281 84.582031 C 25.589844 84.816406 25.800781 84.644531 29.4375 80.945313 C 33.34375 76.972656 34.699219 75.195313 36.417969 71.769531 C 38.632813 67.367188 39.664063 62.878906 39.667969 57.621094 C 39.675781 52.371094 38.714844 48.28125 36.335938 43.460938 C 34.65625 40.046875 32.6875 37.472656 28.84375 33.65625 L 25.742188 30.574219 L 24.339844 30.863281 C 22.472656 31.25 20.65625 31.007813 18.808594 30.128906 C 17.097656 29.3125 15.910156 28.066406 14.925781 26.066406 C 14.359375 24.914063 14.277344 24.457031 14.285156 22.582031 C 14.292969 20.644531 14.375 20.269531 15.042969 18.972656 C 15.910156 17.289063 17.554688 15.679688 19.152344 14.941406 C 20.765625 14.195313 24.347656 14.195313 25.96875 14.945313 C 27.542969 15.671875 29.390625 17.476563 30.148438 19.03125 C 30.914063 20.59375 31.183594 23.320313 30.710938 24.746094 L 30.410156 25.660156 L 34.222656 29.429688 C 38.296875 33.453125 40.3125 34.957031 44.035156 36.738281 C 48.332031 38.792969 52.605469 39.742188 57.59375 39.742188 C 61.257813 39.742188 64.3125 39.257813 67.648438 38.15625 C 72.832031 36.441406 76.246094 34.191406 81.171875 29.25 L 84.710938 25.699219 L 84.445313 24.742188 C 84.058594 23.347656 84.304688 20.644531 84.949219 19.160156 C 85.683594 17.46875 87.835938 15.476563 89.6875 14.777344 C 90.8125 14.351563 91.433594 14.273438 92.996094 14.355469 C 95.316406 14.476563 96.609375 15.007813 98.296875 16.53125 C 100.019531 18.089844 100.882813 20.054688 100.898438 22.460938 C 100.914063 24.820313 100.539063 25.980469 99.167969 27.78125 C 97.21875 30.34375 94.113281 31.5 90.894531 30.867188 L 89.414063 30.578125 L 85.777344 34.257813 C 81.078125 39.015625 78.84375 42.394531 77.164063 47.28125 C 74.496094 55.054688 74.964844 63.726563 78.453125 71.066406 C 80.296875 74.953125 81.625 76.75 85.75 80.945313 C 89.390625 84.644531 89.601563 84.816406 90.203125 84.582031 C 90.550781 84.445313 91.667969 84.335938 92.6875 84.335938 C 94.144531 84.339844 94.816406 84.464844 95.835938 84.933594 C 101.261719 87.414063 102.703125 93.996094 98.753906 98.257813 C 96.964844 100.191406 95.152344 101.007813 92.652344 101 C 88.941406 100.992188 86.226563 99.152344 84.796875 95.679688 C 84.179688 94.183594 84.046875 91.714844 84.507813 90.390625 L 84.777344 89.613281 L 81.6875 86.5 C 78.046875 82.835938 75.453125 80.808594 72.269531 79.140625 C 67.453125 76.625 63.332031 75.636719 57.59375 75.628906 C 53.25 75.621094 51.234375 75.933594 47.445313 77.195313 C 42.378906 78.882813 39.042969 81.070313 34.109375 85.933594 L 30.425781 89.566406 L 30.6875 90.511719 C 31.804688 94.53125 29.519531 98.976563 25.550781 100.519531 C 24.289063 101.007813 22.207031 101.199219 20.960938 100.941406 Z M 18.234375 44.917969 C 17.375 44.738281 15.878906 44.3125 14.90625 43.96875 C 8.234375 41.632813 2.695313 35.675781 0.703125 28.699219 C 0.0507813 26.402344 -0.191406 21.53125 0.222656 18.957031 C 1.226563 12.734375 4.976563 7.058594 10.398438 3.550781 C 16.539063 -0.421875 24.582031 -1.089844 31.457031 1.796875 C 34.867188 3.230469 38.695313 6.328125 41.066406 9.574219 C 42.199219 11.128906 43.855469 14.566406 44.378906 16.464844 C 45.441406 20.296875 45.496094 24.535156 44.53125 28.238281 C 44.074219 29.988281 43.199219 32.300781 42.996094 32.300781 C 42.792969 32.300781 40.699219 30.875 39.753906 30.089844 L 39.074219 29.527344 L 39.613281 27.976563 C 40.011719 26.816406 40.179688 25.683594 40.261719 23.527344 C 40.394531 20.015625 39.976563 17.699219 38.757813 15.164063 C 35.378906 8.136719 28.1875 4.085938 20.609375 4.945313 C 8.195313 6.351563 1.113281 19.585938 6.753906 30.828125 C 8.714844 34.730469 12.550781 38.011719 16.988281 39.585938 C 18.933594 40.277344 19.300781 40.328125 22.433594 40.335938 C 25.316406 40.339844 26.058594 40.257813 27.660156 39.765625 C 28.683594 39.449219 29.5625 39.230469 29.609375 39.285156 C 30.253906 39.996094 32.15625 42.761719 32.15625 42.984375 C 32.15625 43.300781 30.3125 44.046875 27.953125 44.683594 C 25.988281 45.214844 20.304688 45.351563 18.234375 44.917969 Z M 89.394531 45.109375 C 86.882813 44.617188 86.058594 44.402344 84.65625 43.882813 C 83.765625 43.554688 83.035156 43.152344 83.035156 42.988281 C 83.035156 42.5625 85.464844 39.261719 85.773438 39.265625 C 85.917969 39.265625 86.738281 39.492188 87.59375 39.765625 C 89.585938 40.398438 93.417969 40.625 95.652344 40.234375 C 99.328125 39.597656 103.03125 37.554688 105.640625 34.71875 C 108.691406 31.410156 110.144531 27.945313 110.339844 23.515625 C 110.492188 20.132813 110.023438 17.851563 108.582031 14.902344 C 106.746094 11.15625 104.039063 8.414063 100.433594 6.65625 C 93.835938 3.4375 85.945313 4.582031 80.523438 9.535156 C 77.265625 12.511719 75.3125 16.53125 74.769531 21.382813 C 74.59375 22.957031 75.015625 26.265625 75.628906 28.082031 L 76.117188 29.527344 L 75.4375 30.089844 C 74.511719 30.855469 72.398438 32.300781 72.207031 32.300781 C 71.964844 32.300781 71.089844 29.980469 70.535156 27.859375 C 69.886719 25.402344 69.816406 20.542969 70.390625 17.992188 C 70.890625 15.773438 71.824219 13.3125 72.71875 11.855469 C 73.113281 11.214844 73.433594 10.632813 73.433594 10.558594 C 73.433594 10.304688 76.429688 6.757813 77.324219 5.949219 C 80.972656 2.648438 85.203125 0.726563 90.089844 0.144531 C 95.328125 -0.480469 101.035156 0.957031 105.582031 4.042969 C 107.136719 5.101563 110.140625 8.167969 111.28125 9.859375 C 113.917969 13.785156 114.964844 17.042969 115.125 21.859375 C 115.21875 24.640625 115.15625 25.59375 114.757813 27.378906 C 112.746094 36.410156 105.78125 43.195313 96.753906 44.921875 C 95.160156 45.230469 90.585938 45.34375 89.394531 45.109375 Z M 89.394531 45.109375 "
         style=" stroke:none;fill-rule:nonzero;fill:rgb(0%,0%,0%);fill-opacity:1;" />
    </g>
  </g>
</svg>
