<?xml version="1.0" encoding="UTF-8" standalone="no"?>
<svg
   xmlns:dc="http://purl.org/dc/elements/1.1/"
   xmlns:cc="http://creativecommons.org/ns#"
   xmlns:rdf="http://www.w3.org/1999/02/22-rdf-syntax-ns#"
   xmlns:svg="http://www.w3.org/2000/svg"
   xmlns="http://www.w3.org/2000/svg"
   xmlns:sodipodi="http://sodipodi.sourceforge.net/DTD/sodipodi-0.dtd"
   xmlns:inkscape="http://www.inkscape.org/namespaces/inkscape"
   inkscape:version="1.0 (4035a4fb49, 2020-05-01)"
   sodipodi:docname="GPS.svg"
   viewBox="0 0 1086.7008 878.22345"
   height="878.22345"
   width="1086.7008"
   xml:space="preserve"
   id="svg24"
   version="1.1"><metadata
     id="metadata30"><rdf:RDF><cc:Work
         rdf:about=""><dc:format>image/svg+xml</dc:format><dc:type
           rdf:resource="http://purl.org/dc/dcmitype/StillImage" /><dc:title></dc:title></cc:Work></rdf:RDF></metadata><defs
     id="defs28" /><sodipodi:namedview
     inkscape:current-layer="g32"
     inkscape:window-maximized="1"
     inkscape:window-y="-9"
     inkscape:window-x="-9"
     inkscape:cy="439.11172"
     inkscape:cx="543.3504"
     inkscape:zoom="0.94508977"
     showgrid="false"
     id="namedview26"
     inkscape:window-height="1001"
     inkscape:window-width="1920"
     inkscape:pageshadow="2"
     inkscape:pageopacity="0"
     guidetolerance="10"
     gridtolerance="10"
     objecttolerance="10"
     borderopacity="1"
     bordercolor="#666666"
     pagecolor="#ffffff" /><g
     transform="matrix(1.3333333,0,0,1.3333333,0,2.128892e-5)"
     inkscape:label="GPS"
     inkscape:groupmode="layer"
     id="g32"><g
       id="g34"><path
         id="path36"
         style="fill:#000000;fill-opacity:1;fill-rule:nonzero;stroke:none"
         d="M 71.262,658.496 C 71.07,658.305 57.078,658.137 40.164,658.125 5.355,658.102 4.313,657.914 1.285,651.203 c -1.707,-3.785 -1.707,-4.219 -0.043,-8.816 0.965,-2.66 2.356,-6.207 3.094,-7.879 0.738,-1.676 2.129,-5.098 3.086,-7.606 0.957,-2.511 2.328,-5.933 3.043,-7.605 0.715,-1.676 2.082,-5.098 3.043,-7.606 0.957,-2.511 2.324,-5.933 3.039,-7.605 0.715,-1.676 2.086,-5.098 3.043,-7.606 0.957,-2.511 2.328,-5.933 3.043,-7.605 0.715,-1.676 2.082,-5.098 3.043,-7.605 0.957,-2.512 2.328,-5.934 3.043,-7.61 0.715,-1.672 2.082,-5.094 3.039,-7.605 0.961,-2.508 2.328,-5.93 3.043,-7.606 0.715,-1.672 2.086,-5.094 3.043,-7.605 0.957,-2.508 2.328,-5.93 3.043,-7.606 0.715,-1.672 2.082,-5.093 3.043,-7.605 0.957,-2.508 2.324,-5.93 3.039,-7.606 0.719,-1.672 2.086,-5.093 3.043,-7.605 0.961,-2.508 2.328,-5.93 3.043,-7.606 0.715,-1.671 2.086,-5.093 3.043,-7.605 0.957,-2.508 2.328,-5.934 3.043,-7.606 0.714,-1.671 2.082,-5.093 3.043,-7.605 0.957,-2.508 2.324,-5.934 3.039,-7.605 0.715,-1.672 2.086,-5.098 3.043,-7.606 0.961,-2.512 2.328,-5.934 3.043,-7.605 0.714,-1.672 2.086,-5.098 3.043,-7.606 0.957,-2.512 2.328,-5.933 3.043,-7.605 0.714,-1.676 2.082,-5.098 3.039,-7.606 0.961,-2.512 2.328,-5.933 3.043,-7.605 0.714,-1.676 2.086,-5.098 3.043,-7.606 0.957,-2.511 2.328,-5.933 3.043,-7.605 0.714,-1.676 2.082,-5.098 3.042,-7.606 0.958,-2.511 2.329,-5.933 3.043,-7.605 0.715,-1.676 2.082,-5.098 3.04,-7.606 5.265,-13.793 7.378,-17.703 10.578,-19.593 2.586,-1.528 7.617,-1.703 48.714,-1.703 41.375,0 46.11,0.167 48.754,1.73 3.028,1.785 6.008,6.797 6,10.082 -0.004,2.988 -3.816,8.43 -6.652,9.508 -1.531,0.582 -19.023,0.988 -42.469,0.988 -30.711,0 -40.082,0.293 -40.812,1.27 -0.52,0.695 -1.77,3.32 -2.778,5.828 -1.011,2.511 -2.214,5.476 -2.675,6.594 -0.461,1.113 -1.821,4.539 -3.024,7.605 -1.203,3.066 -2.574,6.488 -3.043,7.605 -0.472,1.114 -1.84,4.54 -3.043,7.606 -1.203,3.066 -2.57,6.488 -3.043,7.605 -0.468,1.118 -1.84,4.539 -3.043,7.606 -1.203,3.066 -2.57,6.488 -3.039,7.605 -0.472,1.118 -1.84,4.539 -3.043,7.606 -1.203,3.066 -2.574,6.492 -3.043,7.605 -0.472,1.117 -1.839,4.539 -3.043,7.606 -1.203,3.066 -2.57,6.492 -3.043,7.605 -0.468,1.117 -1.839,4.539 -3.043,7.606 -1.203,3.07 -2.57,6.492 -3.039,7.605 -0.472,1.117 -1.839,4.539 -3.043,7.606 -1.203,3.07 -2.574,6.492 -3.043,7.605 -0.468,1.117 -1.839,4.539 -3.043,7.606 -1.203,3.07 -2.57,6.492 -3.042,7.605 -0.469,1.117 -1.84,4.539 -3.04,7.609 -1.203,3.067 -2.574,6.489 -3.043,7.606 -0.472,1.113 -1.839,4.535 -3.042,7.605 -1.204,3.067 -2.575,6.489 -3.043,7.606 -0.469,1.113 -1.84,4.535 -3.043,7.605 -1.204,3.067 -2.571,6.489 -3.043,7.606 -0.469,1.113 -1.836,4.535 -3.039,7.605 -1.204,3.067 -2.575,6.488 -3.043,7.606 -0.473,1.113 -1.84,4.539 -3.043,7.605 -1.204,3.067 -2.571,6.488 -3.043,7.606 -0.469,1.113 -1.848,4.539 -3.059,7.605 -1.211,3.066 -2.797,6.945 -3.523,8.621 -0.727,1.672 -1.637,4.297 -2.02,5.828 -0.625,2.508 -0.426,2.789 1.949,2.789 1.457,0 2.649,0.411 2.649,0.907 0,0.5 0.746,1.191 1.664,1.543 1.39,0.535 1.453,0.386 0.383,-0.903 -1.133,-1.367 -0.204,-1.547 7.968,-1.547 5.493,0 9.25,0.414 9.25,1.016 0,0.559 1.114,1.012 2.477,1.012 1.359,0 2.758,-0.453 3.101,-1.012 0.883,-1.43 8.25,-1.262 10.661,0.242 1.605,1.004 2.425,1.004 4.031,0 2.422,-1.512 6.75,-1.648 7.617,-0.242 0.348,0.559 2.227,1.012 4.176,1.012 2.109,0 3.297,-0.41 2.926,-1.012 -0.418,-0.676 107.332,-1.016 322.476,-1.016 215.145,0 322.899,0.34 322.481,1.016 -0.368,0.59 0.644,1.012 2.414,1.012 1.672,0 3.324,-0.453 3.668,-1.012 0.82,-1.328 23.883,-1.332 27.375,0 1.765,0.672 2.449,0.672 2.031,0 -0.395,-0.645 2.715,-1.012 8.562,-1.012 7.325,0 9.188,-0.297 9.188,-1.461 0,-0.804 -0.457,-1.742 -1.016,-2.09 -0.554,-0.343 -1.011,-2.164 -1.011,-4.042 0,-1.879 -0.614,-4.028 -1.364,-4.778 -2.14,-2.14 -3.843,-5.797 -4.269,-9.156 -0.215,-1.699 -1.035,-3.828 -1.824,-4.727 -1.969,-2.25 -2.969,-5.902 -1.809,-6.621 1.398,-0.863 0.102,-4.851 -1.387,-4.277 -1.379,0.527 -2.316,-1.055 -5.625,-9.496 -2.523,-6.438 -7.89,-19.844 -9.133,-22.817 -0.871,-2.086 -3.73,-9.328 -7.203,-18.253 -2.164,-5.551 -2.882,-7.293 -5.312,-12.829 -0.895,-2.035 -1.625,-4.023 -1.625,-4.41 0,-0.39 -0.625,-2.144 -1.391,-3.902 -1.414,-3.238 -5.465,-13.195 -11,-27.027 -1.672,-4.184 -3.426,-8.52 -3.89,-9.633 -0.469,-1.117 -1.832,-4.539 -3.036,-7.606 -1.203,-3.07 -2.574,-6.492 -3.043,-7.605 -0.468,-1.117 -1.839,-4.539 -3.043,-7.61 -1.203,-3.066 -2.57,-6.488 -3.042,-7.605 -0.469,-1.113 -1.836,-4.535 -3.04,-7.606 -1.203,-3.066 -2.574,-6.488 -3.043,-7.605 -0.472,-1.113 -1.839,-4.535 -3.042,-7.605 -1.204,-3.067 -2.575,-6.489 -3.043,-7.606 -0.469,-1.113 -1.84,-4.535 -3.043,-7.605 -1.204,-3.067 -2.571,-6.489 -3.043,-7.606 -0.469,-1.113 -1.879,-4.539 -3.137,-7.605 -1.254,-3.067 -2.762,-5.914 -3.348,-6.321 -0.59,-0.41 -19.023,-0.754 -40.969,-0.761 -35.386,-0.016 -40.222,-0.207 -42.757,-1.703 -4.793,-2.833 -6.164,-7.801 -3.887,-14.086 2.391,-6.622 1.711,-6.539 53.457,-6.539 h 46.711 l 3.582,3.582 c 1.969,1.972 3.582,4.39 3.582,5.375 0,0.984 0.367,2.226 0.812,2.753 0.446,0.532 1.856,3.704 3.129,7.051 1.278,3.344 2.715,6.996 3.192,8.11 0.48,1.117 1.859,4.539 3.066,7.605 1.207,3.07 2.785,6.949 3.508,8.621 0.727,1.672 2.105,5.098 3.07,7.606 0.965,2.511 2.321,5.933 3.012,7.605 0.695,1.672 3.41,8.52 6.031,15.211 4.426,11.285 9.754,24.613 11.758,29.41 0.469,1.113 1.836,4.539 3.043,7.606 1.207,3.066 2.809,6.945 3.559,8.617 0.75,1.676 3.484,8.519 6.074,15.215 6.113,15.797 7.297,18.679 9.098,22.136 0.82,1.579 1.496,3.524 1.496,4.325 0,0.797 0.422,2.246 0.941,3.214 2.406,4.5 5.141,11.165 5.141,12.524 0,0.828 0.367,1.941 0.812,2.469 0.445,0.531 1.86,3.703 3.137,7.047 1.277,3.347 2.926,7.457 3.66,9.128 3.981,9.086 4.719,11.59 4.047,13.707 -0.445,1.411 -0.336,2.032 0.293,1.641 1.027,-0.637 6.305,9.402 6.305,12 0,0.789 0.457,1.715 1.015,2.059 0.555,0.347 1.012,2.656 1.012,5.133 0,3.367 0.394,4.503 1.555,4.503 0.855,0 1.808,0.797 2.125,1.774 0.316,0.976 1.171,3.144 1.902,4.816 0.734,1.672 2.113,5.098 3.066,7.606 2.028,5.328 2.664,6.906 5.485,13.566 2.91,6.871 2.699,10.633 -0.836,14.867 l -2.93,3.512 -28.164,0.301 c -25.312,0.269 -28.031,0.14 -26.859,-1.27 1.148,-1.386 0.566,-1.566 -5.032,-1.566 -5.515,0 -6.171,0.195 -5.07,1.519 1.102,1.329 0.356,1.524 -5.84,1.524 -4.015,0 -8.679,-0.664 -10.738,-1.524 -2,-0.836 -4.109,-1.519 -4.688,-1.519 -0.574,0 -1.046,0.683 -1.046,1.519 0,1.774 -2.688,2.071 -3.258,0.364 -0.289,-0.867 -0.93,-0.871 -2.528,-0.016 -1.574,0.844 -87.019,1.215 -323.277,1.414 -176.621,0.145 -321.289,0.11 -321.484,-0.082 z m 323.953,-124.68 c -9.352,-9.484 -26.082,-27.527 -33.492,-36.117 -1.348,-1.558 -3.36,-3.836 -4.477,-5.058 -1.117,-1.223 -4.308,-5.055 -7.098,-8.512 -2.789,-3.461 -5.414,-6.293 -5.832,-6.293 -0.418,0 -0.761,-0.465 -0.761,-1.027 0,-0.563 -1.11,-2.274 -2.469,-3.805 -1.359,-1.527 -5.742,-7.113 -9.742,-12.414 -4,-5.297 -7.68,-9.785 -8.176,-9.969 -0.5,-0.187 -0.906,-0.754 -0.906,-1.258 0,-0.504 -0.668,-1.722 -1.481,-2.703 -0.812,-0.984 -3.754,-4.98 -6.539,-8.887 -2.785,-3.902 -5.543,-7.648 -6.129,-8.32 -0.586,-0.676 -1.062,-1.523 -1.062,-1.883 0,-0.363 -1.371,-2.386 -3.043,-4.5 -1.676,-2.113 -3.043,-4.343 -3.043,-4.961 0,-0.617 -0.383,-1.125 -0.852,-1.125 -0.468,0 -1.386,-1.023 -2.039,-2.281 -0.652,-1.254 -1.98,-3.512 -2.953,-5.015 -0.969,-1.508 -4.484,-7.211 -7.812,-12.676 -3.329,-5.469 -6.293,-10.168 -6.594,-10.449 -0.297,-0.278 -1.59,-2.559 -2.875,-5.071 -1.281,-2.508 -3.293,-6.16 -4.465,-8.113 -2.66,-4.434 -18.043,-35.012 -18.043,-35.871 0,-0.344 -1.301,-3.481 -2.887,-6.969 -1.586,-3.488 -3.679,-8.394 -4.656,-10.906 -0.973,-2.508 -2.406,-5.93 -3.184,-7.606 -4.878,-10.519 -14.3,-43.808 -18.085,-63.886 -6.024,-31.981 -6.032,-68.813 -0.016,-93.043 6.644,-26.774 12.719,-42.825 22.555,-59.578 1.144,-1.95 3.039,-5.297 4.207,-7.438 4.062,-7.441 17.781,-24.562 27.386,-34.184 9.157,-9.171 17.957,-17.195 18.864,-17.195 0.226,0 3.043,-1.984 6.254,-4.414 3.214,-2.43 7.894,-5.609 10.406,-7.066 7.234,-4.203 24.687,-12.653 27.699,-13.407 1.508,-0.378 2.992,-1.093 3.301,-1.589 0.304,-0.497 1.426,-0.903 2.492,-0.903 1.062,0 3.43,-0.64 5.262,-1.426 4.492,-1.925 13.535,-4.168 24.949,-6.183 12.902,-2.278 43.223,-2.289 55.586,-0.016 19.504,3.586 43.793,11.723 53.105,17.793 0.836,0.547 2.481,1.41 3.653,1.922 3.886,1.695 21.699,13.531 21.699,14.418 0,0.481 0.648,0.871 1.437,0.871 0.789,0 1.59,0.344 1.774,0.762 0.187,0.418 3.305,3.25 6.93,6.289 8.156,6.844 15.066,13.93 24.316,24.945 3.566,4.246 17.262,24.699 17.262,25.778 0,0.496 0.57,1.503 1.269,2.238 1.586,1.68 7.113,13.14 11.899,24.664 5.48,13.211 11.211,36.316 12.832,51.719 0.175,1.675 0.757,5.757 1.297,9.078 0.968,5.969 -0.114,45.035 -1.336,48.219 -0.321,0.835 -1.047,5.171 -1.614,9.632 -2.156,17.012 -9.117,45.344 -13.773,56.063 -0.797,1.832 -1.449,4.203 -1.449,5.265 0,1.063 -0.418,2.196 -0.934,2.512 -0.516,0.317 -1.262,2.055 -1.656,3.86 -0.399,1.804 -1.422,4.878 -2.278,6.832 -1.949,4.449 -5.125,11.882 -6.5,15.214 -0.578,1.395 -1.675,3.747 -2.445,5.227 -0.769,1.48 -1.398,3.422 -1.398,4.313 0,0.89 -0.453,1.617 -1.012,1.617 -0.559,0 -1.02,0.57 -1.027,1.269 -0.016,2 -14.227,29.594 -20.235,39.293 -0.519,0.836 -1.867,3.219 -2.992,5.293 -1.125,2.074 -3.301,5.723 -4.836,8.113 -1.531,2.387 -3.715,5.95 -4.848,7.915 -1.136,1.968 -4.8,7.761 -8.148,12.878 -4.629,7.079 -6.629,9.317 -8.367,9.356 -1.895,0.043 -2.281,0.617 -2.281,3.41 0,1.957 -0.844,4.266 -2.028,5.535 -1.117,1.196 -2.027,2.442 -2.027,2.77 0,0.324 -0.465,1.144 -1.035,1.816 -0.567,0.672 -4.754,6.246 -9.305,12.379 -4.547,6.137 -8.543,11.383 -8.875,11.664 -0.336,0.277 -3.098,3.699 -6.137,7.606 -3.043,3.902 -5.785,7.324 -6.097,7.605 -0.309,0.277 -2.36,2.789 -4.555,5.578 -2.191,2.789 -4.687,5.801 -5.543,6.699 -0.852,0.895 -2.488,2.719 -3.629,4.055 -6.48,7.574 -20.883,23.5 -25.75,28.469 -3.101,3.172 -8.48,8.762 -11.957,12.426 -3.476,3.664 -6.738,6.66 -7.246,6.66 -0.508,0 -1.184,0.683 -1.508,1.519 -1.219,3.184 -4.535,1.09 -14.902,-9.422 z m 24.976,-262.265 c 5.059,-0.774 11.446,-2.153 14.196,-3.071 6.633,-2.21 18.691,-7.972 18.691,-8.929 0,-0.418 0.504,-0.762 1.121,-0.762 3.086,0 18.25,-14.285 24.856,-23.418 9.968,-13.781 15.851,-32.32 15.898,-50.101 0.027,-9.29 -2.574,-25.5 -4.375,-27.301 -0.547,-0.547 -0.996,-1.703 -0.996,-2.567 0,-2.761 -9.922,-21.328 -11.406,-21.339 -0.418,-0.004 -0.762,-0.52 -0.762,-1.145 0,-0.625 -3.594,-4.73 -7.988,-9.125 -4.395,-4.395 -8.5,-7.988 -9.129,-7.988 -0.625,0 -1.137,-0.344 -1.141,-0.762 0,-0.418 -1.488,-1.648 -3.297,-2.73 -16.964,-10.153 -30.894,-14.258 -48.414,-14.258 -24.472,0 -44.828,8.703 -62.672,26.797 -5.515,5.593 -15.562,19.984 -16.687,23.91 -0.32,1.113 -1.551,4.535 -2.734,7.605 -1.184,3.067 -2.813,9.227 -3.618,13.688 -4.277,23.683 1.575,48.199 16.211,67.941 3.961,5.34 12.321,13.684 16.766,16.738 1.953,1.34 3.777,2.688 4.055,2.993 0.765,0.836 7.121,4.269 15.605,8.429 5.977,2.93 22.926,6.407 32.567,6.68 2.23,0.062 8.195,-0.516 13.253,-1.285 z" /></g></g></svg>
