<?xml version="1.0" encoding="UTF-8" standalone="no"?>
<svg
   xmlns:dc="http://purl.org/dc/elements/1.1/"
   xmlns:cc="http://creativecommons.org/ns#"
   xmlns:rdf="http://www.w3.org/1999/02/22-rdf-syntax-ns#"
   xmlns:svg="http://www.w3.org/2000/svg"
   xmlns="http://www.w3.org/2000/svg"
   xmlns:sodipodi="http://sodipodi.sourceforge.net/DTD/sodipodi-0.dtd"
   xmlns:inkscape="http://www.inkscape.org/namespaces/inkscape"
   inkscape:version="1.0 (4035a4fb49, 2020-05-01)"
   sodipodi:docname="GPS_map.svg"
   id="svg34"
   version="1.2"
   viewBox="0 0 196.94191 171.547653"
   height="171.547653pt"
   width="196.94191pt">
  <metadata
     id="metadata38">
    <rdf:RDF>
      <cc:Work
         rdf:about="">
        <dc:format>image/svg+xml</dc:format>
        <dc:type
           rdf:resource="http://purl.org/dc/dcmitype/StillImage" />
        <dc:title></dc:title>
      </cc:Work>
    </rdf:RDF>
  </metadata>
  <sodipodi:namedview
     inkscape:current-layer="svg34"
     inkscape:window-maximized="0"
     inkscape:window-y="0"
     inkscape:window-x="0"
     inkscape:cy="114.3651"
     inkscape:cx="131.29461"
     inkscape:zoom="3.6287293"
     showgrid="false"
     id="namedview36"
     inkscape:window-height="480"
     inkscape:window-width="821"
     inkscape:pageshadow="2"
     inkscape:pageopacity="0"
     guidetolerance="10"
     gridtolerance="10"
     objecttolerance="10"
     borderopacity="1"
     bordercolor="#666666"
     pagecolor="#ffffff" />
  <defs
     id="defs27">
    <clipPath
       id="clip1">
      <path
         id="path24"
         d="M 0 0 L 196.941406 0 L 196.941406 171.546875 L 0 171.546875 Z M 0 0 " />
    </clipPath>
  </defs>
  <g
     id="surface311282">
    <g
       id="g31"
       clip-rule="nonzero"
       clip-path="url(#clip1)">
      <path
         id="path29"
         d="M 147.386719 163.355469 L 123.027344 155.183594 L 115.585938 156.417969 C 111.496094 157.09375 100.503906 158.929688 91.160156 160.496094 L 74.167969 163.34375 L 57.917969 160.625 C 48.980469 159.132813 37.726563 157.25 32.90625 156.441406 C 27.433594 155.523438 23.878906 154.816406 23.425781 154.558594 C 22.011719 153.746094 21.867188 153.066406 21.867188 147.203125 C 21.867188 142.390625 21.910156 141.855469 22.335938 141.15625 C 23.105469 139.894531 23.96875 139.503906 25.761719 139.605469 C 26.585938 139.652344 28.101563 141.082031 28.125 141.84375 C 28.136719 142.148438 28.128906 143.886719 28.109375 145.699219 C 28.074219 148.9375 28.085938 149.003906 28.632813 149.234375 C 28.9375 149.363281 34.371094 150.328125 40.707031 151.378906 C 59.429688 154.488281 69.703125 156.203125 70.40625 156.347656 L 71.066406 156.480469 L 71.066406 154.304688 C 71.066406 152.246094 71.039063 152.125 70.527344 152.007813 C 70.230469 151.941406 61.96875 150.546875 52.167969 148.910156 C 40.097656 146.898438 34.148438 145.808594 33.734375 145.535156 C 32.925781 145.007813 32.1875 143.765625 32.1875 142.929688 C 32.1875 141.359375 33.65625 139.871094 35.242188 139.839844 C 35.738281 139.828125 43.933594 141.132813 53.449219 142.730469 C 62.960938 144.332031 70.820313 145.640625 70.910156 145.640625 C 71 145.640625 71.066406 130.183594 71.0625 111.292969 L 71.050781 76.941406 L 70.160156 77.082031 C 67.359375 77.515625 66.871094 77.511719 66.046875 77.058594 C 64.484375 76.195313 63.917969 74.226563 64.816406 72.753906 C 65.519531 71.605469 66.164063 71.300781 68.667969 70.941406 L 70.945313 70.617188 L 71.007813 54.371094 C 71.050781 42.972656 70.992188 38.121094 70.8125 38.121094 C 70.671875 38.121094 63.453125 36.933594 54.769531 35.480469 C 46.085938 34.03125 38.855469 32.84375 38.703125 32.84375 C 38.496094 32.84375 38.425781 40.40625 38.429688 63.121094 C 38.433594 89.851563 38.390625 93.464844 38.066406 93.957031 C 36.757813 95.957031 33.738281 95.863281 32.625 93.789063 C 32.207031 93.007813 32.1875 91.496094 32.1875 60.6875 C 32.1875 24.363281 32.039063 27.203125 33.988281 26.253906 L 34.945313 25.785156 L 52.707031 28.75 C 62.476563 30.382813 70.601563 31.765625 70.765625 31.824219 C 70.988281 31.90625 71.066406 31.464844 71.066406 30.113281 C 71.066406 28.421875 71.027344 28.28125 70.527344 28.167969 C 70.230469 28.097656 60.648438 26.484375 49.230469 24.578125 C 34.285156 22.085938 28.429688 21.191406 28.304688 21.390625 C 28.210938 21.539063 28.128906 37.4375 28.121094 56.714844 C 28.109375 90.175781 28.085938 91.789063 27.671875 92.363281 C 27.015625 93.265625 25.609375 93.882813 24.625 93.695313 C 23.503906 93.488281 22.410156 92.507813 22.101563 91.445313 C 21.925781 90.832031 21.867188 79.140625 21.917969 53.441406 C 21.988281 16.363281 21.988281 16.316406 22.484375 15.640625 C 22.753906 15.265625 23.367188 14.769531 23.839844 14.535156 L 24.699219 14.105469 L 46.382813 17.730469 C 58.308594 19.722656 69.429688 21.582031 71.097656 21.855469 L 74.128906 22.359375 L 79.378906 21.496094 C 82.265625 21.023438 93.375 19.167969 104.066406 17.375 L 123.507813 14.113281 L 136.226563 18.359375 C 143.710938 20.855469 149.265625 22.835938 149.71875 23.167969 C 151.460938 24.445313 151.226563 27.304688 149.292969 28.289063 C 148.785156 28.550781 148.160156 28.761719 147.90625 28.761719 C 147.652344 28.761719 142.761719 27.195313 137.042969 25.28125 C 131.320313 23.367188 126.554688 21.800781 126.453125 21.800781 C 126.132813 21.800781 126.238281 25.320313 126.566406 25.582031 C 126.730469 25.710938 131.78125 27.46875 137.785156 29.484375 C 143.792969 31.5 148.996094 33.296875 149.351563 33.476563 C 150.816406 34.210938 151.308594 35.871094 150.53125 37.46875 C 150.015625 38.539063 148.871094 39.320313 147.824219 39.320313 C 147.546875 39.320313 142.65625 37.757813 136.960938 35.84375 C 131.261719 33.929688 126.523438 32.363281 126.433594 32.363281 C 126.34375 32.363281 126.273438 51.570313 126.277344 75.042969 L 126.285156 117.722656 L 127.101563 118.515625 C 128.511719 119.882813 128.425781 121.894531 126.898438 123.304688 L 126.265625 123.886719 L 126.265625 131.257813 C 126.265625 138.054688 126.300781 138.644531 126.6875 138.800781 C 127.933594 139.300781 158.355469 149.480469 158.605469 149.480469 C 158.847656 149.480469 158.90625 139.816406 158.90625 101.78125 C 158.90625 56.851563 158.933594 54.035156 159.328125 53.242188 C 160.394531 51.105469 163.679688 51.097656 164.78125 53.230469 C 165.105469 53.855469 165.144531 59.746094 165.148438 104.355469 C 165.152344 149.519531 165.113281 154.855469 164.777344 155.5 C 164.3125 156.398438 163.101563 157.160156 162.140625 157.160156 C 161.742188 157.160156 153.5625 154.523438 143.964844 151.296875 C 134.371094 148.070313 126.476563 145.503906 126.425781 145.597656 C 126.375 145.6875 126.308594 146.589844 126.285156 147.605469 C 126.242188 149.234375 126.292969 149.480469 126.71875 149.707031 C 127.246094 149.988281 168.71875 163.882813 169.035156 163.882813 C 169.140625 163.882813 169.226563 138.335938 169.226563 107.113281 C 169.226563 58.59375 169.277344 50.226563 169.570313 49.53125 C 170.195313 48.03125 172.441406 47.425781 173.992188 48.339844 C 175.589844 49.28125 175.46875 44.25 175.46875 109.679688 C 175.464844 165.722656 175.441406 169.085938 175.046875 169.863281 C 174.585938 170.761719 173.292969 171.570313 172.351563 171.546875 C 172.019531 171.539063 160.785156 167.851563 147.386719 163.355469 Z M 79.972656 155.984375 C 82.003906 155.683594 118.792969 149.515625 119.488281 149.355469 C 119.996094 149.238281 120.027344 149.113281 120.027344 147.121094 L 120.027344 145.003906 L 100.285156 148.316406 C 89.429688 150.136719 79.816406 151.746094 78.925781 151.894531 L 77.308594 152.164063 L 77.308594 154.328125 C 77.308594 156.484375 77.308594 156.492188 77.875 156.351563 C 78.1875 156.273438 79.132813 156.109375 79.972656 155.984375 Z M 86.800781 144.195313 C 91.546875 143.398438 95.589844 142.703125 95.789063 142.644531 C 95.984375 142.589844 96.632813 142.484375 97.226563 142.40625 C 98.214844 142.277344 103.164063 141.457031 104.308594 141.230469 C 104.570313 141.179688 105.382813 141.0625 106.105469 140.972656 C 106.832031 140.878906 107.804688 140.710938 108.265625 140.59375 C 108.730469 140.480469 109.539063 140.332031 110.066406 140.265625 C 110.59375 140.203125 112.324219 139.917969 113.90625 139.636719 C 115.492188 139.355469 117.515625 139.015625 118.40625 138.875 L 120.027344 138.625 L 120.027344 133.878906 C 120.027344 128.75 120.050781 128.84375 118.707031 128.84375 C 117.917969 128.84375 116.75 127.785156 116.414063 126.761719 C 115.824219 124.976563 117.117188 123.003906 119.085938 122.691406 L 120.027344 122.539063 L 120.027344 31.101563 L 119.246094 31.257813 C 118.816406 31.34375 115.183594 31.957031 111.167969 32.617188 C 107.15625 33.28125 103.808594 33.859375 103.730469 33.902344 C 103.652344 33.949219 102.992188 34.054688 102.265625 34.136719 C 101.542969 34.222656 100.082031 34.449219 99.027344 34.644531 C 97.972656 34.839844 95.703125 35.226563 93.988281 35.503906 C 92.269531 35.78125 90.8125 36.039063 90.746094 36.078125 C 90.679688 36.113281 90.085938 36.210938 89.425781 36.289063 C 87.851563 36.476563 78.269531 38.09375 77.722656 38.265625 C 77.320313 38.390625 77.304688 39.378906 77.40625 57.28125 C 77.464844 67.664063 77.511719 76.539063 77.511719 77.003906 C 77.507813 77.464844 77.460938 93.097656 77.40625 111.742188 C 77.304688 144.414063 77.316406 145.640625 77.738281 145.640625 C 77.980469 145.640625 82.058594 144.992188 86.800781 144.195313 Z M 107.4375 123.261719 C 105.898438 121.671875 104.261719 118.878906 102.964844 115.640625 C 101.84375 112.839844 101.683594 111.347656 102.394531 110.265625 C 103.273438 108.921875 105.273438 108.515625 106.695313 109.394531 C 107.574219 109.9375 107.785156 110.304688 108.648438 112.761719 C 109.449219 115.046875 110.386719 116.820313 111.757813 118.640625 C 112.355469 119.433594 112.90625 120.332031 112.984375 120.636719 C 113.261719 121.71875 112.878906 122.929688 112 123.742188 C 111.269531 124.414063 110.980469 124.523438 109.902344 124.523438 C 108.710938 124.523438 108.597656 124.464844 107.4375 123.261719 Z M 101.378906 104.132813 C 100.347656 103.503906 99.957031 102.664063 99.640625 100.390625 C 99.316406 98.058594 98.613281 95.035156 97.957031 93.171875 C 97.316406 91.347656 97.332031 90.234375 98.015625 89.21875 C 99.097656 87.605469 101.410156 87.472656 102.796875 88.9375 C 103.804688 90 105.53125 96.21875 105.988281 100.425781 C 106.101563 101.488281 106.046875 102.125 105.78125 102.757813 C 105.082031 104.429688 102.953125 105.09375 101.378906 104.132813 Z M 93.242188 84.859375 C 92.964844 84.695313 92.046875 84.035156 91.203125 83.386719 C 89.472656 82.066406 87.417969 81.050781 85.21875 80.441406 C 84.292969 80.183594 83.46875 79.769531 83.046875 79.34375 C 81.128906 77.425781 82.570313 74.117188 85.324219 74.125 C 86.6875 74.128906 90.617188 75.527344 92.652344 76.738281 C 95.015625 78.140625 97.210938 80.027344 97.621094 81.003906 C 98.089844 82.132813 97.824219 83.324219 96.871094 84.335938 C 96.1875 85.058594 95.945313 85.160156 94.917969 85.160156 C 94.273438 85.15625 93.519531 85.023438 93.242188 84.859375 Z M 80.425781 31.402344 C 81.285156 31.277344 83.230469 30.957031 84.746094 30.691406 C 86.265625 30.421875 94.636719 29.011719 103.347656 27.554688 C 112.058594 26.097656 119.375 24.851563 119.605469 24.777344 C 119.957031 24.671875 120.027344 24.355469 120.027344 22.847656 L 120.027344 21.042969 L 119.367188 21.179688 C 119.003906 21.253906 109.636719 22.828125 98.546875 24.679688 C 87.460938 26.53125 78.144531 28.097656 77.847656 28.167969 C 77.34375 28.28125 77.308594 28.421875 77.308594 30.117188 L 77.308594 31.941406 L 78.085938 31.785156 C 78.515625 31.699219 79.570313 31.527344 80.425781 31.402344 Z M 30.386719 138.992188 C 25.429688 138.679688 20.667969 138.136719 17.953125 137.574219 C 15.851563 137.136719 12.910156 136.269531 12.746094 136.035156 C 12.679688 135.945313 12.367188 135.785156 12.050781 135.6875 C 11.734375 135.585938 10.945313 135.195313 10.300781 134.8125 C 9.65625 134.433594 9.0625 134.121094 8.988281 134.121094 C 8.914063 134.121094 8.316406 133.730469 7.664063 133.25 C 6.332031 132.273438 4.1875 129.71875 3.421875 128.203125 C 3.144531 127.65625 2.832031 127.167969 2.726563 127.125 C 2.351563 126.964844 1.042969 123.660156 0.539063 121.597656 C -0.203125 118.582031 -0.175781 114.34375 0.601563 111.277344 C 2.527344 103.679688 8.550781 97.675781 16.226563 95.699219 C 19.265625 94.917969 24.035156 94.90625 26.742188 95.675781 C 34.476563 97.871094 37.976563 101.472656 43.714844 113.121094 C 47.0625 119.921875 52.347656 133.964844 52.347656 136.058594 C 52.347656 137.210938 51.253906 138.566406 50.117188 138.816406 C 48.546875 139.164063 35 139.285156 30.386719 138.992188 Z M 45.015625 132.945313 C 45.171875 132.691406 42.410156 125.15625 40.519531 120.683594 C 39.503906 118.277344 36.699219 112.519531 35.550781 110.480469 C 34.515625 108.648438 32.648438 106.105469 31.425781 104.867188 C 29.183594 102.601563 25.386719 101.167969 21.628906 101.171875 C 15.4375 101.175781 10.078125 104.535156 7.445313 110.050781 C 5.34375 114.453125 5.65625 120.421875 8.210938 124.648438 C 9.683594 127.085938 13.355469 130.273438 14.703125 130.28125 C 14.917969 130.28125 15.152344 130.425781 15.21875 130.601563 C 15.339844 130.921875 18.3125 131.671875 20.117188 131.835938 C 20.640625 131.882813 21.492188 132.03125 22.007813 132.167969 C 22.523438 132.300781 23.21875 132.402344 23.546875 132.386719 C 24.355469 132.347656 28.234375 132.6875 29.425781 132.898438 C 31.035156 133.179688 44.84375 133.222656 45.015625 132.945313 Z M 19.585938 128.683594 C 16.273438 127.972656 12.929688 125.332031 11.40625 122.21875 C 11.078125 121.546875 10.625 120.121094 10.40625 119.054688 C 10.0625 117.386719 10.046875 116.867188 10.300781 115.359375 C 10.90625 111.78125 13.1875 108.410156 16.167969 106.683594 C 17.523438 105.898438 20.546875 105.082031 22.085938 105.085938 C 25.835938 105.097656 29.808594 107.21875 31.859375 110.304688 C 33.285156 112.457031 33.867188 114.335938 33.863281 116.792969 C 33.859375 120.238281 33.023438 122.53125 30.894531 124.917969 C 28.546875 127.550781 25.554688 128.863281 22.023438 128.8125 C 20.945313 128.800781 19.851563 128.738281 19.585938 128.683594 Z M 24.339844 122.382813 C 28.207031 120.621094 29.046875 115.441406 25.921875 112.65625 C 23.605469 110.59375 19.851563 110.808594 17.816406 113.125 C 16.71875 114.375 16.347656 115.367188 16.351563 117.015625 C 16.363281 119.78125 17.835938 121.71875 20.667969 122.679688 C 21.507813 122.96875 23.394531 122.8125 24.339844 122.382813 Z M 51.988281 127.8125 C 51.144531 127.335938 50.824219 126.863281 49.34375 123.914063 C 47.304688 119.859375 45.863281 116.265625 45.863281 115.257813 C 45.867188 114.367188 46.730469 113.007813 47.554688 112.589844 C 49.542969 111.582031 51.644531 112.890625 52.464844 115.640625 C 52.5625 115.972656 53.546875 118.109375 54.65625 120.394531 C 55.761719 122.679688 56.667969 124.824219 56.667969 125.160156 C 56.667969 126.292969 55.925781 127.433594 54.886719 127.90625 C 53.613281 128.484375 53.148438 128.46875 51.988281 127.8125 Z M 134.183594 123.601563 C 131.945313 122.421875 131.996094 119.121094 134.269531 118.089844 C 134.816406 117.84375 135.859375 117.382813 136.585938 117.070313 C 138.371094 116.300781 139.578125 115.464844 141.601563 113.609375 C 143.1875 112.15625 143.390625 112.042969 144.410156 112.042969 C 146.324219 112.042969 147.628906 113.300781 147.628906 115.148438 C 147.628906 116.238281 147.144531 117.027344 145.550781 118.527344 C 142.96875 120.96875 139.921875 122.8125 137.082031 123.65625 C 135.4375 124.144531 135.203125 124.140625 134.183594 123.601563 Z M 148.289063 108.546875 C 147.496094 108.117188 146.90625 107.050781 146.90625 106.050781 C 146.90625 105.644531 147.351563 103.992188 147.890625 102.378906 C 148.433594 100.761719 149.128906 98.324219 149.4375 96.960938 C 150.265625 93.316406 151.023438 92.4375 153.25 92.550781 C 154.960938 92.636719 155.824219 93.507813 155.964844 95.285156 C 156.078125 96.730469 154.941406 101.507813 153.605469 105.203125 C 152.578125 108.046875 151.746094 108.925781 150.109375 108.914063 C 149.472656 108.90625 148.652344 108.742188 148.289063 108.546875 Z M 44.785156 107.867188 C 42.960938 107.058594 42.519531 105.414063 42.363281 98.84375 C 42.234375 93.351563 42.414063 92.53125 43.945313 91.671875 C 45.03125 91.0625 45.8125 91.027344 46.902344 91.550781 C 48.386719 92.257813 48.617188 92.992188 48.539063 96.738281 C 48.496094 98.898438 48.609375 100.992188 48.871094 102.800781 C 49.257813 105.46875 49.257813 105.597656 48.816406 106.441406 C 48.035156 107.949219 46.335938 108.550781 44.785156 107.867188 Z M 152.867188 87.632813 C 151.867188 87.011719 151.140625 85.53125 151.324219 84.480469 C 151.40625 83.996094 151.578125 81.296875 151.707031 78.480469 C 151.851563 75.308594 152.058594 73.125 152.246094 72.742188 C 153 71.199219 155.300781 70.617188 156.667969 71.617188 C 158.054688 72.632813 158.238281 73.375 158.078125 77.242188 C 157.765625 84.734375 157.578125 86.296875 156.890625 86.964844 C 155.730469 88.09375 154.058594 88.371094 152.867188 87.632813 Z M 47.816406 87.152344 C 46.019531 86.265625 45.5625 84 46.816406 82.175781 C 48.410156 79.859375 51.242188 77.390625 54.507813 75.464844 C 56.390625 74.355469 57.484375 74.15625 58.660156 74.714844 C 59.8125 75.261719 60.359375 76.15625 60.359375 77.5 C 60.359375 78.90625 59.707031 79.84375 58.191406 80.617188 C 56.542969 81.457031 53.847656 83.652344 52.335938 85.390625 C 50.429688 87.585938 49.460938 87.960938 47.816406 87.152344 Z M 153.636719 66.375 C 152.140625 65.847656 151.78125 64.960938 151.585938 61.324219 C 151.390625 57.695313 151.585938 56.960938 152.980469 56.113281 C 154.460938 55.207031 156.664063 55.820313 157.394531 57.339844 C 157.554688 57.667969 157.757813 59.34375 157.847656 61.058594 C 157.988281 63.714844 157.953125 64.292969 157.617188 64.949219 C 156.898438 66.332031 155.214844 66.9375 153.636719 66.375 Z M 153.507813 51.101563 C 151.71875 50.304688 151.382813 49.0625 151.578125 43.902344 C 152.1875 27.609375 153.902344 16.515625 156.6875 10.882813 C 158.941406 6.316406 164.082031 2.222656 169.496094 0.675781 C 171.945313 -0.0234375 176.566406 -0.214844 179.332031 0.269531 C 190.140625 2.15625 197.96875 12.578125 196.832031 23.554688 C 196.488281 26.863281 195.136719 30.898438 193.945313 32.179688 C 193.707031 32.433594 193.257813 33.128906 192.949219 33.722656 C 192.351563 34.871094 189.488281 37.882813 188.996094 37.882813 C 188.835938 37.882813 188.183594 38.28125 187.546875 38.769531 C 186.363281 39.679688 179.546875 43.285156 179.546875 43.003906 C 179.546875 42.917969 179.339844 43.035156 179.082031 43.269531 C 178.828125 43.5 178.503906 43.617188 178.363281 43.53125 C 178.222656 43.445313 178.105469 43.476563 178.105469 43.601563 C 178.105469 43.808594 177.367188 44.152344 176.785156 44.214844 C 176.65625 44.230469 176.492188 44.308594 176.425781 44.390625 C 176.125 44.769531 165.3125 48.40625 159.746094 50 C 155.570313 51.195313 154.246094 51.429688 153.507813 51.101563 Z M 160.167969 43.535156 C 161.191406 43.21875 162.027344 43.027344 162.027344 43.109375 C 162.027344 43.191406 162.15625 43.128906 162.316406 42.96875 C 162.472656 42.8125 162.851563 42.683594 163.15625 42.683594 C 163.457031 42.683594 163.707031 42.585938 163.707031 42.46875 C 163.707031 42.351563 164.109375 42.179688 164.601563 42.085938 C 165.378906 41.941406 171.070313 39.980469 172.816406 39.257813 C 173.152344 39.121094 173.535156 38.996094 173.667969 38.980469 C 174.214844 38.921875 175.707031 38.3125 175.707031 38.148438 C 175.707031 38.050781 176.328125 37.777344 177.085938 37.539063 C 177.847656 37.304688 178.628906 36.972656 178.828125 36.800781 C 179.023438 36.628906 180.230469 35.996094 181.507813 35.390625 C 182.78125 34.785156 183.859375 34.207031 183.90625 34.105469 C 183.949219 34.003906 184.453125 33.605469 185.023438 33.21875 C 188.714844 30.710938 190.835938 26.421875 190.824219 21.488281 C 190.804688 13.261719 184.535156 6.546875 176.390625 6.03125 C 173.136719 5.824219 170.074219 6.550781 167.359375 8.175781 C 165.441406 9.320313 162.96875 11.839844 162.21875 13.410156 C 160.167969 17.699219 158.675781 26.222656 157.949219 37.761719 C 157.625 42.929688 157.636719 44.121094 158.007813 44.117188 C 158.171875 44.117188 159.144531 43.855469 160.167969 43.535156 Z M 171.683594 33.328125 C 166.886719 32.105469 163.515625 28 163.085938 22.863281 C 162.800781 19.410156 164.011719 16.21875 166.585938 13.640625 C 168.355469 11.875 170.140625 10.898438 172.546875 10.390625 C 174.550781 9.964844 175.1875 9.964844 177.214844 10.394531 C 181.023438 11.203125 183.933594 13.480469 185.625 16.980469 C 186.496094 18.773438 186.613281 19.234375 186.707031 21.152344 C 186.894531 25.074219 185.847656 27.820313 183.167969 30.441406 C 182.292969 31.300781 181.308594 32.121094 180.980469 32.265625 C 180.65625 32.414063 179.847656 32.777344 179.1875 33.078125 C 177.523438 33.832031 174.113281 33.945313 171.683594 33.328125 Z M 176.644531 27.570313 C 177.921875 27.203125 179.015625 26.34375 179.855469 25.046875 C 180.554688 23.964844 180.625 23.683594 180.621094 22.019531 C 180.617188 20.40625 180.527344 20.042969 179.894531 19.019531 C 179.449219 18.300781 178.722656 17.578125 178 17.128906 C 176.941406 16.472656 176.628906 16.402344 174.847656 16.402344 C 173.03125 16.402344 172.78125 16.460938 171.835938 17.128906 C 171.265625 17.527344 170.472656 18.320313 170.074219 18.890625 C 169.398438 19.851563 169.347656 20.074219 169.347656 22.042969 C 169.347656 24.011719 169.398438 24.234375 170.066406 25.179688 C 170.464844 25.738281 171.0625 26.402344 171.402344 26.652344 C 172.785156 27.675781 174.949219 28.054688 176.644531 27.570313 Z M 176.644531 27.570313 "
         style=" stroke:none;fill-rule:nonzero;fill:rgb(0%,0%,0%);fill-opacity:1;" />
    </g>
  </g>
</svg>
