<?xml version="1.0" encoding="UTF-8" standalone="no"?>
<svg
   xmlns:dc="http://purl.org/dc/elements/1.1/"
   xmlns:cc="http://creativecommons.org/ns#"
   xmlns:rdf="http://www.w3.org/1999/02/22-rdf-syntax-ns#"
   xmlns:svg="http://www.w3.org/2000/svg"
   xmlns="http://www.w3.org/2000/svg"
   xmlns:sodipodi="http://sodipodi.sourceforge.net/DTD/sodipodi-0.dtd"
   xmlns:inkscape="http://www.inkscape.org/namespaces/inkscape"
   inkscape:version="1.0 (4035a4fb49, 2020-05-01)"
   sodipodi:docname="gyro.svg"
   id="svg27"
   version="1.2"
   viewBox="0 0 171.435699 171.271759"
   height="171.271759pt"
   width="171.435699pt">
  <metadata
     id="metadata33">
    <rdf:RDF>
      <cc:Work
         rdf:about="">
        <dc:format>image/svg+xml</dc:format>
        <dc:type
           rdf:resource="http://purl.org/dc/dcmitype/StillImage" />
        <dc:title></dc:title>
      </cc:Work>
    </rdf:RDF>
  </metadata>
  <defs
     id="defs31" />
  <sodipodi:namedview
     inkscape:current-layer="svg27"
     inkscape:window-maximized="1"
     inkscape:window-y="-9"
     inkscape:window-x="-9"
     inkscape:cy="114.18117"
     inkscape:cx="114.29047"
     inkscape:zoom="3.6345747"
     showgrid="false"
     id="namedview29"
     inkscape:window-height="1001"
     inkscape:window-width="1920"
     inkscape:pageshadow="2"
     inkscape:pageopacity="0"
     guidetolerance="10"
     gridtolerance="10"
     objecttolerance="10"
     borderopacity="1"
     bordercolor="#666666"
     pagecolor="#ffffff" />
  <g
     id="surface207900">
    <path
       id="path24"
       d="M 82.699219 170.671875 C 80.339844 169.699219 78.894531 168.308594 77.878906 166.023438 C 77.488281 165.148438 77.363281 164.390625 77.363281 162.835938 C 77.359375 161.085938 77.453125 160.597656 78.03125 159.402344 C 78.890625 157.628906 80.351563 156.121094 81.9375 155.378906 L 83.179688 154.792969 L 83.1875 149.960938 C 83.199219 144.453125 83.375 144.847656 80.917969 144.835938 C 79.210938 144.828125 74.050781 143.996094 71.148438 143.265625 C 50.972656 138.175781 34.804688 123.019531 28.535156 103.3125 C 27.277344 99.351563 26.589844 96.054688 26.105469 91.675781 L 25.710938 88.074219 L 21.125 88.007813 L 16.539063 87.945313 L 15.910156 89.230469 C 15.109375 90.867188 13.605469 92.355469 11.917969 93.183594 C 10.78125 93.746094 10.300781 93.835938 8.433594 93.835938 C 6.46875 93.835938 6.117188 93.761719 4.664063 93.042969 C 2.828125 92.140625 1.597656 90.867188 0.671875 88.914063 C -0.226563 87.015625 -0.222656 84.097656 0.675781 82.164063 C 1.554688 80.269531 2.824219 78.96875 4.679688 78.054688 C 6.117188 77.347656 6.476563 77.273438 8.433594 77.273438 C 10.316406 77.273438 10.773438 77.359375 11.964844 77.945313 C 13.65625 78.777344 15.25 80.363281 15.996094 81.949219 L 16.558594 83.152344 L 21.074219 83.152344 C 26.351563 83.152344 25.695313 83.703125 26.074219 78.972656 C 27.316406 63.457031 35.636719 48.171875 48.328125 38.078125 C 57.476563 30.804688 68.371094 26.425781 80.136719 25.289063 L 83.199219 24.996094 L 83.1875 20.65625 L 83.179688 16.3125 L 81.988281 15.757813 C 81.335938 15.449219 80.328125 14.726563 79.753906 14.152344 C 75.632813 10.03125 76.859375 3.183594 82.1875 0.5625 C 83.125 0.101563 83.707031 0.00390625 85.601563 0 C 87.703125 -0.00390625 88.011719 0.0546875 89.492188 0.785156 C 93.648438 2.828125 95.292969 7.898438 93.164063 12.101563 C 92.472656 13.46875 90.242188 15.570313 89.078125 15.953125 L 88.238281 16.230469 L 88.238281 25.023438 L 90.21875 25.1875 C 109.488281 26.769531 126.261719 36.925781 136.65625 53.304688 C 139.054688 57.082031 141.449219 62.277344 142.925781 66.90625 C 144.261719 71.089844 145.445313 77.515625 145.652344 81.714844 L 145.71875 83.035156 L 150.292969 83.097656 L 154.867188 83.164063 L 155.414063 81.957031 C 156.121094 80.390625 157.855469 78.671875 159.515625 77.894531 C 160.632813 77.371094 161.175781 77.273438 163.003906 77.273438 C 164.964844 77.273438 165.316406 77.347656 166.773438 78.0625 C 169.273438 79.296875 170.777344 81.359375 171.328125 84.3125 C 171.867188 87.210938 170.359375 90.6875 167.808594 92.445313 C 163.578125 95.363281 157.605469 93.789063 155.453125 89.191406 L 154.871094 87.945313 L 150.296875 88.007813 L 145.726563 88.074219 L 145.425781 90.953125 C 143.957031 104.953125 138.183594 117.214844 128.371094 127.160156 C 120.730469 134.90625 111.40625 140.328125 101.054688 143.054688 C 97.78125 143.914063 92.316406 144.828125 90.398438 144.835938 C 88.082031 144.847656 88.234375 144.472656 88.246094 149.960938 L 88.257813 154.792969 L 89.425781 155.34375 C 91.796875 156.453125 93.53125 158.847656 93.976563 161.628906 C 94.988281 167.898438 88.535156 173.074219 82.699219 170.671875 Z M 87.761719 165.710938 C 88.1875 165.410156 88.683594 164.804688 88.863281 164.367188 C 90.15625 161.277344 87.292969 158.355469 84.285156 159.6875 C 82.933594 160.285156 82.238281 161.359375 82.238281 162.859375 C 82.234375 165.730469 85.421875 167.375 87.761719 165.710938 Z M 92.4375 139.804688 C 111.195313 137.292969 127.164063 125.820313 135.269531 109.035156 C 147.261719 84.207031 139.214844 54.566406 116.316406 39.257813 C 113.386719 37.296875 108.894531 34.917969 106.117188 33.851563 C 105.195313 33.5 104.222656 33.113281 103.957031 33 C 102.863281 32.519531 98.25 31.328125 95.675781 30.859375 C 89.828125 29.800781 84.226563 29.683594 78.039063 30.5 C 75.375 30.847656 70.527344 31.871094 69.636719 32.269531 C 69.375 32.386719 68.886719 32.554688 68.558594 32.644531 C 67.277344 32.984375 63.519531 34.554688 61.074219 35.769531 C 50.1875 41.199219 41.484375 49.992188 36.144531 60.953125 C 29.796875 73.992188 28.863281 88.945313 33.527344 102.832031 C 38.222656 116.816406 48.78125 128.578125 62.402344 135 C 68.226563 137.746094 76.019531 139.757813 82.117188 140.089844 C 84.324219 140.210938 90.738281 140.03125 92.4375 139.804688 Z M 58.238281 125.742188 C 46.128906 123.144531 41.582031 111.699219 46.5625 96.355469 C 47.328125 94.003906 49.953125 87.742188 50.289063 87.472656 C 50.371094 87.410156 50.695313 86.828125 51.011719 86.183594 L 51.582031 85.011719 L 50.257813 82.460938 C 46.746094 75.703125 44.902344 69.390625 44.644531 63.234375 C 44.527344 60.523438 44.585938 59.601563 45.003906 57.59375 C 46.308594 51.285156 50.308594 46.71875 56.15625 44.863281 C 66.804688 41.488281 83.347656 47.257813 98.078125 59.488281 C 104.734375 65.015625 111.421875 72.222656 115.421875 78.175781 C 116.109375 79.199219 116.738281 80.035156 116.820313 80.035156 C 117.09375 80.035156 119 75.625 119.960938 72.761719 C 121.265625 68.859375 121.875 65.601563 121.890625 62.394531 C 121.925781 55.058594 118.679688 50.59375 112.269531 49.167969 C 110.871094 48.855469 109.796875 48.800781 107.339844 48.910156 C 103.761719 49.074219 101.46875 49.550781 97.25 51.007813 C 94.042969 52.117188 93.433594 52.132813 92.417969 51.117188 C 91.675781 50.375 91.628906 48.925781 92.320313 48.046875 C 93.132813 47.011719 98.589844 45.15625 103.117188 44.371094 C 106.140625 43.84375 110.824219 43.851563 113.316406 44.382813 C 127.378906 47.382813 130.886719 62.632813 121.777344 81.179688 C 120.984375 82.800781 120.238281 84.183594 120.125 84.253906 C 119.679688 84.53125 119.984375 85.421875 121.703125 88.839844 C 123.667969 92.75 125.367188 97.507813 126.1875 101.394531 C 126.941406 104.953125 126.945313 110.730469 126.195313 113.515625 C 124.558594 119.589844 120.53125 123.695313 114.507813 125.441406 C 112.820313 125.929688 112.09375 125.992188 108.277344 125.984375 C 104.414063 125.972656 103.65625 125.902344 101.085938 125.300781 C 97.394531 124.433594 92.996094 122.871094 92.210938 122.144531 C 91.355469 121.355469 91.339844 119.628906 92.175781 118.792969 C 93.164063 117.808594 93.65625 117.835938 97.496094 119.125 C 101.875 120.597656 104.152344 121.082031 107.449219 121.25 C 113.503906 121.554688 118.089844 119.394531 120.316406 115.1875 C 122.257813 111.515625 122.453125 106.417969 120.882813 100.335938 C 119.867188 96.398438 117.351563 90.113281 116.792969 90.113281 C 116.671875 90.113281 116.445313 90.355469 116.285156 90.652344 C 115.78125 91.59375 112.148438 96.394531 110.339844 98.515625 C 107.957031 101.300781 102.511719 106.785156 99.816406 109.117188 C 89.472656 118.0625 78.09375 124.003906 67.988281 125.746094 C 65.363281 126.199219 60.355469 126.195313 58.238281 125.742188 Z M 66.308594 121.054688 C 71.542969 120.328125 78.027344 117.925781 83.914063 114.527344 C 94.835938 108.230469 106.441406 97.132813 113.269531 86.457031 L 114.152344 85.074219 L 113.65625 84.195313 C 112.753906 82.59375 111.375 80.675781 108.707031 77.332031 C 97.371094 63.101563 82.847656 52.867188 69.277344 49.539063 C 67.40625 49.078125 66.332031 48.976563 63.277344 48.96875 C 60.769531 48.957031 59.167969 49.066406 58.359375 49.292969 C 48.632813 52.03125 46.753906 62.609375 53.320313 77.632813 C 53.808594 78.757813 54.292969 79.761719 54.390625 79.867188 C 54.488281 79.976563 55.25 79.113281 56.082031 77.949219 C 61.429688 70.464844 69.578125 62.078125 76.386719 57.054688 C 78.246094 55.683594 79.441406 55.425781 80.496094 56.164063 C 81.199219 56.65625 81.628906 58.117188 81.3125 58.941406 C 81.171875 59.308594 79.59375 60.753906 77.515625 62.414063 C 73.347656 65.746094 66.914063 72.070313 63.832031 75.871094 C 62.636719 77.34375 60.660156 79.972656 59.4375 81.710938 C 57.386719 84.632813 57.238281 84.921875 57.496094 85.484375 C 57.808594 86.167969 61.632813 91.515625 63.128906 93.355469 C 67.363281 98.566406 72.46875 103.621094 77.910156 107.988281 C 80.296875 109.90625 80.804688 110.425781 80.929688 111.09375 C 81.257813 112.851563 79.496094 114.441406 77.835938 113.882813 C 76.808594 113.539063 71.386719 109.0625 67.765625 105.570313 C 64.074219 102.007813 62.183594 99.929688 59.15625 96.113281 C 56.238281 92.441406 56.207031 92.394531 55.40625 91.132813 C 55.046875 90.574219 54.648438 90.152344 54.515625 90.195313 C 53.832031 90.421875 50.832031 98.464844 50.042969 102.199219 C 49.382813 105.324219 49.316406 109.941406 49.902344 112.128906 C 51.757813 119.050781 57.65625 122.257813 66.308594 121.054688 Z M 84.015625 96.601563 C 79.484375 95.917969 76.042969 93.03125 74.539063 88.648438 C 73.863281 86.671875 73.8125 83.605469 74.425781 81.714844 C 76.234375 76.144531 81.617188 72.679688 87.210938 73.484375 C 92.34375 74.226563 96.445313 78.328125 97.1875 83.460938 C 97.824219 87.902344 95.703125 92.433594 91.808594 94.933594 C 89.691406 96.292969 86.503906 96.972656 84.015625 96.601563 Z M 88.609375 91.132813 C 89.910156 90.464844 91.425781 88.777344 91.949219 87.414063 C 92.535156 85.871094 92.382813 83.433594 91.59375 81.871094 C 89.59375 77.902344 84.171875 77.042969 80.933594 80.183594 C 79.445313 81.632813 79.003906 82.75 79.003906 85.074219 C 79 87.347656 79.257813 88.035156 80.734375 89.664063 C 82.203125 91.289063 83.546875 91.816406 85.957031 91.707031 C 87.0625 91.65625 87.96875 91.460938 88.609375 91.132813 Z M 9.757813 88.765625 C 10.890625 88.3125 11.917969 86.800781 11.917969 85.582031 C 11.917969 82.863281 8.726563 81.085938 6.480469 82.554688 C 4.117188 84.105469 4.613281 88.113281 7.273438 88.90625 C 8.296875 89.214844 8.691406 89.191406 9.757813 88.765625 Z M 165.074219 88.40625 C 167.171875 86.914063 166.890625 83.636719 164.5625 82.398438 C 163.464844 81.816406 162.726563 81.839844 161.445313 82.496094 C 158.871094 83.816406 158.875 87.28125 161.457031 88.628906 C 162.695313 89.273438 163.964844 89.195313 165.074219 88.40625 Z M 87.671875 11.125 C 89.628906 9.9375 89.679688 6.761719 87.761719 5.398438 C 85.445313 3.75 82.238281 5.375 82.238281 8.203125 C 82.238281 11.113281 85.128906 12.667969 87.671875 11.125 Z M 87.671875 11.125 "
       style=" stroke:none;fill-rule:nonzero;fill:rgb(0%,0%,0%);fill-opacity:1;" />
  </g>
</svg>
