<?xml version="1.0" encoding="UTF-8" standalone="no"?>
<svg
   xmlns:dc="http://purl.org/dc/elements/1.1/"
   xmlns:cc="http://creativecommons.org/ns#"
   xmlns:rdf="http://www.w3.org/1999/02/22-rdf-syntax-ns#"
   xmlns:svg="http://www.w3.org/2000/svg"
   xmlns="http://www.w3.org/2000/svg"
   xmlns:sodipodi="http://sodipodi.sourceforge.net/DTD/sodipodi-0.dtd"
   xmlns:inkscape="http://www.inkscape.org/namespaces/inkscape"
   inkscape:version="1.0 (4035a4fb49, 2020-05-01)"
   sodipodi:docname="satellite.svg"
   id="svg64"
   version="1.2"
   viewBox="0 0 88.282364 88.475342"
   height="88.475342pt"
   width="88.282364pt">
  <metadata
     id="metadata68">
    <rdf:RDF>
      <cc:Work
         rdf:about="">
        <dc:format>image/svg+xml</dc:format>
        <dc:type
           rdf:resource="http://purl.org/dc/dcmitype/StillImage" />
        <dc:title></dc:title>
      </cc:Work>
    </rdf:RDF>
  </metadata>
  <sodipodi:namedview
     inkscape:current-layer="svg64"
     inkscape:window-maximized="0"
     inkscape:window-y="0"
     inkscape:window-x="0"
     inkscape:cy="58.983561"
     inkscape:cx="58.854909"
     inkscape:zoom="7.0358587"
     showgrid="false"
     id="namedview66"
     inkscape:window-height="480"
     inkscape:window-width="821"
     inkscape:pageshadow="2"
     inkscape:pageopacity="0"
     guidetolerance="10"
     gridtolerance="10"
     objecttolerance="10"
     borderopacity="1"
     bordercolor="#666666"
     pagecolor="#ffffff" />
  <defs
     id="defs57">
    <clipPath
       id="clip1">
      <path
         id="path54"
         d="M 0 0 L 88.28125 0 L 88.28125 88.476563 L 0 88.476563 Z M 0 0 " />
    </clipPath>
  </defs>
  <g
     id="surface457827">
    <g
       id="g61"
       clip-rule="nonzero"
       clip-path="url(#clip1)">
      <path
         id="path59"
         d="M 66.414063 88.160156 C 65.65625 87.996094 64.980469 87.804688 64.910156 87.734375 C 64.839844 87.664063 65.617188 87.542969 66.644531 87.460938 C 70.148438 87.1875 74.253906 85.660156 77.621094 83.375 C 82.703125 79.925781 86.65625 73.324219 87.269531 67.253906 C 87.484375 65.101563 87.726563 64.925781 88.039063 66.699219 C 89.492188 75.042969 84.34375 83.808594 76.035156 87.128906 C 74.238281 87.847656 70.820313 88.503906 69.015625 88.472656 C 68.339844 88.464844 67.167969 88.320313 66.414063 88.160156 Z M 65.269531 80.292969 C 63.832031 79.886719 63.976563 79.691406 65.820313 79.550781 C 70.761719 79.175781 75.550781 76.027344 77.695313 71.746094 C 78.605469 69.921875 79.226563 67.800781 79.570313 65.335938 L 79.734375 64.132813 L 80.058594 65.335938 C 80.769531 67.996094 80.328125 71.707031 79.003906 74.195313 C 78.101563 75.886719 75.515625 78.433594 73.910156 79.203125 C 71.285156 80.46875 67.550781 80.9375 65.269531 80.292969 Z M 40.234375 74.179688 C 40.027344 73.539063 39.785156 72.636719 39.691406 72.175781 C 39.410156 70.78125 39.539063 66.824219 39.917969 65.191406 C 40.746094 61.625 42.683594 57.445313 45.074219 54.054688 C 46.878906 51.496094 51.433594 46.976563 54.109375 45.089844 C 60.921875 40.285156 69.09375 38.378906 74.179688 40.414063 L 75.148438 40.800781 L 72.046875 43.972656 L 69.746094 54.019531 C 67.589844 63.429688 67.464844 64.109375 67.796875 64.75 C 68.3125 65.746094 68.25 67.273438 67.667969 67.855469 C 67.089844 68.433594 65.847656 68.484375 64.640625 67.980469 C 63.835938 67.644531 63.554688 67.675781 59.667969 68.585938 C 57.402344 69.113281 52.902344 70.152344 49.667969 70.890625 L 43.789063 72.234375 L 42.195313 73.792969 L 40.605469 75.347656 Z M 54.417969 68.054688 C 60.320313 66.695313 61.859375 66.265625 61.617188 66.039063 C 61.089844 65.546875 54.964844 61.375 54.769531 61.375 C 54.667969 61.375 52.695313 63.265625 50.386719 65.574219 C 48.082031 67.882813 46.355469 69.777344 46.550781 69.777344 C 46.746094 69.78125 50.289063 69.003906 54.417969 68.054688 Z M 67.421875 56.574219 C 68.097656 53.605469 68.863281 50.273438 69.121094 49.175781 C 69.378906 48.074219 69.589844 46.996094 69.589844 46.777344 C 69.589844 46.550781 67.777344 48.1875 65.386719 50.578125 C 63.074219 52.886719 61.230469 54.894531 61.285156 55.046875 C 61.4375 55.433594 66.058594 62.105469 66.128906 62.035156 C 66.160156 62 66.742188 59.542969 67.421875 56.574219 Z M 64.910156 73.761719 L 64.1875 73.449219 L 65.507813 73.164063 C 69.425781 72.324219 72.535156 69.113281 73.089844 65.335938 L 73.265625 64.132813 L 73.578125 64.855469 C 73.746094 65.25 73.890625 66.335938 73.898438 67.265625 C 73.90625 68.621094 73.785156 69.210938 73.289063 70.203125 C 72.527344 71.730469 70.894531 73.210938 69.414063 73.714844 C 68.082031 74.167969 65.902344 74.191406 64.910156 73.761719 Z M 12.53125 72.046875 C 11.925781 71.625 0.53125 60.179688 0.210938 59.675781 C -0.117188 59.15625 -0.0546875 57.828125 0.332031 57.101563 C 0.816406 56.195313 17.277344 39.859375 17.890625 39.675781 C 18.363281 39.535156 19.496094 40.179688 19.960938 40.847656 C 20.0625 40.992188 20.722656 40.511719 21.582031 39.660156 L 23.03125 38.226563 L 21.46875 36.652344 C 19.136719 34.304688 18.992188 33.230469 20.789063 31.535156 L 21.703125 30.671875 L 20.820313 29.761719 C 18.851563 27.734375 19.074219 26.953125 22.714844 23.21875 C 26.617188 19.210938 27.4375 18.921875 29.417969 20.851563 L 30.40625 21.816406 L 31.644531 20.714844 C 33.453125 19.109375 33.945313 19.207031 36.476563 21.683594 L 38.042969 23.214844 L 39.464844 21.777344 L 40.886719 20.34375 L 40.265625 19.679688 C 39.453125 18.808594 39.347656 18.417969 39.726563 17.695313 C 39.902344 17.363281 43.855469 13.304688 48.515625 8.667969 C 57.613281 -0.378906 57.691406 -0.441406 59.34375 0.269531 C 60.425781 0.734375 71.910156 12.378906 72.125 13.226563 C 72.519531 14.8125 72.164063 15.25 63.167969 24.234375 C 56.601563 30.792969 54.4375 32.816406 53.992188 32.816406 C 53.664063 32.816406 53.066406 32.480469 52.617188 32.046875 L 51.824219 31.277344 L 50.507813 32.578125 C 49.78125 33.292969 49.1875 33.992188 49.1875 34.132813 C 49.1875 34.273438 49.890625 35.082031 50.746094 35.933594 C 52.347656 37.519531 52.773438 38.441406 52.421875 39.554688 C 52.328125 39.851563 51.292969 41.085938 50.125 42.292969 L 48 44.492188 L 48.832031 45.300781 C 49.292969 45.746094 49.667969 46.183594 49.667969 46.277344 C 49.667969 46.367188 48.90625 47.226563 47.976563 48.1875 L 46.285156 49.929688 L 45.339844 49.003906 L 44.394531 48.082031 L 42.171875 50.257813 C 38.996094 53.367188 38.265625 53.414063 35.5 50.679688 L 33.933594 49.132813 L 31.152344 51.945313 L 31.890625 52.753906 C 32.296875 53.199219 32.628906 53.820313 32.628906 54.136719 C 32.628906 54.574219 30.554688 56.785156 24.046875 63.289063 C 19.328125 68.007813 15.234375 71.992188 14.945313 72.140625 C 14.210938 72.523438 13.152344 72.480469 12.53125 72.046875 Z M 29.933594 47.984375 C 30.625 47.355469 31.1875 46.730469 31.1875 46.601563 C 31.1875 46.472656 29.945313 45.128906 28.429688 43.617188 L 25.671875 40.867188 L 22.78125 43.726563 L 25.484375 46.417969 C 26.972656 47.894531 28.296875 49.113281 28.433594 49.121094 C 28.566406 49.128906 29.242188 48.617188 29.933594 47.984375 Z M 47.871094 30.019531 L 49.230469 28.664063 L 46.390625 25.816406 L 43.554688 22.972656 L 40.675781 25.851563 L 43.425781 28.613281 C 44.941406 30.132813 46.257813 31.375 46.347656 31.375 C 46.441406 31.375 47.128906 30.765625 47.871094 30.019531 Z M 47.871094 30.019531 "
         style=" stroke:none;fill-rule:nonzero;fill:rgb(0%,0%,0%);fill-opacity:1;" />
    </g>
  </g>
</svg>
